<?xml version="1.0" encoding="utf-8"?>
<!-- Generator: Adobe Illustrator 18.1.1, SVG Export Plug-In . SVG Version: 6.00 Build 0)  -->
<svg version="1.1" id="Layer_1" xmlns="http://www.w3.org/2000/svg" xmlns:xlink="http://www.w3.org/1999/xlink" x="0px" y="0px"
	 width="20px" height="26px" viewBox="-1458 564 20 26" enable-background="new -1458 564 20 26" xml:space="preserve">
<path fill="none" stroke="#222222" stroke-width="3" stroke-miterlimit="10" d="M-1442.5,573v-1.1c0-3.7-1.8-6.4-5.5-6.4
	s-5.5,2.8-5.5,6.4v1.1"/>
<path fill="#222222" d="M-1441,574h-14c-1.7,0-3,1.3-3,3v10c0,1.7,1.3,3,3,3h14c1.7,0,3-1.3,3-3v-10
	C-1438,575.3-1439.3,574-1441,574z M-1447,582.7v2.3c0,0.6-0.4,1-1,1s-1-0.4-1-1v-2.3c-0.6-0.3-1-1-1-1.7c0-1.1,0.9-2,2-2s2,0.9,2,2
	C-1446,581.7-1446.4,582.4-1447,582.7z"/>
</svg>
