<?xml version="1.0" encoding="utf-8"?>
<!-- Generator: Adobe Illustrator 18.1.1, SVG Export Plug-In . SVG Version: 6.00 Build 0)  -->
<svg version="1.1" id="Layer_1" xmlns="http://www.w3.org/2000/svg" xmlns:xlink="http://www.w3.org/1999/xlink" x="0px" y="0px"
	 width="20px" height="26px" viewBox="-966 376 20 26" enable-background="new -966 376 20 26" xml:space="preserve">
<path fill="none" stroke="#FFFFFF" stroke-width="3" stroke-miterlimit="10" d="M-950.5,385v-1.1c0-3.7-1.8-6.4-5.5-6.4
	s-5.5,2.8-5.5,6.4v1.1"/>
<path fill="#FFFFFF" d="M-949,386h-14c-1.7,0-3,1.3-3,3v10c0,1.7,1.3,3,3,3h14c1.7,0,3-1.3,3-3v-10C-946,387.3-947.3,386-949,386z
	 M-955,394.7v2.3c0,0.6-0.4,1-1,1s-1-0.4-1-1v-2.3c-0.6-0.3-1-1-1-1.7c0-1.1,0.9-2,2-2s2,0.9,2,2C-954,393.7-954.4,394.4-955,394.7z
	"/>
</svg>
