<?xml version="1.0" encoding="utf-8"?>
<!-- Generator: Adobe Illustrator 18.1.1, SVG Export Plug-In . SVG Version: 6.00 Build 0)  -->
<svg version="1.1" id="Layer_1" xmlns="http://www.w3.org/2000/svg" xmlns:xlink="http://www.w3.org/1999/xlink" x="0px" y="0px"
	 width="26px" height="26px" viewBox="-486 188 26 26" enable-background="new -486 188 26 26" xml:space="preserve">
<path fill="#FFFFFF" d="M-460,205v-13c0-2.2-1.8-4-4-4h-18c-2.2,0-4,1.8-4,4v18c0,2.2,1.8,4,4,4h13c1.1,0,2.5-1.5,4.3-3.3
	c0.2-0.2,0.5-0.5,0.7-0.7c0.2-0.2,0.5-0.5,0.7-0.7C-461.5,207.5-460,206.1-460,205z M-462,205c0,1-1,1-2,1h-3c-0.6,0-1,0.4-1,1v3
	c0,0.9,0,1.8-0.7,2l-13.3,0c-1.1,0-2-0.9-2-2v-18c0-1.1,0.9-2,2-2h18c1.1,0,2,0.9,2,2V205z"/>
<path fill="none" stroke="#FFFFFF" stroke-width="2" stroke-linecap="round" stroke-linejoin="round" stroke-miterlimit="10" d="
	M-479,197c2.8,0,9,0,12,0"/>
<path fill="none" stroke="#FFFFFF" stroke-width="2" stroke-linecap="round" stroke-linejoin="round" stroke-miterlimit="10" d="
	M-479,202c1,0,9,0,10,0"/>
</svg>
