<?xml version="1.0" encoding="utf-8"?>
<!-- Generator: Adobe Illustrator 15.0.0, SVG Export Plug-In . SVG Version: 6.00 Build 0)  -->
<!DOCTYPE svg PUBLIC "-//W3C//DTD SVG 1.1//EN" "http://www.w3.org/Graphics/SVG/1.1/DTD/svg11.dtd">
<svg xmlns="http://www.w3.org/2000/svg" xmlns:xlink="http://www.w3.org/1999/xlink" version="1.1" id="Layer_1" x="0px" y="0px" width="26px" height="26px" viewBox="0 0 26 26" enable-background="new 0 0 26 26" xml:space="preserve" fill="#000000">

<path fill="#000000" d="M26,17V4c0-2.205-1.795-4-4-4H4C1.795,0,0,1.795,0,4v18c0,2.205,1.795,4,4,4h13  c1.063,0,2.541-1.529,4.252-3.275c0.24-0.244,0.484-0.494,0.732-0.74c0.246-0.248,0.496-0.492,0.74-0.732  C24.471,19.541,26,18.063,26,17z M24,17c0,0.995-1.002,1-2,1h-3c-0.551,0-1,0.449-1,1v3.047c0,0.887,0.01,1.773-0.711,1.957L4,24  c-1.104,0-2-0.896-2-2V4c0-1.104,0.896-2,2-2h18c1.104,0,2,0.896,2,2V17z"/>
<path fill="none" stroke="#000000" stroke-width="2" stroke-linecap="round" stroke-linejoin="round" stroke-miterlimit="10" d="  M7,9c2.833,0,9,0,12,0"/>
<path fill="none" stroke="#000000" stroke-width="2" stroke-linecap="round" stroke-linejoin="round" stroke-miterlimit="10" d="  M7,14c1,0,9,0,10,0"/>
</svg>
