<?xml version="1.0" encoding="utf-8"?>
<!-- Generator: Adobe Illustrator 18.1.1, SVG Export Plug-In . SVG Version: 6.00 Build 0)  -->
<svg version="1.1" id="Layer_1" xmlns="http://www.w3.org/2000/svg" xmlns:xlink="http://www.w3.org/1999/xlink" x="0px" y="0px"
	 width="38px" height="40.7px" viewBox="-1901.2 716.9 38 40.7" enable-background="new -1901.2 716.9 38 40.7"
	 xml:space="preserve">
<g>
	<path fill="#222222" d="M-1877.1,745.1c-0.1-1.6-0.1-2.7-0.1-4.2c0.7-0.4,2-2.8,2.3-4.9c0.6,0,1.5-0.6,1.7-2.8
		c0.1-1.2-0.4-1.9-0.8-2.1c0.9-2.8,2.9-11.5-3.6-12.4c-0.7-1.2-2.4-1.8-4.6-1.8c-8.9,0.2-9.9,6.7-8,14.2c-0.3,0.2-0.9,0.9-0.8,2.1
		c0.3,2.2,1.2,2.8,1.7,2.8c0.2,2.1,1.6,4.5,2.3,4.9c0,1.5,0.1,2.6-0.1,4.2c-1.8,4.7-13.6,3.4-14.1,12.5h38
		C-1863.5,748.5-1875.3,749.8-1877.1,745.1z M-1879.4,748.6h-5.5v-2.3h5.5V748.6z"/>
</g>
</svg>
