<?xml version="1.0" encoding="UTF-8" standalone="no"?>
<svg width="50px" height="50px" viewBox="0 0 50 50" version="1.1" xmlns="http://www.w3.org/2000/svg" xmlns:xlink="http://www.w3.org/1999/xlink" xmlns:sketch="http://www.bohemiancoding.com/sketch/ns">
    <!-- Generator: Sketch 3.5.1 (25234) - http://www.bohemiancoding.com/sketch -->
    <title>Mask</title>
    <desc>Created with Sketch.</desc>
    <defs></defs>
    <g id="Elements" stroke="none" stroke-width="1" fill="none" fill-rule="evenodd" sketch:type="MSPage">
        <g id="128" sketch:type="MSArtboardGroup" transform="translate(-39.000000, -39.000000)" fill="#FFFFFF">
            <g id="Mask-+-Mask" sketch:type="MSLayerGroup" transform="translate(32.000000, 32.000000)">
                <path d="M14.6086957,28.7391304 L10.2545675,28.7391304 C8.4601217,28.7391304 7,30.1990715 7,32 C7,33.797264 8.45711949,35.2608696 10.2545675,35.2608696 L14.6086957,35.2608696 L14.6086957,39.6149977 C14.6086957,41.4094435 16.0686367,42.8695652 17.8695652,42.8695652 C19.6668292,42.8695652 21.1304348,41.4124457 21.1304348,39.6149977 L21.1304348,35.2608696 L25.484563,35.2608696 C27.2790087,35.2608696 28.7391304,33.8009285 28.7391304,32 C28.7391304,30.202736 27.2820109,28.7391304 25.484563,28.7391304 L21.1304348,28.7391304 L21.1304348,24.3850023 C21.1304348,22.5905565 19.6704937,21.1304348 17.8695652,21.1304348 C16.0723012,21.1304348 14.6086957,22.5875543 14.6086957,24.3850023 L14.6086957,28.7391304 Z M42.8695652,28.7391304 L38.515437,28.7391304 C36.7209913,28.7391304 35.2608696,30.1990715 35.2608696,32 C35.2608696,33.797264 36.7179891,35.2608696 38.515437,35.2608696 L42.8695652,35.2608696 L42.8695652,39.6149977 C42.8695652,41.4094435 44.3295063,42.8695652 46.1304348,42.8695652 C47.9276988,42.8695652 49.3913043,41.4124457 49.3913043,39.6149977 L49.3913043,35.2608696 L53.7454325,35.2608696 C55.5398783,35.2608696 57,33.8009285 57,32 C57,30.202736 55.5428805,28.7391304 53.7454325,28.7391304 L49.3913043,28.7391304 L49.3913043,24.3850023 C49.3913043,22.5905565 47.9313633,21.1304348 46.1304348,21.1304348 C44.3331708,21.1304348 42.8695652,22.5875543 42.8695652,24.3850023 L42.8695652,28.7391304 Z M35.2608696,42.8695652 L35.2608696,38.515437 C35.2608696,36.7209913 33.8009285,35.2608696 32,35.2608696 C30.202736,35.2608696 28.7391304,36.7179891 28.7391304,38.515437 L28.7391304,42.8695652 L24.3850023,42.8695652 C22.5905565,42.8695652 21.1304348,44.3295063 21.1304348,46.1304348 C21.1304348,47.9276988 22.5875543,49.3913043 24.3850023,49.3913043 L28.7391304,49.3913043 L28.7391304,53.7454325 C28.7391304,55.5398783 30.1990715,57 32,57 C33.797264,57 35.2608696,55.5428805 35.2608696,53.7454325 L35.2608696,49.3913043 L39.6149977,49.3913043 C41.4094435,49.3913043 42.8695652,47.9313633 42.8695652,46.1304348 C42.8695652,44.3331708 41.4124457,42.8695652 39.6149977,42.8695652 L35.2608696,42.8695652 Z M28.7391304,14.6086957 L24.3850023,14.6086957 C22.5905565,14.6086957 21.1304348,16.0686367 21.1304348,17.8695652 C21.1304348,19.6668292 22.5875543,21.1304348 24.3850023,21.1304348 L28.7391304,21.1304348 L28.7391304,25.484563 C28.7391304,27.2790087 30.1990715,28.7391304 32,28.7391304 C33.797264,28.7391304 35.2608696,27.2820109 35.2608696,25.484563 L35.2608696,21.1304348 L39.6149977,21.1304348 C41.4094435,21.1304348 42.8695652,19.6704937 42.8695652,17.8695652 C42.8695652,16.0723012 41.4124457,14.6086957 39.6149977,14.6086957 L35.2608696,14.6086957 L35.2608696,10.2545675 C35.2608696,8.4601217 33.8009285,7 32,7 C30.202736,7 28.7391304,8.45711949 28.7391304,10.2545675 L28.7391304,14.6086957 Z" id="Mask" sketch:type="MSShapeGroup"></path>
            </g>
        </g>
    </g>
</svg>