<?xml version="1.0" encoding="utf-8"?>
<!-- Generator: Adobe Illustrator 18.1.1, SVG Export Plug-In . SVG Version: 6.00 Build 0)  -->
<svg version="1.1" id="Слой_1" xmlns="http://www.w3.org/2000/svg" xmlns:xlink="http://www.w3.org/1999/xlink" x="0px" y="0px"
	 width="50px" height="50px" viewBox="-474 176 50 50" enable-background="new -474 176 50 50" xml:space="preserve">
<path fill="#FFFFFF" d="M-448.7,176c-13.7,0-24.8,9.9-24.8,22.1c0,5.9,2.5,11.4,7.2,15.5c-0.3,5.1-4.4,8.1-6.4,9.5
	c-0.4,0.3-0.7,0.5-0.9,0.7c-0.3,0.2-0.4,0.6-0.3,1c0.1,0.4,0.4,0.6,0.7,0.7c1.1,0.3,2.2,0.4,3.5,0.4c5.7,0,12.4-3.1,16.3-6.2
	c1.7,0.3,3.2,0.4,4.7,0.4c13.7,0,24.8-9.9,24.8-22.1C-423.9,185.9-435,176-448.7,176z M-458.4,207c0.3-4.4,6.2-3.8,7.1-6.1
	c0-0.8,0-1.4,0-2.1c-0.4-0.2-1.1-1.4-1.2-2.4c-0.3,0-0.8-0.3-0.9-1.4c-0.1-0.6,0.2-0.9,0.4-1c-1-3.7-0.4-6.9,4-7
	c1.1,0,1.9,0.3,2.3,0.9c3.2,0.4,2.3,4.7,1.8,6.1c0.2,0.1,0.5,0.4,0.4,1c-0.2,1.1-0.6,1.4-0.9,1.4c-0.1,1-0.7,2.2-1.1,2.4
	c0,0.8-0.1,1.3,0,2.1c0.8,2.3,6.7,1.6,7.1,6.1H-458.4z"/>
</svg>
