<?xml version="1.0" encoding="utf-8"?>
<!-- Generator: Adobe Illustrator 15.0.0, SVG Export Plug-In . SVG Version: 6.00 Build 0)  -->
<!DOCTYPE svg PUBLIC "-//W3C//DTD SVG 1.1//EN" "http://www.w3.org/Graphics/SVG/1.1/DTD/svg11.dtd">
<svg xmlns="http://www.w3.org/2000/svg" xmlns:xlink="http://www.w3.org/1999/xlink" version="1.1" id="Слой_1" x="0px" y="0px" width="50px" height="50px" viewBox="0 0 50 50" enable-background="new 0 0 50 50" xml:space="preserve" fill="#000000">
<path d="M25.3,0C11.625,0,0.5,9.914,0.5,22.1c0,5.857,2.547,11.356,7.184,15.537c-0.301,5.09-4.371,8.075-6.356,9.532  c-0.369,0.271-0.671,0.494-0.878,0.671c-0.282,0.241-0.407,0.619-0.325,0.98s0.357,0.647,0.715,0.744  c1.061,0.287,2.227,0.432,3.465,0.432c5.716,0,12.405-3.084,16.277-6.229c1.661,0.287,3.247,0.434,4.719,0.434  c13.675,0,24.8-9.914,24.8-22.1S38.975,0,25.3,0z M15.6,31c0.3-4.4,6.2-3.8,7.1-6.1c0-0.8,0-1.4,0-2.1c-0.4-0.2-1.1-1.4-1.2-2.4  c-0.3,0-0.8-0.3-0.9-1.4c-0.1-0.6,0.2-0.9,0.4-1c-1-3.7-0.4-6.9,4-7c1.1,0,1.9,0.3,2.3,0.9c3.2,0.4,2.3,4.7,1.8,6.1  c0.2,0.1,0.5,0.4,0.4,1c-0.2,1.1-0.6,1.4-0.9,1.4c-0.1,1-0.699,2.2-1.1,2.4c0,0.8-0.1,1.3,0,2.1c0.8,2.3,6.7,1.6,7.1,6.1H15.6z" fill="#000000"/>
</svg>
