<?xml version="1.0" encoding="UTF-8" standalone="no"?>
<svg width="382px" height="145px" viewBox="0 0 382 145" version="1.1" xmlns="http://www.w3.org/2000/svg" xmlns:xlink="http://www.w3.org/1999/xlink" xmlns:sketch="http://www.bohemiancoding.com/sketch/ns">
    <!-- Generator: Sketch 3.5.1 (25234) - http://www.bohemiancoding.com/sketch -->
    <title>logo</title>
    <desc>Created with Sketch.</desc>
    <defs></defs>
    <g id="Elements" stroke="none" stroke-width="1" fill="none" fill-rule="evenodd" sketch:type="MSPage">
        <g id="logo" sketch:type="MSArtboardGroup" fill="#000000">
            <g id="Page-1" sketch:type="MSLayerGroup">
                <path d="M2.68245182,61.3067222 C4.199331,57.5156111 6.45463231,54.0311667 9.44390742,50.8533889 C12.4331825,47.6778333 16.0852582,45.0467222 20.4045828,42.9600556 C24.7216833,40.8756111 29.7282742,39.8311667 35.4221316,39.8311667 C39.0274999,39.8311667 42.3014678,40.2111667 45.2440355,40.9689444 C48.184379,41.7289444 50.7243732,42.7956111 52.8595697,44.1689444 C54.9947662,45.5445 56.6539918,47.2045 57.8416949,49.1467222 C59.0271738,51.0911667 59.6210253,53.2489444 59.6210253,55.6178333 C59.6210253,58.7467222 58.8136541,60.9511667 57.201136,62.2311667 C55.5863936,63.5111667 53.3088507,64.1511667 50.3685071,64.1511667 C48.184379,64.1511667 46.1692873,63.7489444 44.3187837,62.9422778 C42.4682801,62.1378333 41.5430282,60.4533889 41.5430282,57.8933889 C41.5430282,57.5156111 41.6609089,56.8511667 41.8988943,55.9022778 C42.1346556,54.9556111 42.372641,53.9600556 42.6106265,52.9156111 C42.8463878,51.8733889 43.0843732,50.8778333 43.3223587,49.9289444 C43.5581199,48.9822778 43.6782247,48.3178333 43.6782247,47.9378333 C43.6782247,46.0422778 42.8463878,44.5489444 41.1871622,43.4578333 C39.5257124,42.3689444 37.4616891,41.8222778 34.9950923,41.8222778 C31.5787779,41.8222778 28.8741956,42.6289444 26.8813456,44.2400556 C24.8884955,45.8533889 23.3449263,48.0089444 22.2550865,50.7111667 C21.1630224,53.4133889 20.4512902,56.5422778 20.11989,60.0978333 C19.7862655,63.6533889 19.6216774,67.4222778 19.6216774,71.4045 C19.6216774,75.1022778 19.7640239,78.8000556 20.0487167,82.4978333 C20.3334096,86.1956111 21.0918492,89.5622778 22.3262597,92.5956111 C23.558446,95.6311667 25.3622422,98.0956111 27.7354242,99.9911667 C30.106382,101.888944 33.3336425,102.835611 37.4149817,102.835611 C41.3050428,102.835611 44.5790108,102.148944 47.2368856,100.773389 C49.8925362,99.4000556 52.0277328,97.7867222 53.6424751,95.9378333 C55.2549933,94.0889444 56.464938,92.2400556 57.2723092,90.3911667 C58.0774562,88.5422778 58.5756687,87.1911667 58.7669467,86.3378333 L60.7597968,87.0489444 C60.2838259,88.7556111 59.5498521,90.6289444 58.5534271,92.6667222 C57.557002,94.7067222 56.1090719,96.6022778 54.2118608,98.3556111 C52.3124256,100.111167 49.8702946,101.6045 46.8810195,102.835611 C43.8917444,104.066722 40.1195639,104.6845 35.564478,104.6845 C34.3300675,104.6845 32.5974445,104.5645 30.3688332,104.328944 C28.1379977,104.091167 25.7181083,103.568944 23.1091651,102.7645 C20.4979977,101.960056 17.8645886,100.8445 15.208938,99.4222778 C12.5510632,98.0000556 10.106708,96.0800556 7.87809665,93.6622778 C5.64726114,91.2445 3.84346492,88.2822778 2.46893217,84.7733889 C1.09217525,81.2667222 0.404908879,77.0933889 0.404908879,72.2578333 C0.404908879,68.7511667 1.16334847,65.1000556 2.68245182,61.3067222" id="Fill-1" sketch:type="MSShapeGroup"></path>
                <path d="M87.8891921,0.293222222 L87.8891921,100.844333 L97.4264032,100.844333 L97.4264032,102.835444 L60.9857162,102.835444 L60.9857162,100.844333 L70.5229272,100.844333 L70.5229272,2.28433333 L60.9857162,2.28433333 L60.9857162,0.293222222 L87.8891921,0.293222222 Z" id="Fill-3" sketch:type="MSShapeGroup"></path>
                <path d="M139.174722,55.6176667 C139.174722,54.5754444 139.12579,53.2954444 139.032375,51.7776667 C138.936736,50.2621111 138.605336,48.7443333 138.03595,47.2265556 C137.466564,45.711 136.541313,44.431 135.260195,43.3865556 C133.979077,42.3443333 132.199746,41.8221111 129.922203,41.8221111 C126.694943,41.8221111 124.20388,42.5821111 122.449016,44.0976667 C120.691927,45.6154444 119.388567,47.5354444 118.534489,49.8576667 C117.68041,52.1821111 117.133266,54.6932222 116.897505,57.3954444 C116.659519,60.0976667 116.492707,62.6821111 116.399292,65.1465556 L139.174722,65.1465556 L139.174722,55.6176667 Z M116.399292,73.5376667 C116.399292,76.951 116.541639,80.3887778 116.826332,83.8487778 C117.111024,87.311 117.869464,90.4398889 119.103875,93.2354444 C120.336061,96.0332222 122.139857,98.3332222 124.513039,100.133222 C126.883997,101.935444 130.206896,102.835444 134.477289,102.835444 C138.271711,102.835444 141.474506,102.124333 144.085674,100.702111 C146.694617,99.2798889 148.829813,97.6443333 150.491263,95.7954444 C152.150489,93.9465556 153.384899,92.1221111 154.19227,90.3198889 C154.997417,88.5198889 155.448923,87.191 155.544562,86.3376667 L157.537412,87.0487778 C157.061441,88.851 156.256294,90.771 155.117522,92.8087778 C153.978751,94.8487778 152.41294,96.7443333 150.42009,98.4976667 C148.42724,100.253222 145.958419,101.722111 143.018075,102.906556 C140.075508,104.091 136.516847,104.684333 132.342093,104.684333 C127.406675,104.684333 122.804882,103.948778 118.534489,102.479889 C114.264096,101.011 110.538623,98.8776667 107.360294,96.0798889 C104.179741,93.2843333 101.688678,89.871 99.887106,85.8398889 C98.0833098,81.811 97.1825237,77.2354444 97.1825237,72.1154444 C97.1825237,68.0398889 98.0366023,64.0576667 99.7447595,60.1687778 C101.452917,56.2821111 103.801633,52.8443333 106.790908,49.8576667 C109.780183,46.871 113.289912,44.4532222 117.324544,42.6043333 C121.356952,40.7554444 125.698518,39.831 130.349243,39.831 C133.669918,39.831 136.990594,40.3532222 140.313493,41.3954444 C143.634169,42.4398889 146.623444,44.051 149.281318,46.231 C151.936969,48.4132222 154.121097,51.2332222 155.829254,54.6932222 C157.537412,58.1554444 158.39149,62.3021111 158.39149,67.1376667 L116.399292,67.1376667 L116.399292,73.5376667 Z" id="Fill-5" sketch:type="MSShapeGroup"></path>
                <path d="M186.562016,41.8221111 L186.562016,53.7687778 L186.846709,53.7687778 C188.554866,50.1665556 190.854651,47.0621111 193.750511,44.4532222 C196.644147,41.8465556 200.463035,40.5421111 205.208843,40.5421111 C209.194543,40.5421111 212.420136,41.6087778 214.888401,43.7421111 C217.355553,45.8754444 218.589964,48.8398889 218.589964,52.631 C218.589964,55.4754444 217.899917,57.7043333 216.525941,59.3154444 C215.148628,60.9287778 212.942258,61.7332222 209.906275,61.7332222 C207.722703,61.7332222 205.729853,61.2843333 203.927725,60.3821111 C202.123929,59.4821111 201.223143,57.7998889 201.223143,55.3332222 C201.223143,55.0487778 201.26985,54.551 201.366045,53.8398889 C201.45946,53.1287778 201.579565,52.371 201.721911,51.5643333 C201.864258,50.7598889 201.981583,50.0243333 202.077222,49.3598889 C202.170636,48.6976667 202.219568,48.3176667 202.219568,48.2221111 C202.123929,47.4643333 201.981583,46.871 201.793085,46.4443333 C201.601807,46.0176667 201.294316,45.6398889 200.867833,45.3065556 C200.440794,44.9754444 199.800235,44.8087778 198.9456,44.8087778 C197.995882,44.8087778 196.81096,45.2598889 195.386939,46.1598889 C193.964031,47.0621111 192.633981,48.3643333 191.401239,50.071 C190.166829,51.7776667 189.09923,53.8398889 188.198444,56.2576667 C187.295434,58.6754444 186.846709,61.4021111 186.846709,64.4354444 L186.846709,100.844333 L198.091521,100.844333 L198.091521,102.835444 L160.227926,102.835444 L160.227926,100.844333 L169.480444,100.844333 L169.480444,43.8132222 L160.227926,43.8132222 L160.227926,41.8221111 L186.562016,41.8221111 Z" id="Fill-7" sketch:type="MSShapeGroup"></path>
                <path d="M213.704812,87.0488889 C215.697662,85.0577778 218.06862,84.0622222 220.822134,84.0622222 C223.573424,84.0622222 225.946606,85.0577778 227.939456,87.0488889 C229.932306,89.04 230.928731,91.4111111 230.928731,94.16 C230.928731,96.9111111 229.932306,99.2577778 227.939456,101.2 C225.946606,103.142222 223.573424,104.115556 220.822134,104.115556 C218.06862,104.115556 215.697662,103.142222 213.704812,101.2 C211.711962,99.2577778 210.715537,96.9111111 210.715537,94.16 C210.715537,91.4111111 211.711962,89.04 213.704812,87.0488889" id="Fill-9" sketch:type="MSShapeGroup"></path>
                <path d="M275.625177,78.4445556 C276.953559,78.0178889 278.09233,77.1645556 279.042048,75.8845556 C279.989541,74.6045556 280.725739,72.7556667 281.247861,70.3378889 C281.768872,67.9201111 282.031323,64.769 282.031323,60.8801111 C282.031323,58.1312222 281.935684,55.5956667 281.74663,53.2712222 C281.554796,50.949 281.081605,48.9334444 280.32261,47.2267778 C279.561946,45.5201111 278.472106,44.1934444 277.049198,43.2445556 C275.625177,42.2978889 273.632327,41.8223333 271.070647,41.8223333 C268.696909,41.8223333 266.750767,42.3201111 265.234444,43.3156667 C263.714784,44.3112222 262.551547,45.6156667 261.7464,47.2267778 C260.939585,48.8401111 260.394109,50.689 260.109972,52.7734444 C259.824723,54.8601111 259.682377,56.9934444 259.682377,59.1734444 C259.682377,63.6312222 259.967626,67.1867778 260.536455,69.8401111 C261.106397,72.4956667 261.889302,74.5112222 262.885728,75.8845556 C263.882153,77.2601111 265.092097,78.1378889 266.515006,78.5156667 C267.939026,78.8956667 269.455349,79.0845556 271.070647,79.0845556 C272.778805,79.0845556 274.295128,78.8712222 275.625177,78.4445556 M255.270193,130.568444 C255.743384,132.559556 256.64417,134.431222 257.974776,136.187333 C259.302601,137.940667 261.106397,139.386778 263.383384,140.524 C265.660927,141.662333 268.60127,142.230667 272.208863,142.230667 C274.960709,142.230667 277.569096,141.755667 280.038473,140.808444 C282.504514,139.860111 284.664732,138.532889 286.514679,136.826222 C288.365183,135.120667 289.860377,133.080667 290.998592,130.710667 C292.137364,128.340111 292.707305,125.733444 292.707305,122.889 C292.707305,120.044556 292.230778,117.744556 291.283285,115.991222 C290.333567,114.235667 289.148089,112.837889 287.72518,111.795667 C286.30116,110.751222 284.735905,110.040111 283.027748,109.662333 C281.319035,109.282333 279.75378,109.093444 278.32976,109.093444 L263.52573,109.093444 C260.678802,111.369 258.472432,113.644556 256.907177,115.920111 C255.341367,118.195667 254.557905,121.229 254.557905,125.022333 C254.557905,126.728444 254.793666,128.577333 255.270193,130.568444 M285.661157,93.8045556 C288.935125,94.5156667 291.804295,95.7245556 294.27256,97.4312222 C296.739713,99.1378889 298.732563,101.437889 300.25111,104.329 C301.768546,107.220111 302.529209,110.846778 302.529209,115.209 C302.529209,118.906778 301.768546,122.508444 300.25111,126.017889 C298.732563,129.524556 296.501728,132.652889 293.561384,135.404556 C290.618816,138.153444 287.084065,140.381778 282.956575,142.089 C278.828528,143.795667 274.10663,144.648444 268.793105,144.648444 C262.814554,144.648444 258.045949,143.984556 254.486732,142.657333 C250.928071,141.329 248.199579,139.741778 246.302368,137.892889 C244.402933,136.045111 243.170746,134.147333 242.600805,132.204556 C242.031419,130.260111 241.746726,128.624 241.746726,127.298444 C241.746726,124.737333 242.316668,122.461778 243.455439,120.471222 C244.593655,118.480111 246.088848,116.749 247.938796,115.280111 C249.7893,113.809 251.828857,112.553444 254.060249,111.511222 C256.28886,110.466778 258.494674,109.662333 260.678802,109.093444 L260.678802,108.809 C258.779367,108.809 256.621928,108.571222 254.202595,108.097889 C251.78215,107.622333 249.526848,106.817889 247.440583,105.680111 C245.35265,104.542333 243.59723,102.977889 242.174321,100.986778 C240.750301,98.9956667 240.038569,96.5312222 240.038569,93.5912222 C240.038569,93.1178889 240.157006,92.2645556 240.394991,91.0312222 C240.630196,89.8001111 241.177896,88.3534444 242.031419,86.6934444 C242.885498,85.0356667 244.189413,83.3045556 245.945946,81.5023333 C247.70081,79.7023333 250.050083,77.9956667 252.99265,76.3823333 C252.138572,75.7201111 251.188854,74.9378889 250.145722,74.0356667 C249.100365,73.1356667 248.128406,72.0934444 247.22762,70.9067778 C246.32461,69.7223333 245.565614,68.3467778 244.949521,66.7823333 C244.33176,65.2178889 244.024825,63.3934444 244.024825,61.3067778 C244.024825,58.369 244.664828,55.5956667 245.945946,52.9867778 C247.22762,50.3801111 249.053658,48.1045556 251.426284,46.1601111 C253.797241,44.2178889 256.715343,42.6756667 260.181145,41.5378889 C263.643611,40.4001111 267.511431,39.8312222 271.78238,39.8312222 C276.052773,39.8312222 279.729314,40.4956667 282.814228,41.8223333 C285.896918,43.1512222 288.529771,44.6667778 290.714455,46.3734444 C293.084857,44.1934444 295.220054,42.5578889 297.119489,41.4667778 C299.0167,40.3778889 301.532784,39.8312222 304.664406,39.8312222 C307.415695,39.8312222 309.479719,40.5201111 310.85592,41.8934444 C312.230452,43.269 312.919943,45.0467778 312.919943,47.2267778 C312.919943,49.1245556 312.351113,50.6178889 311.211786,51.7067778 C310.073014,52.7978889 308.554467,53.3423333 306.657256,53.3423333 C305.32665,53.3423333 304.259052,53.1534444 303.454461,52.7734444 C302.64709,52.3956667 302.030441,51.9445556 301.603957,51.4223333 C301.176362,50.9023333 300.891669,50.3334444 300.749879,49.7156667 C300.607532,49.1001111 300.487428,48.6023333 300.394013,48.2223333 C300.202179,46.8956667 300.013125,45.9001111 299.824627,45.2356667 C299.633349,44.5734444 299.0167,44.2401111 297.973567,44.2401111 C297.404738,44.2401111 296.739713,44.4534444 295.980717,44.8801111 C295.220054,45.3067778 293.892784,46.1845556 291.995017,47.5112222 C293.133789,48.7445556 294.365975,50.3801111 295.69658,52.4178889 C297.02385,54.4578889 297.689431,57.4201111 297.689431,61.3067778 C297.689431,63.6778889 297.237369,66.0245556 296.336583,68.3467778 C295.433573,70.6712222 293.963401,72.7801111 291.923844,74.6756667 C289.882618,76.5734444 287.248653,78.1134444 284.023617,79.2978889 C280.796912,80.4845556 276.811212,81.0756667 272.067072,81.0756667 C268.26987,81.0756667 264.900819,80.6978889 261.960476,79.9378889 C259.017908,79.1801111 256.597463,78.4223333 254.700252,77.6623333 C251.946738,79.4645556 250.334776,81.0045556 249.860473,82.2845556 C249.385058,83.5645556 249.149297,84.7267778 249.149297,85.769 C249.149297,88.1401111 250.09679,89.8934444 251.996225,91.0312222 C253.89288,92.169 256.455116,92.7378889 259.682377,92.7378889 L275.340484,92.7378889 C278.946409,92.7378889 282.386633,93.0934444 285.661157,93.8045556" id="Fill-11" sketch:type="MSShapeGroup"></path>
                <path d="M372.632548,43.8132222 L360.817794,43.8132222 L360.817794,41.8221111 L381.458027,41.8221111 L381.458027,43.8132222 L374.910647,43.8132222 C369.594341,55.191 365.039812,65.3843333 361.24539,74.391 C357.448187,83.3998889 354.150309,91.411 351.352312,98.4265556 C348.551535,105.442111 346.084938,111.628778 343.949742,116.986556 C341.814545,122.342111 339.797229,127.059889 337.900018,131.137667 C336.000583,135.404889 333.865387,138.533222 331.494985,140.524333 C329.121247,142.515444 325.942918,143.511556 321.957218,143.511556 C317.687381,143.511556 314.199337,142.491556 311.494755,140.453778 C308.790729,138.413778 307.437882,135.593778 307.437882,131.991 C307.437882,129.239889 308.316426,127.248778 310.071291,126.017667 C311.828379,124.784333 313.936886,124.168778 316.405707,124.168778 C318.207279,124.168778 319.915436,124.667111 321.530734,125.662111 C323.142697,126.658222 323.950068,128.151 323.950068,130.142111 C323.950068,131.848778 323.641465,133.222667 323.024816,134.266556 C322.406499,135.309333 322.099564,136.542111 322.099564,137.964333 C322.099564,139.007111 322.384813,139.788222 322.953643,140.311556 C323.523585,140.831 324.185829,141.093778 324.946493,141.093778 C326.65465,141.093778 328.242702,140.475444 329.715098,139.244889 C331.18527,138.011 332.513652,136.471556 333.700799,134.622667 C334.886277,132.773222 335.92941,130.804333 336.83242,128.719889 C337.733206,126.633222 338.516668,124.737667 339.181692,123.031 L345.302589,107.813222 L318.541459,43.8132222 L310.996542,43.8132222 L310.996542,41.8221111 L347.153093,41.8221111 L347.153093,43.8132222 L337.188286,43.8132222 L354.554551,84.9154444 L372.632548,43.8132222 Z" id="Fill-13" sketch:type="MSShapeGroup"></path>
                <path d="M22.9065438,132.019833 C22.6251872,132.352611 22.3010154,132.655389 21.9345846,132.927611 C21.5675977,133.199833 21.1455627,133.4215 20.6684798,133.5915 C20.1908408,133.762056 19.6537054,133.847056 19.0570737,133.847056 C18.4259674,133.847056 17.8632541,133.744833 17.3689339,133.540389 C16.8740576,133.335944 16.4609194,133.059278 16.128407,132.709833 C15.7958946,132.360944 15.5401159,131.9565 15.3610707,131.4965 C15.1820256,131.035944 15.0925031,130.542056 15.0925031,130.014278 C15.0925031,129.144833 15.2971261,128.255389 15.7063721,127.343167 C16.115618,126.432056 16.661094,125.597056 17.343356,124.838722 C18.025062,124.080944 18.8051872,123.458722 19.6837316,122.973167 C20.5617199,122.488167 21.4697345,122.244833 22.4077753,122.244833 C22.6974725,122.244833 22.9832774,122.279278 23.2646341,122.347056 C23.5459907,122.415389 23.7973211,122.525944 24.0191814,122.679833 C24.2404856,122.832611 24.423979,123.0415 24.5691057,123.305389 C24.7136763,123.569833 24.7865176,123.897611 24.7865176,124.289278 C24.7865176,124.852056 24.6458393,125.218167 24.3644827,125.388167 C24.0831261,125.558722 23.7889805,125.643722 23.482046,125.643722 C23.1751115,125.643722 22.9615918,125.579833 22.8425991,125.452611 C22.7230504,125.324278 22.663554,125.175944 22.663554,125.004833 C22.663554,124.800389 22.6974725,124.634278 22.7658655,124.507056 C22.8337025,124.378722 22.9148844,124.263722 23.0088553,124.1615 C23.1022702,124.059278 23.1834521,123.944278 23.2518451,123.8165 C23.3196821,123.688722 23.3541566,123.522611 23.3541566,123.318167 C23.3541566,123.045944 23.2557374,122.858722 23.0600111,122.755944 C22.8637287,122.654278 22.595161,122.602611 22.254308,122.602611 C21.708276,122.602611 21.1967185,122.739278 20.7196355,123.0115 C20.2419965,123.284278 19.8027243,123.6465 19.402375,124.097611 C19.0014696,124.549278 18.6478277,125.064833 18.3408932,125.643722 C18.0339587,126.223167 17.7692833,126.819833 17.547979,127.432611 C17.3261188,128.0465 17.1598626,128.6515 17.0492105,129.247611 C16.9380023,129.843722 16.8829543,130.388722 16.8829543,130.882611 C16.8829543,131.615389 17.0914696,132.237611 17.5096122,132.748722 C17.9271988,133.259278 18.571094,133.514833 19.4407418,133.514833 C19.9178247,133.514833 20.3570969,133.425389 20.7580023,133.2465 C21.1583517,133.068167 21.5208902,132.842056 21.845062,132.569278 C22.1686777,132.297056 22.4500344,132.003167 22.6891319,131.687611 C22.9276734,131.372611 23.1239557,131.087056 23.277423,130.8315 L23.6355132,131.035944 C23.4308902,131.360389 23.1879004,131.687611 22.9065438,132.019833" id="Fill-15" sketch:type="MSShapeGroup"></path>
                <path d="M26.9910524,132.889 C27.408639,133.306778 27.9413261,133.515111 28.5896696,133.515111 C29.1179083,133.515111 29.6127846,133.361778 30.0731863,133.055111 C30.5335881,132.748444 30.9511747,132.344 31.3265022,131.841222 C31.7012737,131.339 32.033786,130.780667 32.3240393,130.167333 C32.6137365,129.554 32.8567263,128.940667 33.0530087,128.327333 C33.2487351,127.714 33.39831,127.135111 33.5006215,126.589556 C33.602933,126.044556 33.6540888,125.601778 33.6540888,125.260667 C33.6540888,124.442889 33.478936,123.795667 33.1297424,123.317889 C32.7799927,122.841778 32.1705721,122.602333 31.3009243,122.602333 C30.806048,122.602333 30.3373057,122.747889 29.8941412,123.037333 C29.4504207,123.327333 29.045623,123.706222 28.6791921,124.174 C28.3122052,124.642889 27.9841412,125.175667 27.694444,125.771222 C27.4041907,126.368444 27.1612009,126.976778 26.9654745,127.599 C26.7691921,128.221222 26.6201732,128.825667 26.5178617,129.413444 C26.4155502,130.001222 26.3643945,130.516222 26.3643945,130.959 C26.3643945,131.828444 26.5729098,132.471778 26.9910524,132.889 M25.3157016,126.652889 C25.7416288,125.759 26.2832125,124.987889 26.9398967,124.340667 C27.5960247,123.693444 28.3249942,123.181778 29.1268049,122.807333 C29.9280597,122.432889 30.6953959,122.245111 31.4288137,122.245111 C32.0938384,122.245111 32.6732329,122.381778 33.1681092,122.654 C33.6624294,122.926222 34.0716754,123.275667 34.3958472,123.701778 C34.7194629,124.127333 34.9585604,124.596222 35.1120277,125.107333 C35.2654949,125.618444 35.3422285,126.112889 35.3422285,126.589556 C35.3422285,127.577333 35.1287089,128.510667 34.7027817,129.387889 C34.2762984,130.265111 33.739163,131.036222 33.0913755,131.700667 C32.443032,132.365111 31.7229592,132.889 30.9300451,133.271778 C30.137131,133.655667 29.3825837,133.847333 28.6664032,133.847333 C28.0525342,133.847333 27.5026099,133.727889 27.0166303,133.489556 C26.5306507,133.250667 26.112508,132.936222 25.7633144,132.544 C25.4135648,132.152333 25.1449971,131.696778 24.9576114,131.176778 C24.7696696,130.656778 24.6762547,130.107889 24.6762547,129.528444 C24.6762547,128.506222 24.8892183,127.547889 25.3157016,126.652889" id="Fill-17" sketch:type="MSShapeGroup"></path>
                <path d="M36.9403453,122.935111 L37.0426568,122.576778 L41.083961,122.576778 L40.0352681,125.720667 L40.0864239,125.720667 C41.7400891,123.522889 43.3003394,122.424 44.767175,122.424 C45.4833555,122.424 46.049961,122.615667 46.4681036,122.999 C46.8856902,123.382333 47.0947616,123.855111 47.0947616,124.417333 C47.0947616,124.706778 47.0474981,124.992333 46.9540833,125.273444 C46.8601124,125.554556 46.7450119,125.890667 46.608782,126.282333 L44.9462201,131.010667 C44.8439086,131.300667 44.7499377,131.585667 44.6648635,131.866778 C44.5792332,132.147889 44.5369741,132.425111 44.5369741,132.697333 C44.5369741,132.901222 44.5792332,133.089 44.6648635,133.259556 C44.7499377,133.430111 44.9289828,133.515111 45.2019988,133.515111 C45.5089333,133.515111 45.79029,133.430111 46.0460687,133.259556 C46.3018475,133.089 46.5359406,132.884556 46.7494603,132.645667 C46.9624239,132.407889 47.1459173,132.156778 47.2993846,131.892333 C47.4528518,131.627889 47.5724006,131.402333 47.6574748,131.215111 L47.9388314,131.342889 C47.8532012,131.512889 47.7342084,131.739 47.5807412,132.020111 C47.4272739,132.300667 47.2270993,132.577889 46.9796611,132.850667 C46.732223,133.123444 46.4297368,133.357889 46.0716466,133.553444 C45.7135563,133.749 45.2870731,133.847333 44.7927528,133.847333 C44.2472769,133.847333 43.7868751,133.727889 43.4115476,133.489556 C43.0362201,133.250667 42.8488344,132.859 42.8488344,132.314 C42.8488344,132.092333 42.8783045,131.862333 42.9383569,131.624 C42.9984093,131.385667 43.0701386,131.130111 43.1557689,130.857333 L45.3043103,124.749556 C45.4405403,124.340667 45.5089333,124.000111 45.5089333,123.727333 C45.5089333,123.505667 45.436092,123.292889 45.2915214,123.087889 C45.1463948,122.884 44.8867237,122.781778 44.5113962,122.781778 C44.1360687,122.781778 43.7012448,122.922333 43.2069246,123.202889 C42.7120483,123.484556 42.2177281,123.867889 41.7234079,124.353444 C41.2285316,124.839 40.7642376,125.410111 40.3294137,126.065667 C39.8945898,126.721222 39.5403918,127.432889 39.2679319,128.199556 L37.3495913,133.540667 L35.5847179,133.540667 L39.2679319,122.935111 L36.9403453,122.935111 Z" id="Fill-19" sketch:type="MSShapeGroup"></path>
                <path d="M50.4042049,132.518444 C50.4042049,132.229 50.3697304,131.977333 50.3018934,131.764556 C50.2335004,131.551778 50.1567668,131.326222 50.0716926,131.087333 L49.5345572,129.605111 C49.38109,129.213444 49.2404116,128.812889 49.1125223,128.404 C48.9846329,127.994556 48.9206882,127.602889 48.9206882,127.228444 C48.9206882,126.444556 49.1975965,125.656222 49.7519691,124.864556 C50.3057857,124.072333 51.0264146,123.292889 51.9132996,122.526222 L52.4504349,122.066222 L52.6806358,122.321778 C52.5783243,122.440667 52.4120681,122.615667 52.1818672,122.845667 C51.9516664,123.075667 51.7214655,123.352889 51.4912646,123.676222 C51.2610638,124.000111 51.0564408,124.361778 50.8773956,124.762333 C50.6983505,125.162889 50.6088279,125.592889 50.6088279,126.052889 C50.6088279,126.700111 50.6894539,127.296778 50.8518178,127.841778 C51.0136256,128.386778 51.2143563,128.957889 51.4528978,129.554 C51.6063651,129.962333 51.7298061,130.332889 51.823777,130.665667 C51.9171918,130.997889 51.9727959,131.308444 51.9900332,131.598444 C52.3648047,131.291778 52.8168658,130.925667 53.3456606,130.499556 C53.8738993,130.074 54.3776722,129.613444 54.8547552,129.119556 C55.3318381,128.625667 55.7371918,128.092889 56.0697042,127.522333 C56.4022166,126.951222 56.5684728,126.376222 56.5684728,125.796778 C56.5684728,125.405111 56.5256576,125.086222 56.4405834,124.839 C56.3555092,124.591778 56.25709,124.375111 56.1464378,124.187333 C56.0352297,124.000111 55.9373665,123.821222 55.8522923,123.650667 C55.767218,123.480111 55.7244029,123.284556 55.7244029,123.062333 C55.7244029,122.773444 55.8395033,122.564556 56.0697042,122.436778 C56.2999051,122.309 56.5768134,122.245111 56.9009852,122.245111 C57.7367144,122.245111 58.154301,122.867333 58.154301,124.110667 C58.154301,124.672889 58.0519895,125.222333 57.8473665,125.759 C57.6427435,126.295667 57.3780681,126.802889 57.0544524,127.279556 C56.7302806,127.756778 56.3594015,128.212333 55.9418148,128.646778 C55.5242282,129.081222 55.1105339,129.476778 54.7012879,129.835111 L53.3968163,130.959 C52.9875703,131.317333 52.6461613,131.590111 52.3737013,131.777333 C52.1006853,131.965111 51.8365659,132.185667 51.5807872,132.441778 C51.3077712,132.714556 51.073678,132.969556 50.8773956,133.208444 C50.6816693,133.447333 50.5320943,133.659556 50.4297828,133.847333 L50.0972705,133.668444 C50.3018934,133.412333 50.4042049,133.029556 50.4042049,132.518444" id="Fill-21" sketch:type="MSShapeGroup"></path>
                <path d="M66.416177,122.960611 C66.211554,122.722278 65.870145,122.602278 65.393062,122.602278 C64.8642672,122.602278 64.3571581,122.756167 63.8711785,123.062833 C63.3851988,123.3695 62.9459266,123.748944 62.5539179,124.1995 C62.1613531,124.651722 61.8205001,125.137278 61.5308029,125.656722 C61.2405496,126.176722 61.0192454,126.657833 60.8657782,127.100611 C61.2577869,127.168944 61.6926108,127.202833 62.1702498,127.202833 C62.7841188,127.202833 63.3635132,127.1095 63.9095453,126.921722 C64.4550213,126.7345 64.9365525,126.487278 65.3546952,126.180611 C65.7722818,125.873944 66.1047942,125.516167 66.3522323,125.107278 C66.5991144,124.698389 66.7231115,124.272278 66.7231115,123.828944 C66.7231115,123.488944 66.6208,123.1995 66.416177,122.960611 M66.3138655,131.687833 C66.1092425,132.002833 65.8278859,132.318389 65.4697956,132.633389 C65.1117054,132.948944 64.6724332,133.2295 64.1525351,133.476722 C63.6320809,133.723389 63.005423,133.847278 62.2725613,133.847278 C61.5391435,133.847278 60.9208262,133.727833 60.4181654,133.4895 C59.9149485,133.250611 59.5057025,132.9445 59.1904274,132.5695 C58.8745962,132.195056 58.6443953,131.781722 58.4998247,131.330056 C58.3546981,130.878944 58.2824128,130.440056 58.2824128,130.013944 C58.2824128,129.162278 58.4909281,128.280611 58.9090707,127.368944 C59.3266574,126.457833 59.8721333,125.622833 60.5460547,124.8645 C61.2194201,124.106722 61.982308,123.480611 62.8352745,122.986167 C63.687685,122.492278 64.5573328,122.245056 65.4442178,122.245056 C65.7850707,122.245056 66.1259237,122.283389 66.4673328,122.360056 C66.8081857,122.436722 67.1151202,122.551722 67.3881362,122.705056 C67.6605962,122.858389 67.8824565,123.0545 68.053161,123.292833 C68.2233095,123.531167 68.3089397,123.821167 68.3089397,124.161722 C68.3089397,124.621722 68.1849426,125.026722 67.9380606,125.375611 C67.6906224,125.725056 67.370899,126.023389 66.9788902,126.270056 C66.5863255,126.516722 66.1559499,126.725611 65.6872076,126.896167 C65.2179092,127.066722 64.7619557,127.198944 64.3187913,127.292278 C63.8750707,127.386167 63.4702731,127.4545 63.1038422,127.496722 C62.7368553,127.5395 62.4682876,127.560611 62.2981392,127.560611 C62.0078859,127.560611 61.7265293,127.552278 61.4540693,127.535056 C61.1810533,127.518389 60.9425118,127.492833 60.7378888,127.458389 C60.549947,128.003944 60.3925875,128.5445 60.2646981,129.081167 C60.1368087,129.617833 60.072864,130.1845 60.072864,130.780611 C60.072864,131.700611 60.3114055,132.386722 60.7890445,132.837833 C61.2661275,133.2895 61.8716559,133.515056 62.6050737,133.515056 C63.1505496,133.515056 63.6320809,133.408944 64.0502236,133.195611 C64.4678102,132.982833 64.834241,132.731722 65.1500722,132.441722 C65.4653473,132.152278 65.7294667,131.858389 65.9429863,131.560056 C66.1559499,131.261722 66.3305467,131.027833 66.4673328,130.857278 L66.7742672,131.036167 C66.6719557,131.155611 66.5184885,131.372833 66.3138655,131.687833" id="Fill-23" sketch:type="MSShapeGroup"></path>
                <path d="M69.3418967,122.935111 L69.4442082,122.576778 L73.4855124,122.576778 L72.4368195,125.720667 L72.4879753,125.720667 C74.1416405,123.522889 75.7018908,122.424 77.1687263,122.424 C77.8849068,122.424 78.4515124,122.615667 78.869655,122.999 C79.2872416,123.382333 79.496313,123.855111 79.496313,124.417333 C79.496313,124.706778 79.4490495,124.992333 79.3556346,125.273444 C79.2616638,125.554556 79.1465633,125.890667 79.0103333,126.282333 L77.3477715,131.010667 C77.24546,131.300667 77.1514891,131.585667 77.0664148,131.866778 C76.9807846,132.147889 76.9385255,132.425111 76.9385255,132.697333 C76.9385255,132.901222 76.9807846,133.089 77.0664148,133.259556 C77.1514891,133.430111 77.3305342,133.515111 77.6035502,133.515111 C77.9104847,133.515111 78.1918413,133.430111 78.4476201,133.259556 C78.7033988,133.089 78.937492,132.884556 79.1510116,132.645667 C79.3639753,132.407889 79.5474687,132.156778 79.700936,131.892333 C79.8544032,131.627889 79.973952,131.402333 80.0590262,131.215111 L80.3403828,131.342889 C80.2547525,131.512889 80.1357598,131.739 79.9822926,132.020111 C79.8288253,132.300667 79.6286507,132.577889 79.3812125,132.850667 C79.1337744,133.123444 78.8312882,133.357889 78.473198,133.553444 C78.1151077,133.749 77.6886245,133.847333 77.1943042,133.847333 C76.6488282,133.847333 76.1884265,133.727889 75.813099,133.489556 C75.4377715,133.250667 75.2503857,132.859 75.2503857,132.314 C75.2503857,132.092333 75.2798559,131.862333 75.3399083,131.624 C75.3999607,131.385667 75.47169,131.130111 75.5573202,130.857333 L77.7058617,124.749556 C77.8420917,124.340667 77.9104847,124.000111 77.9104847,123.727333 C77.9104847,123.505667 77.8376434,123.292889 77.6930728,123.087889 C77.5479461,122.884 77.2882751,122.781778 76.9129476,122.781778 C76.5376201,122.781778 76.1027962,122.922333 75.608476,123.202889 C75.1135997,123.484556 74.6192795,123.867889 74.1249592,124.353444 C73.630083,124.839 73.1657889,125.410111 72.7309651,126.065667 C72.2961412,126.721222 71.9419432,127.432889 71.6694833,128.199556 L69.7511426,133.540667 L67.9862693,133.540667 L71.6694833,122.935111 L69.3418967,122.935111 Z" id="Fill-25" sketch:type="MSShapeGroup"></path>
                <path d="M86.1716378,115.690111 C86.4018387,115.460111 86.6870876,115.345111 87.0284967,115.345111 C87.3693496,115.345111 87.6551546,115.460111 87.8853555,115.690111 C88.1155563,115.920111 88.2306568,116.205667 88.2306568,116.546222 C88.2306568,116.886778 88.1155563,117.172333 87.8853555,117.402333 C87.6551546,117.632333 87.3693496,117.747333 87.0284967,117.747333 C86.6870876,117.747333 86.4018387,117.632333 86.1716378,117.402333 C85.941437,117.172333 85.8263365,116.886778 85.8263365,116.546222 C85.8263365,116.205667 85.941437,115.920111 86.1716378,115.690111 L86.1716378,115.690111 Z M81.9640774,122.935111 L82.0663889,122.576778 L86.133271,122.576778 L83.1150818,131.240667 C83.0294515,131.496222 82.9443773,131.756222 82.8593031,132.020111 C82.7736728,132.284556 82.7314137,132.535111 82.7314137,132.774 C82.7314137,132.978444 82.79091,133.153444 82.9104588,133.297889 C83.0294515,133.442889 83.2084967,133.515111 83.4475942,133.515111 C83.7200541,133.515111 83.9886218,133.421778 84.2532972,133.234 C84.5174166,133.046778 84.7604064,132.829556 84.9822667,132.582333 C85.2035709,132.335667 85.3915127,132.084 85.5449799,131.828444 C85.6984472,131.572889 85.8090993,131.368444 85.8774923,131.215111 L86.1844268,131.342889 C86.1160338,131.479556 86.0092739,131.687889 85.8647033,131.969 C85.7195767,132.250111 85.519402,132.530667 85.2636233,132.812333 C85.0078445,133.093444 84.6920134,133.336222 84.3172419,133.540667 C83.9419144,133.745111 83.4987499,133.847333 82.9871924,133.847333 C82.4244792,133.847333 81.9768664,133.732333 81.644354,133.502333 C81.3118416,133.271778 81.1455854,132.884556 81.1455854,132.339556 C81.1455854,132.050111 81.1967412,131.730667 81.2990527,131.381222 C81.4013642,131.031778 81.5036757,130.712889 81.6059872,130.422889 L84.2405083,122.935111 L81.9640774,122.935111 Z" id="Fill-27" sketch:type="MSShapeGroup"></path>
                <path d="M95.0729051,122.960611 C94.8682821,122.722278 94.5268731,122.602278 94.0497901,122.602278 C93.5209953,122.602278 93.0138862,122.756167 92.5279066,123.062833 C92.0419269,123.3695 91.6026547,123.748944 91.210646,124.1995 C90.8180812,124.651722 90.4772282,125.137278 90.187531,125.656722 C89.8972777,126.176722 89.6759735,126.657833 89.5225063,127.100611 C89.914515,127.168944 90.3493389,127.202833 90.8269779,127.202833 C91.4408469,127.202833 92.0202413,127.1095 92.5662734,126.921722 C93.1117493,126.7345 93.5932806,126.487278 94.0114233,126.180611 C94.4290099,125.873944 94.7615223,125.516167 95.0089604,125.107278 C95.2558425,124.698389 95.3798396,124.272278 95.3798396,123.828944 C95.3798396,123.488944 95.2775281,123.1995 95.0729051,122.960611 M94.9705936,131.687833 C94.7659706,132.002833 94.484614,132.318389 94.1265237,132.633389 C93.7684335,132.948944 93.3291613,133.2295 92.8092632,133.476722 C92.288809,133.723389 91.6621511,133.847278 90.9292894,133.847278 C90.1958716,133.847278 89.5775543,133.727833 89.0748934,133.4895 C88.5716766,133.250611 88.1624306,132.9445 87.8471555,132.5695 C87.5313243,132.195056 87.3011234,131.781722 87.1565528,131.330056 C87.0114262,130.878944 86.9391409,130.440056 86.9391409,130.013944 C86.9391409,129.162278 87.1476562,128.280611 87.5657988,127.368944 C87.9833854,126.457833 88.5288614,125.622833 89.2027828,124.8645 C89.8761482,124.106722 90.6390361,123.480611 91.4920026,122.986167 C92.3444131,122.492278 93.2140608,122.245056 94.1009459,122.245056 C94.4417988,122.245056 94.7826518,122.283389 95.1240608,122.360056 C95.4649138,122.436722 95.7718483,122.551722 96.0448643,122.705056 C96.3173243,122.858389 96.5391846,123.0545 96.7098891,123.292833 C96.8800376,123.531167 96.9656678,123.821167 96.9656678,124.161722 C96.9656678,124.621722 96.8416707,125.026722 96.5947886,125.375611 C96.3473505,125.725056 96.0276271,126.023389 95.6356183,126.270056 C95.2430536,126.516722 94.812678,126.725611 94.3439357,126.896167 C93.8746373,127.066722 93.4186838,127.198944 92.9755194,127.292278 C92.5317988,127.386167 92.1270012,127.4545 91.7605703,127.496722 C91.3935834,127.5395 91.1250157,127.560611 90.9548672,127.560611 C90.664614,127.560611 90.3832574,127.552278 90.1107974,127.535056 C89.8377814,127.518389 89.5992399,127.492833 89.3946169,127.458389 C89.2066751,128.003944 89.0493156,128.5445 88.9214262,129.081167 C88.7935368,129.617833 88.7295921,130.1845 88.7295921,130.780611 C88.7295921,131.700611 88.9681336,132.386722 89.4457726,132.837833 C89.9228556,133.2895 90.528384,133.515056 91.2618017,133.515056 C91.8072777,133.515056 92.288809,133.408944 92.7069517,133.195611 C93.1245383,132.982833 93.4909691,132.731722 93.8068003,132.441722 C94.1220754,132.152278 94.3861948,131.858389 94.5997144,131.560056 C94.812678,131.261722 94.9872748,131.027833 95.1240608,130.857278 L95.4309953,131.036167 C95.3286838,131.155611 95.1752166,131.372833 94.9705936,131.687833" id="Fill-29" sketch:type="MSShapeGroup"></path>
                <path d="M97.9986803,122.935111 L98.1009918,122.576778 L102.142296,122.576778 L101.093603,125.720667 L101.144759,125.720667 C102.798424,123.522889 104.358675,122.424 105.82551,122.424 C106.541691,122.424 107.108296,122.615667 107.526439,122.999 C107.944025,123.382333 108.153097,123.855111 108.153097,124.417333 C108.153097,124.706778 108.105833,124.992333 108.012418,125.273444 C107.918447,125.554556 107.803347,125.890667 107.667117,126.282333 L106.004555,131.010667 C105.902244,131.300667 105.808273,131.585667 105.723199,131.866778 C105.637568,132.147889 105.595309,132.425111 105.595309,132.697333 C105.595309,132.901222 105.637568,133.089 105.723199,133.259556 C105.808273,133.430111 105.987318,133.515111 106.260334,133.515111 C106.567268,133.515111 106.848625,133.430111 107.104404,133.259556 C107.360183,133.089 107.594276,132.884556 107.807795,132.645667 C108.020759,132.407889 108.204252,132.156778 108.35772,131.892333 C108.511187,131.627889 108.630736,131.402333 108.71581,131.215111 L108.997167,131.342889 C108.911536,131.512889 108.792544,131.739 108.639076,132.020111 C108.485609,132.300667 108.285434,132.577889 108.037996,132.850667 C107.790558,133.123444 107.488072,133.357889 107.129982,133.553444 C106.771891,133.749 106.345408,133.847333 105.851088,133.847333 C105.305612,133.847333 104.84521,133.727889 104.469883,133.489556 C104.094555,133.250667 103.907169,132.859 103.907169,132.314 C103.907169,132.092333 103.93664,131.862333 103.996692,131.624 C104.056744,131.385667 104.128474,131.130111 104.214104,130.857333 L106.362645,124.749556 C106.498875,124.340667 106.567268,124.000111 106.567268,123.727333 C106.567268,123.505667 106.494427,123.292889 106.349856,123.087889 C106.20473,122.884 105.945059,122.781778 105.569731,122.781778 C105.194404,122.781778 104.75958,122.922333 104.26526,123.202889 C103.770383,123.484556 103.276063,123.867889 102.781743,124.353444 C102.286867,124.839 101.822573,125.410111 101.387749,126.065667 C100.952925,126.721222 100.598727,127.432889 100.326267,128.199556 L98.4079263,133.540667 L96.643053,133.540667 L100.326267,122.935111 L97.9986803,122.935111 Z" id="Fill-31" sketch:type="MSShapeGroup"></path>
                <path d="M115.726261,120.072722 L114.805457,122.577167 L117.593445,122.577167 L117.491134,122.934944 L114.703146,122.934944 L111.787268,131.061611 C111.701638,131.317167 111.616563,131.581611 111.531489,131.853833 C111.445859,132.126611 111.4036,132.399389 111.4036,132.671611 C111.4036,132.927722 111.467544,133.131611 111.595434,133.284944 C111.723323,133.438833 111.931838,133.514944 112.222092,133.514944 C112.529026,133.514944 112.818723,133.421611 113.091739,133.233833 C113.364199,133.047167 113.611638,132.829389 113.833498,132.582722 C114.054802,132.3355 114.242744,132.083833 114.396211,131.828278 C114.549678,131.572722 114.66033,131.368278 114.728723,131.2155 L115.035658,131.342722 C114.967265,131.479389 114.856613,131.687722 114.703146,131.968833 C114.549678,132.249944 114.345055,132.531056 114.089277,132.812722 C113.833498,133.093278 113.513774,133.336056 113.130106,133.5405 C112.746438,133.744944 112.289929,133.847167 111.76169,133.847167 C111.113346,133.847167 110.627367,133.689944 110.303751,133.374389 C109.979579,133.059389 109.817771,132.6805 109.817771,132.237167 C109.817771,131.896611 109.881716,131.508833 110.009606,131.074389 C110.137495,130.639944 110.269277,130.244389 110.406063,129.886056 L112.912694,122.934944 L110.610686,122.934944 L110.712997,122.577167 L113.015006,122.577167 L113.935809,120.072722 L115.726261,120.072722 Z" id="Fill-33" sketch:type="MSShapeGroup"></path>
                <path d="M129.960125,132.019833 C129.678769,132.352611 129.354597,132.655389 128.988166,132.927611 C128.621179,133.199833 128.199144,133.4215 127.722061,133.5915 C127.244422,133.762056 126.707287,133.847056 126.110655,133.847056 C125.479549,133.847056 124.916836,133.744833 124.422516,133.540389 C123.927639,133.335944 123.514501,133.059278 123.181989,132.709833 C122.849476,132.360944 122.593698,131.9565 122.414652,131.4965 C122.235607,131.035944 122.146085,130.542056 122.146085,130.014278 C122.146085,129.144833 122.350708,128.255389 122.759954,127.343167 C123.1692,126.432056 123.714676,125.597056 124.396938,124.838722 C125.078644,124.080944 125.858769,123.458722 126.737313,122.973167 C127.615302,122.488167 128.523316,122.244833 129.461357,122.244833 C129.751054,122.244833 130.036859,122.279278 130.318216,122.347056 C130.599572,122.415389 130.850903,122.525944 131.072763,122.679833 C131.294067,122.832611 131.477561,123.0415 131.622687,123.305389 C131.767258,123.569833 131.840099,123.897611 131.840099,124.289278 C131.840099,124.852056 131.699421,125.218167 131.418064,125.388167 C131.136708,125.558722 130.842562,125.643722 130.535628,125.643722 C130.228693,125.643722 130.015174,125.579833 129.896181,125.452611 C129.776632,125.324278 129.717136,125.175944 129.717136,125.004833 C129.717136,124.800389 129.751054,124.634278 129.819447,124.507056 C129.887284,124.378722 129.968466,124.263722 130.062437,124.1615 C130.155852,124.059278 130.237034,123.944278 130.305427,123.8165 C130.373264,123.688722 130.407738,123.522611 130.407738,123.318167 C130.407738,123.045944 130.309319,122.858722 130.113593,122.755944 C129.91731,122.654278 129.648743,122.602611 129.30789,122.602611 C128.761858,122.602611 128.2503,122.739278 127.773217,123.0115 C127.295578,123.284278 126.856306,123.6465 126.455957,124.097611 C126.055051,124.549278 125.701409,125.064833 125.394475,125.643722 C125.08754,126.223167 124.822865,126.819833 124.601561,127.432611 C124.3797,128.0465 124.213444,128.6515 124.102792,129.247611 C123.991584,129.843722 123.936536,130.388722 123.936536,130.882611 C123.936536,131.615389 124.145051,132.237611 124.563194,132.748722 C124.98078,133.259278 125.624676,133.514833 126.494323,133.514833 C126.971406,133.514833 127.410679,133.425389 127.811584,133.2465 C128.211933,133.068167 128.574472,132.842056 128.898644,132.569278 C129.222259,132.297056 129.503616,132.003167 129.742714,131.687611 C129.981255,131.372611 130.177537,131.087056 130.331005,130.8315 L130.689095,131.035944 C130.484472,131.360389 130.241482,131.687611 129.960125,132.019833" id="Fill-35" sketch:type="MSShapeGroup"></path>
                <path d="M134.044634,132.889 C134.462221,133.306778 134.994908,133.515111 135.643251,133.515111 C136.17149,133.515111 136.666366,133.361778 137.126768,133.055111 C137.58717,132.748444 138.004756,132.344 138.380084,131.841222 C138.754855,131.339 139.087368,130.780667 139.377621,130.167333 C139.667318,129.554 139.910308,128.940667 140.10659,128.327333 C140.302317,127.714 140.451336,127.135111 140.554203,126.589556 C140.656515,126.044556 140.70767,125.601778 140.70767,125.260667 C140.70767,124.442889 140.532518,123.795667 140.183324,123.317889 C139.833574,122.841778 139.223598,122.602333 138.354506,122.602333 C137.85963,122.602333 137.390887,122.747889 136.947723,123.037333 C136.504002,123.327333 136.099205,123.706222 135.732774,124.174 C135.365787,124.642889 135.037723,125.175667 134.748026,125.771222 C134.457772,126.368444 134.214783,126.976778 134.019056,127.599 C133.822774,128.221222 133.673755,128.825667 133.571443,129.413444 C133.469132,130.001222 133.417976,130.516222 133.417976,130.959 C133.417976,131.828444 133.626491,132.471778 134.044634,132.889 M132.369283,126.652889 C132.79521,125.759 133.336794,124.987889 133.993478,124.340667 C134.649606,123.693444 135.378576,123.181778 136.180387,122.807333 C136.981641,122.432889 137.748978,122.245111 138.481839,122.245111 C139.14742,122.245111 139.726815,122.381778 140.221691,122.654 C140.716011,122.926222 141.125257,123.275667 141.449429,123.701778 C141.773045,124.127333 142.012142,124.596222 142.165053,125.107333 C142.319077,125.618444 142.39581,126.112889 142.39581,126.589556 C142.39581,127.577333 142.182291,128.510667 141.756363,129.387889 C141.32988,130.265111 140.792745,131.036222 140.144957,131.700667 C139.496614,132.365111 138.776541,132.889 137.983627,133.271778 C137.190713,133.655667 136.436165,133.847333 135.719985,133.847333 C135.106116,133.847333 134.556192,133.727889 134.070212,133.489556 C133.584232,133.250667 133.16609,132.936222 132.816896,132.544 C132.467146,132.152333 132.198579,131.696778 132.011193,131.176778 C131.823251,130.656778 131.729836,130.107889 131.729836,129.528444 C131.729836,128.506222 131.9428,127.547889 132.369283,126.652889" id="Fill-37" sketch:type="MSShapeGroup"></path>
                <path d="M143.993649,122.935111 L144.096516,122.576778 L148.137265,122.576778 L147.088572,125.720667 L147.139728,125.720667 C148.793949,123.522889 150.353643,122.424 151.820479,122.424 C152.536659,122.424 153.103821,122.615667 153.521407,122.999 C153.93955,123.382333 154.148065,123.855111 154.148065,124.417333 C154.148065,124.706778 154.101358,124.992333 154.007387,125.273444 C153.913416,125.554556 153.798316,125.890667 153.662642,126.282333 L151.999524,131.010667 C151.897212,131.300667 151.803241,131.585667 151.718723,131.866778 C151.632537,132.147889 151.590278,132.425111 151.590278,132.697333 C151.590278,132.901222 151.632537,133.089 151.718723,133.259556 C151.803241,133.430111 151.982286,133.515111 152.255302,133.515111 C152.562237,133.515111 152.843594,133.430111 153.099372,133.259556 C153.355151,133.089 153.5898,132.884556 153.80332,132.645667 C154.015728,132.407889 154.199221,132.156778 154.352688,131.892333 C154.506155,131.627889 154.625148,131.402333 154.710778,131.215111 L154.992135,131.342889 C154.906505,131.512889 154.787512,131.739 154.634045,132.020111 C154.480578,132.300667 154.279847,132.577889 154.033521,132.850667 C153.785527,133.123444 153.48304,133.357889 153.12495,133.553444 C152.76686,133.749 152.340933,133.847333 151.846056,133.847333 C151.30058,133.847333 150.840179,133.727889 150.465407,133.489556 C150.089524,133.250667 149.902138,132.859 149.902138,132.314 C149.902138,132.092333 149.932164,131.862333 149.991661,131.624 C150.051713,131.385667 150.123442,131.130111 150.209072,130.857333 L152.357614,124.749556 C152.493844,124.340667 152.562237,124.000111 152.562237,123.727333 C152.562237,123.505667 152.489396,123.292889 152.345381,123.087889 C152.199698,122.884 151.939471,122.781778 151.5647,122.781778 C151.189372,122.781778 150.754548,122.922333 150.260784,123.202889 C149.765908,123.484556 149.271032,123.867889 148.777268,124.353444 C148.281835,124.839 147.817541,125.410111 147.382717,126.065667 C146.947893,126.721222 146.594252,127.432889 146.321792,128.199556 L144.402895,133.540667 L142.638022,133.540667 L146.321792,122.935111 L143.993649,122.935111 Z" id="Fill-39" sketch:type="MSShapeGroup"></path>
                <path d="M159.171282,121.171889 C159.443742,120.184111 159.827966,119.263556 160.322286,118.411333 C160.816606,117.560222 161.379876,116.814111 162.010426,116.175778 C162.640976,115.536333 163.323794,115.034111 164.056656,114.668 C164.789518,114.301889 165.523491,114.118556 166.256353,114.118556 C166.699518,114.118556 167.075401,114.182444 167.382336,114.309667 C167.688714,114.438 167.944493,114.600222 168.149116,114.795222 C168.354295,114.991889 168.502758,115.204667 168.596729,115.434667 C168.690144,115.664667 168.737407,115.881889 168.737407,116.086333 C168.737407,116.375778 168.656781,116.665778 168.494973,116.955222 C168.332609,117.245222 168.030123,117.389111 167.586959,117.389111 C167.211075,117.389111 166.943063,117.317444 166.781256,117.172444 C166.618892,117.027444 166.53771,116.861333 166.53771,116.673556 C166.53771,116.504111 166.572184,116.354667 166.640577,116.226889 C166.708414,116.099111 166.781256,115.979667 166.857433,115.869111 C166.934167,115.758556 167.00256,115.651333 167.062056,115.549667 C167.122109,115.446889 167.152135,115.328 167.152135,115.191333 C167.152135,114.902444 167.053716,114.710222 166.857433,114.616333 C166.661707,114.523 166.435398,114.475778 166.17962,114.475778 C165.412839,114.475778 164.738918,114.715222 164.159523,115.191333 C163.579573,115.669111 163.084697,116.239667 162.676007,116.903556 C162.266205,117.568556 161.934248,118.245222 161.67847,118.935778 C161.422691,119.625778 161.234749,120.191889 161.1152,120.634667 L160.578065,122.576889 L163.724144,122.576889 L163.621832,122.935222 L160.476309,122.935222 L158.199323,131.598556 C157.909069,132.688556 157.542638,133.745222 157.099474,134.767444 C156.656309,135.789667 156.148644,136.692444 155.57759,137.476333 C155.006537,138.259667 154.384883,138.885778 153.710962,139.354667 C153.037596,139.822444 152.325308,140.057444 151.574653,140.057444 C151.353349,140.057444 151.119256,140.031333 150.871261,139.980222 C150.624379,139.929667 150.398627,139.840222 150.193448,139.712444 C149.988825,139.584667 149.818676,139.414111 149.682446,139.201333 C149.54566,138.988 149.477267,138.710778 149.477267,138.370778 C149.477267,138.046889 149.575686,137.765778 149.771969,137.526889 C149.967695,137.288556 150.270181,137.169667 150.679983,137.169667 C150.901288,137.169667 151.080333,137.211889 151.216563,137.296889 C151.353349,137.382444 151.421186,137.561333 151.421186,137.833556 C151.421186,138.021333 151.378927,138.213 151.293296,138.408556 C151.208778,138.604667 151.165963,138.821889 151.165963,139.060222 C151.165963,139.281889 151.238248,139.444111 151.382819,139.545778 C151.527946,139.648556 151.711439,139.699667 151.932743,139.699667 C152.64948,139.699667 153.335634,139.209667 153.992318,138.230222 C154.648446,137.249667 155.274548,135.670222 155.871736,133.489667 L158.685302,122.935222 L156.25596,122.935222 L156.357716,122.576889 L158.78817,122.576889 L159.171282,121.171889 Z" id="Fill-41" sketch:type="MSShapeGroup"></path>
                <path d="M169.726826,122.960611 C169.522203,122.722278 169.18135,122.602278 168.703711,122.602278 C168.174916,122.602278 167.667807,122.756167 167.181827,123.062833 C166.695848,123.3695 166.257132,123.748944 165.865123,124.1995 C165.472558,124.651722 165.131149,125.137278 164.841452,125.656722 C164.551199,126.176722 164.329894,126.657833 164.176983,127.100611 C164.568992,127.168944 165.00326,127.202833 165.480899,127.202833 C166.095324,127.202833 166.674718,127.1095 167.220194,126.921722 C167.766226,126.7345 168.247757,126.487278 168.665344,126.180611 C169.083487,125.873944 169.415443,125.516167 169.663437,125.107278 C169.909763,124.698389 170.034316,124.272278 170.034316,123.828944 C170.034316,123.488944 169.931449,123.1995 169.726826,122.960611 M169.624514,131.687833 C169.419891,132.002833 169.138535,132.318389 168.780445,132.633389 C168.422354,132.948944 167.983082,133.2295 167.46374,133.476722 C166.94273,133.723389 166.316072,133.847278 165.58321,133.847278 C164.849792,133.847278 164.231475,133.727833 163.728814,133.4895 C163.226153,133.250611 162.816351,132.9445 162.501076,132.5695 C162.185245,132.195056 161.955044,131.781722 161.81103,131.330056 C161.665347,130.878944 161.593062,130.440056 161.593062,130.013944 C161.593062,129.162278 161.801577,128.280611 162.21972,127.368944 C162.637306,126.457833 163.182782,125.622833 163.856704,124.8645 C164.530069,124.106722 165.292957,123.480611 166.146479,122.986167 C166.99889,122.492278 167.867982,122.245056 168.754867,122.245056 C169.09572,122.245056 169.437129,122.283389 169.777982,122.360056 C170.118835,122.436722 170.426325,122.551722 170.698785,122.705056 C170.971245,122.858389 171.193661,123.0545 171.36381,123.292833 C171.533958,123.531167 171.619589,123.821167 171.619589,124.161722 C171.619589,124.621722 171.496148,125.026722 171.248709,125.375611 C171.001271,125.725056 170.682104,126.023389 170.290095,126.270056 C169.89753,126.516722 169.466599,126.725611 168.997856,126.896167 C168.529114,127.066722 168.072605,127.198944 167.629996,127.292278 C167.186276,127.386167 166.780922,127.4545 166.414491,127.496722 C166.04806,127.5395 165.778937,127.560611 165.609344,127.560611 C165.318535,127.560611 165.037178,127.552278 164.764718,127.535056 C164.491702,127.518389 164.253161,127.492833 164.048538,127.458389 C163.860596,128.003944 163.703236,128.5445 163.575347,129.081167 C163.447458,129.617833 163.383513,130.1845 163.383513,130.780611 C163.383513,131.700611 163.622054,132.386722 164.099693,132.837833 C164.576776,133.2895 165.182305,133.515056 165.915723,133.515056 C166.461199,133.515056 166.94273,133.408944 167.360872,133.195611 C167.778459,132.982833 168.14489,132.731722 168.461277,132.441722 C168.775996,132.152278 169.040672,131.858389 169.253635,131.560056 C169.466599,131.261722 169.641752,131.027833 169.777982,130.857278 L170.085472,131.036167 C169.982605,131.155611 169.829693,131.372833 169.624514,131.687833" id="Fill-43" sketch:type="MSShapeGroup"></path>
                <path d="M173.709245,126.857611 C173.495726,126.525389 173.390078,126.129278 173.390078,125.669278 C173.390078,125.277611 173.491833,124.877611 173.697013,124.468167 C173.901636,124.059278 174.182992,123.688722 174.540526,123.3565 C174.899173,123.024833 175.328992,122.755944 175.832209,122.5515 C176.335426,122.347056 176.876454,122.244833 177.456404,122.244833 C178.172585,122.244833 178.748643,122.402611 179.183467,122.717611 C179.617734,123.033167 179.835702,123.437611 179.835702,123.9315 C179.835702,124.647056 179.485953,125.004833 178.78701,125.004833 C178.547356,125.004833 178.338841,124.937056 178.160352,124.800389 C177.981307,124.664278 177.891228,124.468167 177.891228,124.212611 C177.891228,123.974833 177.946832,123.799833 178.057484,123.688722 C178.168692,123.578722 178.22374,123.437611 178.22374,123.267056 C178.22374,122.824278 177.934043,122.602611 177.354649,122.602611 C176.944847,122.602611 176.591205,122.662611 176.292611,122.7815 C175.994017,122.900944 175.747135,123.062611 175.551408,123.267056 C175.355126,123.4715 175.209443,123.7015 175.116029,123.957056 C175.022058,124.212611 174.97535,124.468167 174.97535,124.723722 C174.97535,125.064833 175.06098,125.384278 175.231129,125.682611 C175.401833,125.980389 175.640931,126.334278 175.947309,126.742611 L177.456404,128.710389 C177.661027,128.965944 177.801705,129.234278 177.878439,129.515389 C177.955729,129.7965 177.993539,130.082611 177.993539,130.3715 C177.993539,130.950944 177.848413,131.457611 177.559272,131.892611 C177.268462,132.327056 176.90648,132.688722 176.472212,132.978722 C176.037388,133.268167 175.56809,133.485389 175.064873,133.629833 C174.561656,133.774278 174.089021,133.847056 173.645857,133.847056 C173.253292,133.847056 172.878521,133.804278 172.519874,133.719833 C172.16234,133.633722 171.842617,133.5115 171.56126,133.349278 C171.279903,133.187611 171.054151,132.982611 170.88289,132.735389 C170.712742,132.488722 170.627111,132.203167 170.627111,131.879278 C170.627111,131.487611 170.751665,131.194278 170.997991,130.997611 C171.245429,130.802611 171.556812,130.703722 171.932139,130.703722 C172.08505,130.703722 172.225729,130.759278 172.353618,130.870389 C172.481507,130.980944 172.545452,131.112611 172.545452,131.2665 C172.545452,131.470944 172.502637,131.662056 172.418119,131.8415 C172.331932,132.019833 172.289673,132.212056 172.289673,132.415944 C172.289673,132.824833 172.422011,133.110389 172.68613,133.272056 C172.950806,133.434278 173.296107,133.514833 173.722034,133.514833 C174.148518,133.514833 174.528293,133.447056 174.86025,133.310389 C175.192762,133.174278 175.474675,133.003722 175.704876,132.799278 C175.935077,132.594833 176.109117,132.364833 176.228666,132.109278 C176.348215,131.853722 176.408267,131.615389 176.408267,131.393722 C176.408267,131.053167 176.352663,130.7465 176.242011,130.474278 C176.130247,130.202056 175.947309,129.894833 175.691531,129.554278 L174.413193,127.867056 C174.157414,127.5265 173.922765,127.190389 173.709245,126.857611" id="Fill-45" sketch:type="MSShapeGroup"></path>
                <path d="M181.768055,126.857611 C181.554536,126.525389 181.448888,126.129278 181.448888,125.669278 C181.448888,125.277611 181.550643,124.877611 181.755822,124.468167 C181.960445,124.059278 182.241802,123.688722 182.599336,123.3565 C182.957983,123.024833 183.387802,122.755944 183.891019,122.5515 C184.394236,122.347056 184.935263,122.244833 185.515214,122.244833 C186.231394,122.244833 186.807453,122.402611 187.242277,122.717611 C187.676544,123.033167 187.894512,123.437611 187.894512,123.9315 C187.894512,124.647056 187.544763,125.004833 186.84582,125.004833 C186.606166,125.004833 186.397651,124.937056 186.219162,124.800389 C186.040116,124.664278 185.950038,124.468167 185.950038,124.212611 C185.950038,123.974833 186.005642,123.799833 186.116294,123.688722 C186.227502,123.578722 186.28255,123.437611 186.28255,123.267056 C186.28255,122.824278 185.992853,122.602611 185.413459,122.602611 C185.003656,122.602611 184.650015,122.662611 184.351421,122.7815 C184.052827,122.900944 183.805945,123.062611 183.610218,123.267056 C183.413936,123.4715 183.268253,123.7015 183.174838,123.957056 C183.080868,124.212611 183.03416,124.468167 183.03416,124.723722 C183.03416,125.064833 183.11979,125.384278 183.289939,125.682611 C183.460643,125.980389 183.699741,126.334278 184.006119,126.742611 L185.515214,128.710389 C185.719837,128.965944 185.860515,129.234278 185.937249,129.515389 C186.014539,129.7965 186.052349,130.082611 186.052349,130.3715 C186.052349,130.950944 185.907223,131.457611 185.618082,131.892611 C185.327272,132.327056 184.96529,132.688722 184.531022,132.978722 C184.096198,133.268167 183.6269,133.485389 183.123683,133.629833 C182.620466,133.774278 182.147831,133.847056 181.704667,133.847056 C181.312102,133.847056 180.93733,133.804278 180.578684,133.719833 C180.22115,133.633722 179.901426,133.5115 179.62007,133.349278 C179.338713,133.187611 179.112961,132.982611 178.9417,132.735389 C178.771552,132.488722 178.685921,132.203167 178.685921,131.879278 C178.685921,131.487611 178.810475,131.194278 179.056801,130.997611 C179.304239,130.802611 179.615622,130.703722 179.990949,130.703722 C180.14386,130.703722 180.284539,130.759278 180.412428,130.870389 C180.540317,130.980944 180.604262,131.112611 180.604262,131.2665 C180.604262,131.470944 180.561447,131.662056 180.476929,131.8415 C180.390742,132.019833 180.348483,132.212056 180.348483,132.415944 C180.348483,132.824833 180.480821,133.110389 180.74494,133.272056 C181.009616,133.434278 181.354917,133.514833 181.780844,133.514833 C182.207328,133.514833 182.587103,133.447056 182.91906,133.310389 C183.251572,133.174278 183.533485,133.003722 183.763686,132.799278 C183.993886,132.594833 184.167927,132.364833 184.287476,132.109278 C184.407025,131.853722 184.467077,131.615389 184.467077,131.393722 C184.467077,131.053167 184.411473,130.7465 184.300821,130.474278 C184.189057,130.202056 184.006119,129.894833 183.750341,129.554278 L182.472003,127.867056 C182.216224,127.5265 181.981575,127.190389 181.768055,126.857611" id="Fill-47" sketch:type="MSShapeGroup"></path>
                <path d="M192.988513,115.690111 C193.218714,115.460111 193.504519,115.345111 193.845372,115.345111 C194.186225,115.345111 194.47203,115.460111 194.702231,115.690111 C194.932431,115.920111 195.047532,116.205667 195.047532,116.546222 C195.047532,116.886778 194.932431,117.172333 194.702231,117.402333 C194.47203,117.632333 194.186225,117.747333 193.845372,117.747333 C193.504519,117.747333 193.218714,117.632333 192.988513,117.402333 C192.758312,117.172333 192.643212,116.886778 192.643212,116.546222 C192.643212,116.205667 192.758312,115.920111 192.988513,115.690111 L192.988513,115.690111 Z M188.781509,122.935111 L188.883264,122.576778 L192.950702,122.576778 L189.932513,131.240667 C189.846883,131.496222 189.761808,131.756222 189.676178,132.020111 C189.59166,132.284556 189.548845,132.535111 189.548845,132.774 C189.548845,132.978444 189.608897,133.153444 189.728446,133.297889 C189.846883,133.442889 190.025928,133.515111 190.265025,133.515111 C190.537485,133.515111 190.805497,133.421778 191.070728,133.234 C191.334292,133.046778 191.577838,132.829556 191.799142,132.582333 C192.021002,132.335667 192.208944,132.084 192.361855,131.828444 C192.515878,131.572889 192.627086,131.368444 192.695479,131.215111 L193.001302,131.342889 C192.932909,131.479556 192.826705,131.687889 192.682134,131.969 C192.537008,132.250111 192.336833,132.530667 192.080498,132.812333 C191.825276,133.093444 191.509445,133.336222 191.134673,133.540667 C190.75879,133.745111 190.315625,133.847333 189.804068,133.847333 C189.24191,133.847333 188.794298,133.732333 188.461785,133.502333 C188.129273,133.271778 187.962461,132.884556 187.962461,132.339556 C187.962461,132.050111 188.014172,131.730667 188.116484,131.381222 C188.218239,131.031778 188.321107,130.712889 188.423418,130.422889 L191.057383,122.935111 L188.781509,122.935111 Z" id="Fill-49" sketch:type="MSShapeGroup"></path>
                <path d="M195.992412,132.889 C196.409443,133.306778 196.942686,133.515111 197.591029,133.515111 C198.118712,133.515111 198.614144,133.361778 199.074546,133.055111 C199.534948,132.748444 199.951978,132.344 200.327862,131.841222 C200.702633,131.339 201.03459,130.780667 201.324843,130.167333 C201.61454,129.554 201.858086,128.940667 202.054368,128.327333 C202.250095,127.714 202.398557,127.135111 202.501981,126.589556 C202.604293,126.044556 202.654892,125.601778 202.654892,125.260667 C202.654892,124.442889 202.480295,123.795667 202.130546,123.317889 C201.780796,122.841778 201.171376,122.602333 200.301728,122.602333 C199.807408,122.602333 199.338665,122.747889 198.895501,123.037333 C198.451224,123.327333 198.046983,123.706222 197.679996,124.174 C197.313009,124.642889 196.984945,125.175667 196.695247,125.771222 C196.404994,126.368444 196.162004,126.976778 195.966278,127.599 C195.769996,128.221222 195.620977,128.825667 195.518665,129.413444 C195.41691,130.001222 195.365754,130.516222 195.365754,130.959 C195.365754,131.828444 195.574269,132.471778 195.992412,132.889 M194.316505,126.652889 C194.742432,125.759 195.284572,124.987889 195.941256,124.340667 C196.597384,123.693444 197.325798,123.181778 198.127608,122.807333 C198.928863,122.432889 199.696755,122.245111 200.429617,122.245111 C201.094642,122.245111 201.674592,122.381778 202.169469,122.654 C202.663789,122.926222 203.073035,123.275667 203.396651,123.701778 C203.720266,124.127333 203.959364,124.596222 204.112831,125.107333 C204.266854,125.618444 204.343032,126.112889 204.343032,126.589556 C204.343032,127.577333 204.130068,128.510667 203.704141,129.387889 C203.277658,130.265111 202.739967,131.036222 202.092735,131.700667 C201.444392,132.365111 200.724319,132.889 199.931405,133.271778 C199.138491,133.655667 198.383943,133.847333 197.667207,133.847333 C197.053338,133.847333 196.503969,133.727889 196.017434,133.489556 C195.53201,133.250667 195.113868,132.936222 194.764118,132.544 C194.414368,132.152333 194.146357,131.696778 193.958415,131.176778 C193.770473,130.656778 193.677058,130.107889 193.677058,129.528444 C193.677058,128.506222 193.890022,127.547889 194.316505,126.652889" id="Fill-51" sketch:type="MSShapeGroup"></path>
                <path d="M205.941427,122.935111 L206.043738,122.576778 L210.084486,122.576778 L209.03635,125.720667 L209.087505,125.720667 C210.741727,123.522889 212.301421,122.424 213.768256,122.424 C214.483881,122.424 215.051043,122.615667 215.469185,122.999 C215.887328,123.382333 216.095843,123.855111 216.095843,124.417333 C216.095843,124.706778 216.049136,124.992333 215.954609,125.273444 C215.861194,125.554556 215.746093,125.890667 215.61042,126.282333 L213.947302,131.010667 C213.844434,131.300667 213.751019,131.585667 213.666501,131.866778 C213.580315,132.147889 213.538056,132.425111 213.538056,132.697333 C213.538056,132.901222 213.580315,133.089 213.666501,133.259556 C213.751019,133.430111 213.930064,133.515111 214.202524,133.515111 C214.510015,133.515111 214.791371,133.430111 215.046594,133.259556 C215.302929,133.089 215.537578,132.884556 215.750542,132.645667 C215.962949,132.407889 216.146999,132.156778 216.29991,131.892333 C216.453933,131.627889 216.57237,131.402333 216.658,131.215111 L216.939357,131.342889 C216.853727,131.512889 216.73529,131.739 216.581267,132.020111 C216.427799,132.300667 216.227069,132.577889 215.980743,132.850667 C215.732748,133.123444 215.430818,133.357889 215.072728,133.553444 C214.714082,133.749 214.288711,133.847333 213.793278,133.847333 C213.248358,133.847333 212.787957,133.727889 212.413185,133.489556 C212.037302,133.250667 211.84936,132.859 211.84936,132.314 C211.84936,132.092333 211.879942,131.862333 211.939438,131.624 C211.999491,131.385667 212.070664,131.130111 212.15685,130.857333 L214.304836,124.749556 C214.441622,124.340667 214.510015,124.000111 214.510015,123.727333 C214.510015,123.505667 214.437174,123.292889 214.293159,123.087889 C214.147476,122.884 213.886693,122.781778 213.511922,122.781778 C213.13715,122.781778 212.70177,122.922333 212.208006,123.202889 C211.713686,123.484556 211.218254,123.867889 210.724489,124.353444 C210.229057,124.839 209.765319,125.410111 209.329939,126.065667 C208.895115,126.721222 208.541473,127.432889 208.269013,128.199556 L206.350673,133.540667 L204.585799,133.540667 L208.269013,122.935111 L205.941427,122.935111 Z" id="Fill-53" sketch:type="MSShapeGroup"></path>
                <path d="M220.156275,126.857611 C219.943311,126.525389 219.837108,126.129278 219.837108,125.669278 C219.837108,125.277611 219.938863,124.877611 220.144598,124.468167 C220.348665,124.059278 220.630022,123.688722 220.988112,123.3565 C221.346758,123.024833 221.776578,122.755944 222.279239,122.5515 C222.782456,122.347056 223.324039,122.244833 223.90399,122.244833 C224.619614,122.244833 225.195672,122.402611 225.631052,122.717611 C226.06532,123.033167 226.282732,123.437611 226.282732,123.9315 C226.282732,124.647056 225.932983,125.004833 225.234595,125.004833 C224.994386,125.004833 224.78587,124.937056 224.607937,124.800389 C224.428892,124.664278 224.338258,124.468167 224.338258,124.212611 C224.338258,123.974833 224.393862,123.799833 224.504514,123.688722 C224.615722,123.578722 224.67077,123.437611 224.67077,123.267056 C224.67077,122.824278 224.381073,122.602611 223.802234,122.602611 C223.392432,122.602611 223.03879,122.662611 222.73964,122.7815 C222.441047,122.900944 222.194721,123.062611 221.998438,123.267056 C221.802712,123.4715 221.657029,123.7015 221.563614,123.957056 C221.469087,124.212611 221.42238,124.468167 221.42238,124.723722 C221.42238,125.064833 221.508566,125.384278 221.678715,125.682611 C221.849419,125.980389 222.088517,126.334278 222.394339,126.742611 L223.90399,128.710389 C224.108057,128.965944 224.249291,129.234278 224.325469,129.515389 C224.402758,129.7965 224.440569,130.082611 224.440569,130.3715 C224.440569,130.950944 224.295999,131.457611 224.006301,131.892611 C223.716048,132.327056 223.353509,132.688722 222.919242,132.978722 C222.484418,133.268167 222.015675,133.485389 221.512459,133.629833 C221.008686,133.774278 220.536607,133.847056 220.093443,133.847056 C219.700322,133.847056 219.32555,133.804278 218.966904,133.719833 C218.609926,133.633722 218.289646,133.5115 218.00829,133.349278 C217.726933,133.187611 217.50118,132.982611 217.330476,132.735389 C217.159771,132.488722 217.074141,132.203167 217.074141,131.879278 C217.074141,131.487611 217.19925,131.194278 217.445576,130.997611 C217.693015,130.802611 218.003841,130.703722 218.379725,130.703722 C218.532636,130.703722 218.672758,130.759278 218.800648,130.870389 C218.929093,130.980944 218.993038,131.112611 218.993038,131.2665 C218.993038,131.470944 218.949667,131.662056 218.865148,131.8415 C218.778962,132.019833 218.736703,132.212056 218.736703,132.415944 C218.736703,132.824833 218.869597,133.110389 219.13316,133.272056 C219.398392,133.434278 219.743693,133.514833 220.169064,133.514833 C220.596103,133.514833 220.975323,133.447056 221.307279,133.310389 C221.639792,133.174278 221.922261,133.003722 222.152461,132.799278 C222.382662,132.594833 222.556147,132.364833 222.675696,132.109278 C222.795245,131.853722 222.855297,131.615389 222.855297,131.393722 C222.855297,131.053167 222.799693,130.7465 222.689041,130.474278 C222.577833,130.202056 222.394339,129.894833 222.139116,129.554278 L220.860223,127.867056 C220.605,127.5265 220.370351,127.190389 220.156275,126.857611" id="Fill-55" sketch:type="MSShapeGroup"></path>
            </g>
        </g>
    </g>
</svg>