<?xml version="1.0" encoding="utf-8"?>
<!-- Generator: Adobe Illustrator 16.0.4, SVG Export Plug-In . SVG Version: 6.00 Build 0)  -->
<!DOCTYPE svg PUBLIC "-//W3C//DTD SVG 1.1//EN" "http://www.w3.org/Graphics/SVG/1.1/DTD/svg11.dtd">
<svg version="1.1" xmlns="http://www.w3.org/2000/svg" xmlns:xlink="http://www.w3.org/1999/xlink" x="0px" y="0px" width="724px"
	 height="304px" viewBox="0 0 724 304" enable-background="new 0 0 724 304" xml:space="preserve">
<g id="Layer_3">
	<rect x="-75.53" y="22.53" fill="none" width="867.059" height="476.471"/>
	<text transform="matrix(1 0 0 1 -11.3999 207.104)" font-family="'Didot-Bold'" font-size="256" letter-spacing="-6">cler.gy</text>
	<rect x="-50" y="227.413" fill="none" width="575.295" height="97.646"/>
	<text transform="matrix(1 0 0 1 38.9546 262.373)" font-family="'Didot-Italic'" font-size="46" letter-spacing="-1">convenient confessions</text>
	<rect x="1135" y="184" fill="#9834DB" width="196" height="196"/>
	<rect x="1385" y="184" fill="#D92DF2" width="196" height="196"/>
	<rect x="2192" y="-64" fill="#FFFFFF" width="536" height="536"/>
</g>
<g id="Layer_2">
	<g>
		<g>
			<g>
				<g>
					<path fill-rule="evenodd" clip-rule="evenodd" fill="#FFE6F4" d="M2353.936,274.873c13.914,0,25.191-11.279,25.191-25.19
						V224.49h25.19v-0.26c12.208-1.747,21.594-12.24,21.594-24.931c0-12.692-9.386-23.186-21.594-24.932v-0.26h-25.19v-21.592
						c0-13.913-11.277-25.192-25.191-25.192s-25.19,11.279-25.19,25.192v21.592h-25.192c-13.913,0-25.189,11.277-25.189,25.192
						c0,13.913,11.276,25.19,25.189,25.19h25.192v25.192C2328.745,263.594,2340.021,274.873,2353.936,274.873z M2202.789,123.726
						h25.193v25.192c0,13.913,11.275,25.19,25.188,25.19c13.915,0,25.192-11.277,25.192-25.19v-25.192h25.189v-0.26
						c12.207-1.747,21.594-12.239,21.594-24.93c0-12.693-9.387-23.186-21.594-24.932v-0.26h-25.189V51.751
						c0-13.913-11.277-25.191-25.192-25.191c-13.913,0-25.188,11.278-25.188,25.191v21.592h-25.193
						c-13.914,0-25.189,11.277-25.189,25.192C2177.6,112.449,2188.875,123.726,2202.789,123.726z M2303.553,19.363h25.192v25.192
						c0,13.913,11.276,25.19,25.19,25.19s25.191-11.277,25.191-25.19V19.363h25.19v-0.26c12.208-1.747,21.594-12.24,21.594-24.931
						s-9.386-23.185-21.594-24.932v-0.26h-25.19v-21.592c0-13.913-11.277-25.191-25.191-25.191s-25.19,11.278-25.19,25.191v21.592
						h-25.192c-13.913,0-25.189,11.278-25.189,25.191S2289.64,19.363,2303.553,19.363z M2299.955,324.995
						c12.206-1.747,21.594-12.242,21.594-24.931c0-12.692-9.388-23.185-21.594-24.932v-0.26h-25.19V253.28
						c0-13.913-11.279-25.191-25.192-25.191s-25.189,11.279-25.189,25.191v21.593h-25.193c-13.912,0-25.189,11.276-25.189,25.191
						c0,13.911,11.277,25.19,25.189,25.19h25.193v25.192c0,13.911,11.276,25.189,25.189,25.189s25.192-11.278,25.192-25.189v-25.192
						h25.19V324.995z M2404.317,379.495v-0.26h-25.19v-21.592c0-13.913-11.277-25.19-25.191-25.19s-25.19,11.277-25.19,25.19v21.592
						h-25.192c-13.913,0-25.189,11.279-25.189,25.19c0,13.915,11.276,25.191,25.189,25.191h25.192v25.192
						c0,13.913,11.276,25.19,25.19,25.19s25.191-11.277,25.191-25.19v-25.192h25.19v-0.26c12.208-1.746,21.594-12.239,21.594-24.932
						C2425.911,391.736,2416.525,381.242,2404.317,379.495z M2613.045,379.495v-0.26h-25.191v-21.592
						c0-13.913-11.279-25.19-25.192-25.19c-13.911,0-25.19,11.277-25.19,25.19v21.592h-25.189c-13.914,0-25.193,11.279-25.193,25.19
						c0,13.915,11.279,25.191,25.193,25.191h25.189v25.192c0,13.913,11.279,25.19,25.19,25.19c13.913,0,25.192-11.277,25.192-25.19
						v-25.192h25.191v-0.26c12.205-1.746,21.59-12.239,21.59-24.932C2634.635,391.736,2625.25,381.242,2613.045,379.495z
						 M2382.726,94.936c0,13.915,11.277,25.192,25.192,25.192h25.188v25.19c0,13.915,11.281,25.192,25.194,25.192
						s25.19-11.277,25.19-25.192v-25.19h25.191v-0.26c12.209-1.747,21.592-12.239,21.592-24.932c0-12.689-9.383-23.183-21.592-24.93
						v-0.26h-25.191V48.153c0-13.913-11.277-25.191-25.19-25.191s-25.194,11.278-25.194,25.191v21.592h-25.188
						C2394.003,69.745,2382.726,81.024,2382.726,94.936z M2591.453,98.536c0,13.913,11.277,25.19,25.188,25.19h25.194v25.192
						c0,13.913,11.277,25.19,25.188,25.19c13.916,0,25.194-11.277,25.194-25.19v-25.192h25.188v-0.26
						c12.207-1.746,21.594-12.239,21.594-24.93c0-12.693-9.387-23.186-21.594-24.932v-0.26h-25.188V51.751
						c0-13.913-11.278-25.191-25.194-25.191c-13.91,0-25.188,11.278-25.188,25.191v21.592h-25.194
						C2602.73,73.344,2591.453,84.621,2591.453,98.536z M2508.682,324.995c12.209-1.747,21.592-12.242,21.592-24.931
						c0-12.692-9.383-23.185-21.592-24.932v-0.26h-25.191V253.28c0-13.913-11.277-25.191-25.19-25.191s-25.194,11.279-25.194,25.191
						v21.593h-25.188c-13.915,0-25.192,11.276-25.192,25.191c0,13.911,11.277,25.19,25.192,25.19h25.188v25.192
						c0,13.911,11.281,25.189,25.194,25.189s25.19-11.278,25.19-25.189v-25.192h25.191V324.995z M2717.406,275.133v-0.26h-25.188
						V253.28c0-13.913-11.278-25.191-25.194-25.191c-13.91,0-25.188,11.279-25.188,25.191v21.593h-25.194
						c-13.911,0-25.188,11.276-25.188,25.191c0,13.911,11.277,25.19,25.188,25.19h25.194v25.192
						c0,13.911,11.277,25.189,25.188,25.189c13.916,0,25.194-11.278,25.194-25.189v-25.192h25.188v-0.26
						c12.207-1.746,21.594-12.241,21.594-24.931C2739,287.371,2729.613,276.879,2717.406,275.133z M2562.661,274.873
						c13.913,0,25.192-11.279,25.192-25.19V224.49h25.191v-0.26c12.205-1.747,21.59-12.24,21.59-24.931
						c0-12.692-9.385-23.186-21.59-24.932v-0.26h-25.191v-21.592c0-13.913-11.279-25.192-25.192-25.192
						c-13.911,0-25.19,11.279-25.19,25.192v21.592h-25.189c-13.914,0-25.193,11.277-25.193,25.192
						c0,13.913,11.279,25.19,25.193,25.19h25.189v25.192C2537.471,263.594,2548.75,274.873,2562.661,274.873z M2512.281,19.363
						h25.189v25.192c0,13.913,11.279,25.19,25.19,25.19c13.913,0,25.192-11.277,25.192-25.19V19.363h25.191v-0.26
						c12.205-1.747,21.59-12.24,21.59-24.931s-9.385-23.185-21.59-24.932v-0.26h-25.191v-21.592
						c0-13.913-11.279-25.191-25.192-25.191c-13.911,0-25.19,11.278-25.19,25.191v21.592h-25.189
						c-13.914,0-25.193,11.278-25.193,25.191S2498.367,19.363,2512.281,19.363z"/>
				</g>
			</g>
			<g>
				<g>
					<path fill-rule="evenodd" clip-rule="evenodd" fill="#FFE6F4" d="M2145.936,682.873c13.914,0,25.191-11.279,25.191-25.19
						V632.49h25.19v-0.26c12.208-1.747,21.594-12.24,21.594-24.931c0-12.692-9.386-23.186-21.594-24.933v-0.26h-25.19v-21.592
						c0-13.912-11.277-25.191-25.191-25.191s-25.19,11.279-25.19,25.191v21.592h-25.192c-13.913,0-25.189,11.277-25.189,25.192
						c0,13.913,11.276,25.19,25.189,25.19h25.192v25.192C2120.745,671.594,2132.021,682.873,2145.936,682.873z M1994.789,531.726
						h25.193v25.192c0,13.913,11.275,25.189,25.188,25.189c13.915,0,25.192-11.276,25.192-25.189v-25.192h25.189v-0.26
						c12.207-1.746,21.594-12.239,21.594-24.931s-9.387-23.186-21.594-24.932v-0.26h-25.189v-21.592
						c0-13.914-11.277-25.191-25.192-25.191c-13.913,0-25.188,11.277-25.188,25.191v21.592h-25.193
						c-13.914,0-25.189,11.277-25.189,25.191S1980.875,531.726,1994.789,531.726z M2095.553,427.363h25.192v25.191
						c0,13.913,11.276,25.19,25.19,25.19s25.191-11.277,25.191-25.19v-25.191h25.19v-0.26c12.208-1.747,21.594-12.241,21.594-24.932
						s-9.386-23.185-21.594-24.932v-0.26h-25.19v-21.592c0-13.913-11.277-25.191-25.191-25.191s-25.19,11.278-25.19,25.191v21.592
						h-25.192c-13.913,0-25.189,11.278-25.189,25.191S2081.64,427.363,2095.553,427.363z M2091.955,732.995
						c12.206-1.747,21.594-12.242,21.594-24.931c0-12.692-9.388-23.185-21.594-24.932v-0.26h-25.19V661.28
						c0-13.913-11.279-25.191-25.192-25.191s-25.189,11.278-25.189,25.191v21.593h-25.193c-13.912,0-25.189,11.276-25.189,25.191
						c0,13.911,11.277,25.19,25.189,25.19h25.193v25.192c0,13.911,11.276,25.189,25.189,25.189s25.192-11.278,25.192-25.189v-25.192
						h25.19V732.995z M2196.317,787.495v-0.26h-25.19v-21.592c0-13.913-11.277-25.19-25.191-25.19s-25.19,11.277-25.19,25.19v21.592
						h-25.192c-13.913,0-25.189,11.279-25.189,25.19c0,13.915,11.276,25.191,25.189,25.191h25.192v25.192
						c0,13.913,11.276,25.19,25.19,25.19s25.191-11.277,25.191-25.19v-25.192h25.19v-0.26c12.208-1.746,21.594-12.239,21.594-24.932
						C2217.911,799.736,2208.525,789.242,2196.317,787.495z M2405.045,787.495v-0.26h-25.191v-21.592
						c0-13.913-11.279-25.19-25.192-25.19c-13.911,0-25.19,11.277-25.19,25.19v21.592h-25.189c-13.914,0-25.193,11.279-25.193,25.19
						c0,13.915,11.279,25.191,25.193,25.191h25.189v25.192c0,13.913,11.279,25.19,25.19,25.19c13.913,0,25.192-11.277,25.192-25.19
						v-25.192h25.191v-0.26c12.205-1.746,21.59-12.239,21.59-24.932C2426.635,799.736,2417.25,789.242,2405.045,787.495z
						 M2174.726,502.936c0,13.915,11.277,25.191,25.192,25.191h25.188v25.19c0,13.915,11.281,25.192,25.194,25.192
						s25.19-11.277,25.19-25.192v-25.19h25.191v-0.26c12.209-1.747,21.592-12.239,21.592-24.932
						c0-12.689-9.383-23.184-21.592-24.931v-0.26h-25.191v-21.592c0-13.913-11.277-25.191-25.19-25.191
						s-25.194,11.278-25.194,25.191v21.592h-25.188C2186.003,477.745,2174.726,489.023,2174.726,502.936z M2383.453,506.535
						c0,13.914,11.277,25.19,25.188,25.19h25.194v25.192c0,13.913,11.277,25.189,25.188,25.189
						c13.916,0,25.194-11.276,25.194-25.189v-25.192h25.188v-0.26c12.207-1.746,21.594-12.238,21.594-24.931
						s-9.387-23.186-21.594-24.932v-0.26h-25.188v-21.592c0-13.914-11.278-25.191-25.194-25.191
						c-13.91,0-25.188,11.277-25.188,25.191v21.592h-25.194C2394.73,481.344,2383.453,492.621,2383.453,506.535z M2300.682,732.995
						c12.209-1.747,21.592-12.242,21.592-24.931c0-12.692-9.383-23.185-21.592-24.932v-0.26h-25.191V661.28
						c0-13.913-11.277-25.191-25.19-25.191s-25.194,11.278-25.194,25.191v21.593h-25.188c-13.915,0-25.192,11.276-25.192,25.191
						c0,13.911,11.277,25.19,25.192,25.19h25.188v25.192c0,13.911,11.281,25.189,25.194,25.189s25.19-11.278,25.19-25.189v-25.192
						h25.191V732.995z M2509.406,683.133v-0.26h-25.188V661.28c0-13.913-11.278-25.191-25.194-25.191
						c-13.91,0-25.188,11.278-25.188,25.191v21.593h-25.194c-13.911,0-25.188,11.276-25.188,25.191
						c0,13.911,11.277,25.19,25.188,25.19h25.194v25.192c0,13.911,11.277,25.189,25.188,25.189
						c13.916,0,25.194-11.278,25.194-25.189v-25.192h25.188v-0.26c12.207-1.746,21.594-12.241,21.594-24.931
						C2531,695.371,2521.613,684.879,2509.406,683.133z M2354.661,682.873c13.913,0,25.192-11.279,25.192-25.19V632.49h25.191v-0.26
						c12.205-1.747,21.59-12.24,21.59-24.931c0-12.692-9.385-23.186-21.59-24.933v-0.26h-25.191v-21.592
						c0-13.912-11.279-25.191-25.192-25.191c-13.911,0-25.19,11.279-25.19,25.191v21.592h-25.189
						c-13.914,0-25.193,11.277-25.193,25.192c0,13.913,11.279,25.19,25.193,25.19h25.189v25.192
						C2329.471,671.594,2340.75,682.873,2354.661,682.873z M2304.281,427.363h25.189v25.191c0,13.913,11.279,25.19,25.19,25.19
						c13.913,0,25.192-11.277,25.192-25.19v-25.191h25.191v-0.26c12.205-1.747,21.59-12.241,21.59-24.932
						s-9.385-23.185-21.59-24.932v-0.26h-25.191v-21.592c0-13.913-11.279-25.191-25.192-25.191c-13.911,0-25.19,11.278-25.19,25.191
						v21.592h-25.189c-13.914,0-25.193,11.278-25.193,25.191S2290.367,427.363,2304.281,427.363z"/>
				</g>
			</g>
			<g>
				<g>
					<path fill-rule="evenodd" clip-rule="evenodd" fill="#FFE6F4" d="M2665.936,578.873c13.914,0,25.191-11.279,25.191-25.191
						V528.49h25.19v-0.26c12.208-1.747,21.594-12.24,21.594-24.932s-9.386-23.185-21.594-24.932v-0.26h-25.19v-21.592
						c0-13.912-11.277-25.191-25.191-25.191s-25.19,11.279-25.19,25.191v21.592h-25.192c-13.913,0-25.189,11.277-25.189,25.191
						s11.276,25.191,25.189,25.191h25.192v25.191C2640.745,567.594,2652.021,578.873,2665.936,578.873z M2514.789,427.725h25.193
						v25.193c0,13.912,11.275,25.189,25.188,25.189c13.915,0,25.192-11.277,25.192-25.189v-25.193h25.189v-0.26
						c12.207-1.746,21.594-12.238,21.594-24.93s-9.387-23.186-21.594-24.932v-0.26h-25.189v-21.592
						c0-13.914-11.277-25.191-25.192-25.191c-13.913,0-25.188,11.277-25.188,25.191v21.592h-25.193
						c-13.914,0-25.189,11.277-25.189,25.191S2500.875,427.725,2514.789,427.725z M2615.553,323.363h25.192v25.191
						c0,13.912,11.276,25.189,25.19,25.189s25.191-11.277,25.191-25.189v-25.191h25.19v-0.26
						c12.208-1.747,21.594-12.242,21.594-24.932c0-12.691-9.386-23.185-21.594-24.932v-0.26h-25.19v-21.592
						c0-13.914-11.277-25.191-25.191-25.191s-25.19,11.277-25.19,25.191v21.592h-25.192c-13.913,0-25.189,11.277-25.189,25.191
						C2590.363,312.084,2601.64,323.363,2615.553,323.363z M2611.955,628.994c12.206-1.747,21.594-12.242,21.594-24.93
						c0-12.693-9.388-23.185-21.594-24.932v-0.26h-25.19v-21.594c0-13.912-11.279-25.191-25.192-25.191
						s-25.189,11.279-25.189,25.191v21.594h-25.193c-13.912,0-25.189,11.275-25.189,25.191c0,13.91,11.277,25.189,25.189,25.189
						h25.193v25.193c0,13.91,11.276,25.189,25.189,25.189s25.192-11.279,25.192-25.189v-25.193h25.19V628.994z M2716.317,683.494
						v-0.26h-25.19v-21.592c0-13.912-11.277-25.189-25.191-25.189s-25.19,11.277-25.19,25.189v21.592h-25.192
						c-13.913,0-25.189,11.279-25.189,25.191c0,13.914,11.276,25.191,25.189,25.191h25.192v25.191
						c0,13.914,11.276,25.191,25.19,25.191s25.191-11.277,25.191-25.191v-25.191h25.19v-0.26
						c12.208-1.747,21.594-12.24,21.594-24.932C2737.911,695.736,2728.525,685.241,2716.317,683.494z M2925.045,683.494v-0.26
						h-25.191v-21.592c0-13.912-11.279-25.189-25.192-25.189c-13.911,0-25.19,11.277-25.19,25.189v21.592h-25.189
						c-13.914,0-25.193,11.279-25.193,25.191c0,13.914,11.279,25.191,25.193,25.191h25.189v25.191
						c0,13.914,11.279,25.191,25.19,25.191c13.913,0,25.192-11.277,25.192-25.191v-25.191h25.191v-0.26
						c12.205-1.747,21.59-12.24,21.59-24.932C2946.635,695.736,2937.25,685.241,2925.045,683.494z M2694.726,398.936
						c0,13.914,11.277,25.191,25.192,25.191h25.188v25.189c0,13.916,11.281,25.193,25.194,25.193s25.19-11.277,25.19-25.193v-25.189
						h25.191v-0.26c12.209-1.747,21.592-12.24,21.592-24.932c0-12.689-9.383-23.185-21.592-24.932v-0.26h-25.191v-21.592
						c0-13.912-11.277-25.191-25.19-25.191s-25.194,11.279-25.194,25.191v21.592h-25.188
						C2706.003,373.744,2694.726,385.023,2694.726,398.936z M2903.453,402.535c0,13.914,11.277,25.189,25.188,25.189h25.194v25.193
						c0,13.912,11.277,25.189,25.188,25.189c13.916,0,25.194-11.277,25.194-25.189v-25.193h25.188v-0.26
						c12.207-1.746,21.594-12.237,21.594-24.93s-9.387-23.186-21.594-24.932v-0.26h-25.188v-21.592
						c0-13.914-11.278-25.191-25.194-25.191c-13.91,0-25.188,11.277-25.188,25.191v21.592h-25.194
						C2914.73,377.344,2903.453,388.621,2903.453,402.535z M2820.682,628.994c12.209-1.747,21.592-12.242,21.592-24.93
						c0-12.693-9.383-23.185-21.592-24.932v-0.26h-25.191v-21.594c0-13.912-11.277-25.191-25.19-25.191
						s-25.194,11.279-25.194,25.191v21.594h-25.188c-13.915,0-25.192,11.275-25.192,25.191c0,13.91,11.277,25.189,25.192,25.189
						h25.188v25.193c0,13.91,11.281,25.189,25.194,25.189s25.19-11.279,25.19-25.189v-25.193h25.191V628.994z M3029.406,579.133
						v-0.26h-25.188v-21.594c0-13.912-11.278-25.191-25.194-25.191c-13.91,0-25.188,11.279-25.188,25.191v21.594h-25.194
						c-13.911,0-25.188,11.275-25.188,25.191c0,13.91,11.277,25.189,25.188,25.189h25.194v25.193
						c0,13.91,11.277,25.189,25.188,25.189c13.916,0,25.194-11.279,25.194-25.189v-25.193h25.188v-0.26
						c12.207-1.746,21.594-12.241,21.594-24.93C3051,591.37,3041.613,580.879,3029.406,579.133z M2874.661,578.873
						c13.913,0,25.192-11.279,25.192-25.191V528.49h25.191v-0.26c12.205-1.747,21.59-12.24,21.59-24.932s-9.385-23.185-21.59-24.932
						v-0.26h-25.191v-21.592c0-13.912-11.279-25.191-25.192-25.191c-13.911,0-25.19,11.279-25.19,25.191v21.592h-25.189
						c-13.914,0-25.193,11.277-25.193,25.191s11.279,25.191,25.193,25.191h25.189v25.191
						C2849.471,567.594,2860.75,578.873,2874.661,578.873z M2824.281,323.363h25.189v25.191c0,13.912,11.279,25.189,25.19,25.189
						c13.913,0,25.192-11.277,25.192-25.189v-25.191h25.191v-0.26c12.205-1.747,21.59-12.242,21.59-24.932
						c0-12.691-9.385-23.185-21.59-24.932v-0.26h-25.191v-21.592c0-13.914-11.279-25.191-25.192-25.191
						c-13.911,0-25.19,11.277-25.19,25.191v21.592h-25.189c-13.914,0-25.193,11.277-25.193,25.191
						C2799.088,312.084,2810.367,323.363,2824.281,323.363z"/>
				</g>
			</g>
			<g>
				<g>
					<path fill-rule="evenodd" clip-rule="evenodd" fill="#FFE6F4" d="M2772.936,72.675c13.914,0,25.191-11.279,25.191-25.19V22.292
						h25.19v-0.26c12.208-1.747,21.594-12.24,21.594-24.931c0-12.692-9.386-23.186-21.594-24.932v-0.26h-25.19v-21.592
						c0-13.913-11.277-25.192-25.191-25.192s-25.19,11.279-25.19,25.192v21.592h-25.192c-13.913,0-25.189,11.277-25.189,25.192
						c0,13.913,11.276,25.19,25.189,25.19h25.192v25.192C2747.745,61.396,2759.021,72.675,2772.936,72.675z M2621.789-78.472h25.193
						v25.192c0,13.913,11.275,25.19,25.188,25.19c13.915,0,25.192-11.277,25.192-25.19v-25.192h25.189v-0.26
						c12.207-1.747,21.594-12.239,21.594-24.93c0-12.693-9.387-23.186-21.594-24.932v-0.26h-25.189v-21.592
						c0-13.913-11.277-25.191-25.192-25.191c-13.913,0-25.188,11.278-25.188,25.191v21.592h-25.193
						c-13.914,0-25.189,11.277-25.189,25.192C2596.6-89.749,2607.875-78.472,2621.789-78.472z M2722.553-182.835h25.192v25.192
						c0,13.913,11.276,25.19,25.19,25.19s25.191-11.277,25.191-25.19v-25.192h25.19v-0.26c12.208-1.747,21.594-12.24,21.594-24.931
						s-9.386-23.185-21.594-24.931v-0.26h-25.19v-21.592c0-13.913-11.277-25.191-25.191-25.191s-25.19,11.278-25.19,25.191v21.592
						h-25.192c-13.913,0-25.189,11.278-25.189,25.191S2708.64-182.835,2722.553-182.835z M2718.955,122.797
						c12.206-1.747,21.594-12.241,21.594-24.93c0-12.692-9.388-23.185-21.594-24.931v-0.26h-25.19V51.083
						c0-13.913-11.279-25.191-25.192-25.191s-25.189,11.279-25.189,25.191v21.593h-25.193c-13.912,0-25.189,11.276-25.189,25.191
						c0,13.911,11.277,25.19,25.189,25.19h25.193v25.192c0,13.911,11.276,25.189,25.189,25.189s25.192-11.278,25.192-25.189v-25.192
						h25.19V122.797z M2823.317,177.298v-0.26h-25.19v-21.592c0-13.913-11.277-25.19-25.191-25.19s-25.19,11.277-25.19,25.19v21.592
						h-25.192c-13.913,0-25.189,11.279-25.189,25.19c0,13.915,11.276,25.191,25.189,25.191h25.192v25.192
						c0,13.914,11.276,25.191,25.19,25.191s25.191-11.277,25.191-25.191v-25.192h25.19v-0.26
						c12.208-1.747,21.594-12.239,21.594-24.932C2844.911,189.539,2835.525,179.044,2823.317,177.298z M3032.045,177.298v-0.26
						h-25.191v-21.592c0-13.913-11.279-25.19-25.192-25.19c-13.911,0-25.19,11.277-25.19,25.19v21.592h-25.189
						c-13.914,0-25.193,11.279-25.193,25.19c0,13.915,11.279,25.191,25.193,25.191h25.189v25.192
						c0,13.914,11.279,25.191,25.19,25.191c13.913,0,25.192-11.277,25.192-25.191v-25.192h25.191v-0.26
						c12.205-1.747,21.59-12.239,21.59-24.932C3053.635,189.539,3044.25,179.044,3032.045,177.298z M2801.726-107.262
						c0,13.915,11.277,25.192,25.192,25.192h25.188v25.19c0,13.915,11.281,25.192,25.194,25.192s25.19-11.277,25.19-25.192v-25.19
						h25.191v-0.26c12.209-1.747,21.592-12.239,21.592-24.932c0-12.689-9.383-23.183-21.592-24.93v-0.26h-25.191v-21.592
						c0-13.913-11.277-25.191-25.19-25.191s-25.194,11.278-25.194,25.191v21.592h-25.188
						C2813.003-132.453,2801.726-121.174,2801.726-107.262z M3010.453-103.662c0,13.913,11.277,25.19,25.188,25.19h25.194v25.192
						c0,13.913,11.277,25.19,25.188,25.19c13.916,0,25.194-11.277,25.194-25.19v-25.192h25.188v-0.26
						c12.207-1.746,21.594-12.239,21.594-24.93c0-12.693-9.387-23.186-21.594-24.932v-0.26h-25.188v-21.592
						c0-13.913-11.278-25.191-25.194-25.191c-13.91,0-25.188,11.278-25.188,25.191v21.592h-25.194
						C3021.73-128.854,3010.453-117.577,3010.453-103.662z M2927.682,122.797c12.209-1.747,21.592-12.241,21.592-24.93
						c0-12.692-9.383-23.185-21.592-24.931v-0.26h-25.191V51.083c0-13.913-11.277-25.191-25.19-25.191s-25.194,11.279-25.194,25.191
						v21.593h-25.188c-13.915,0-25.192,11.276-25.192,25.191c0,13.911,11.277,25.19,25.192,25.19h25.188v25.192
						c0,13.911,11.281,25.189,25.194,25.189s25.19-11.278,25.19-25.189v-25.192h25.191V122.797z M3136.406,72.935v-0.26h-25.188
						V51.083c0-13.913-11.278-25.191-25.194-25.191c-13.91,0-25.188,11.279-25.188,25.191v21.593h-25.194
						c-13.911,0-25.188,11.276-25.188,25.191c0,13.911,11.277,25.19,25.188,25.19h25.194v25.192
						c0,13.911,11.277,25.189,25.188,25.189c13.916,0,25.194-11.278,25.194-25.189v-25.192h25.188v-0.26
						c12.207-1.747,21.594-12.241,21.594-24.931C3158,85.174,3148.613,74.681,3136.406,72.935z M2981.661,72.675
						c13.913,0,25.192-11.279,25.192-25.19V22.292h25.191v-0.26c12.205-1.747,21.59-12.24,21.59-24.931
						c0-12.692-9.385-23.186-21.59-24.932v-0.26h-25.191v-21.592c0-13.913-11.279-25.192-25.192-25.192
						c-13.911,0-25.19,11.279-25.19,25.192v21.592h-25.189c-13.914,0-25.193,11.277-25.193,25.192
						c0,13.913,11.279,25.19,25.193,25.19h25.189v25.192C2956.471,61.396,2967.75,72.675,2981.661,72.675z M2931.281-182.835h25.189
						v25.192c0,13.913,11.279,25.19,25.19,25.19c13.913,0,25.192-11.277,25.192-25.19v-25.192h25.191v-0.26
						c12.205-1.747,21.59-12.24,21.59-24.931s-9.385-23.185-21.59-24.931v-0.26h-25.191v-21.592
						c0-13.913-11.279-25.191-25.192-25.191c-13.911,0-25.19,11.278-25.19,25.191v21.592h-25.189
						c-13.914,0-25.193,11.278-25.193,25.191S2917.367-182.835,2931.281-182.835z"/>
				</g>
			</g>
			<g>
				<g>
					<path fill-rule="evenodd" clip-rule="evenodd" fill="#FFE6F4" d="M2145.936,66.873c13.914,0,25.191-11.279,25.191-25.19V16.49
						h25.19v-0.26c12.208-1.747,21.594-12.24,21.594-24.931c0-12.692-9.386-23.186-21.594-24.932v-0.26h-25.19v-21.592
						c0-13.913-11.277-25.192-25.191-25.192s-25.19,11.279-25.19,25.192v21.592h-25.192c-13.913,0-25.189,11.277-25.189,25.192
						c0,13.913,11.276,25.19,25.189,25.19h25.192v25.192C2120.745,55.594,2132.021,66.873,2145.936,66.873z M1994.789-84.274h25.193
						v25.192c0,13.913,11.275,25.19,25.188,25.19c13.915,0,25.192-11.277,25.192-25.19v-25.192h25.189v-0.26
						c12.207-1.747,21.594-12.239,21.594-24.93c0-12.693-9.387-23.186-21.594-24.932v-0.26h-25.189v-21.592
						c0-13.913-11.277-25.191-25.192-25.191c-13.913,0-25.188,11.278-25.188,25.191v21.592h-25.193
						c-13.914,0-25.189,11.277-25.189,25.192C1969.6-95.551,1980.875-84.274,1994.789-84.274z M2095.553-188.637h25.192v25.192
						c0,13.913,11.276,25.19,25.19,25.19s25.191-11.277,25.191-25.19v-25.192h25.19v-0.26c12.208-1.747,21.594-12.24,21.594-24.931
						s-9.386-23.185-21.594-24.932v-0.26h-25.19v-21.592c0-13.913-11.277-25.191-25.191-25.191s-25.19,11.278-25.19,25.191v21.592
						h-25.192c-13.913,0-25.189,11.278-25.189,25.191S2081.64-188.637,2095.553-188.637z M2091.955,116.995
						c12.206-1.747,21.594-12.241,21.594-24.93c0-12.692-9.388-23.185-21.594-24.931v-0.26h-25.19V45.28
						c0-13.913-11.279-25.191-25.192-25.191s-25.189,11.279-25.189,25.191v21.593h-25.193c-13.912,0-25.189,11.276-25.189,25.191
						c0,13.911,11.277,25.19,25.189,25.19h25.193v25.192c0,13.911,11.276,25.189,25.189,25.189s25.192-11.278,25.192-25.189v-25.192
						h25.19V116.995z M2196.317,171.495v-0.26h-25.19v-21.592c0-13.913-11.277-25.19-25.191-25.19s-25.19,11.277-25.19,25.19v21.592
						h-25.192c-13.913,0-25.189,11.279-25.189,25.19c0,13.915,11.276,25.191,25.189,25.191h25.192v25.192
						c0,13.913,11.276,25.19,25.19,25.19s25.191-11.277,25.191-25.19v-25.192h25.19v-0.26c12.208-1.747,21.594-12.239,21.594-24.932
						C2217.911,183.737,2208.525,173.242,2196.317,171.495z M2405.045,171.495v-0.26h-25.191v-21.592
						c0-13.913-11.279-25.19-25.192-25.19c-13.911,0-25.19,11.277-25.19,25.19v21.592h-25.189c-13.914,0-25.193,11.279-25.193,25.19
						c0,13.915,11.279,25.191,25.193,25.191h25.189v25.192c0,13.913,11.279,25.19,25.19,25.19c13.913,0,25.192-11.277,25.192-25.19
						v-25.192h25.191v-0.26c12.205-1.747,21.59-12.239,21.59-24.932C2426.635,183.737,2417.25,173.242,2405.045,171.495z
						 M2174.726-113.064c0,13.915,11.277,25.192,25.192,25.192h25.188v25.19c0,13.915,11.281,25.192,25.194,25.192
						s25.19-11.277,25.19-25.192v-25.19h25.191v-0.26c12.209-1.747,21.592-12.239,21.592-24.932c0-12.689-9.383-23.183-21.592-24.93
						v-0.26h-25.191v-21.592c0-13.913-11.277-25.191-25.19-25.191s-25.194,11.278-25.194,25.191v21.592h-25.188
						C2186.003-138.255,2174.726-126.976,2174.726-113.064z M2383.453-109.464c0,13.913,11.277,25.19,25.188,25.19h25.194v25.192
						c0,13.913,11.277,25.19,25.188,25.19c13.916,0,25.194-11.277,25.194-25.19v-25.192h25.188v-0.26
						c12.207-1.746,21.594-12.239,21.594-24.93c0-12.693-9.387-23.186-21.594-24.932v-0.26h-25.188v-21.592
						c0-13.913-11.278-25.191-25.194-25.191c-13.91,0-25.188,11.278-25.188,25.191v21.592h-25.194
						C2394.73-134.656,2383.453-123.379,2383.453-109.464z M2300.682,116.995c12.209-1.747,21.592-12.241,21.592-24.93
						c0-12.692-9.383-23.185-21.592-24.931v-0.26h-25.191V45.28c0-13.913-11.277-25.191-25.19-25.191s-25.194,11.279-25.194,25.191
						v21.593h-25.188c-13.915,0-25.192,11.276-25.192,25.191c0,13.911,11.277,25.19,25.192,25.19h25.188v25.192
						c0,13.911,11.281,25.189,25.194,25.189s25.19-11.278,25.19-25.189v-25.192h25.191V116.995z M2509.406,67.133v-0.26h-25.188
						V45.28c0-13.913-11.278-25.191-25.194-25.191c-13.91,0-25.188,11.279-25.188,25.191v21.593h-25.194
						c-13.911,0-25.188,11.276-25.188,25.191c0,13.911,11.277,25.19,25.188,25.19h25.194v25.192
						c0,13.911,11.277,25.189,25.188,25.189c13.916,0,25.194-11.278,25.194-25.189v-25.192h25.188v-0.26
						c12.207-1.747,21.594-12.241,21.594-24.931C2531,79.372,2521.613,68.879,2509.406,67.133z M2354.661,66.873
						c13.913,0,25.192-11.279,25.192-25.19V16.49h25.191v-0.26c12.205-1.747,21.59-12.24,21.59-24.931
						c0-12.692-9.385-23.186-21.59-24.932v-0.26h-25.191v-21.592c0-13.913-11.279-25.192-25.192-25.192
						c-13.911,0-25.19,11.279-25.19,25.192v21.592h-25.189c-13.914,0-25.193,11.277-25.193,25.192
						c0,13.913,11.279,25.19,25.193,25.19h25.189v25.192C2329.471,55.594,2340.75,66.873,2354.661,66.873z M2304.281-188.637h25.189
						v25.192c0,13.913,11.279,25.19,25.19,25.19c13.913,0,25.192-11.277,25.192-25.19v-25.192h25.191v-0.26
						c12.205-1.747,21.59-12.24,21.59-24.931s-9.385-23.185-21.59-24.932v-0.26h-25.191v-21.592
						c0-13.913-11.279-25.191-25.192-25.191c-13.911,0-25.19,11.278-25.19,25.191v21.592h-25.189
						c-13.914,0-25.193,11.278-25.193,25.191S2290.367-188.637,2304.281-188.637z"/>
				</g>
			</g>
			<g>
				<g>
					<path fill-rule="evenodd" clip-rule="evenodd" fill="#FFE6F4" d="M2457.936-31.325c13.914,0,25.191-11.279,25.191-25.19
						v-25.192h25.19v-0.26c12.208-1.747,21.594-12.24,21.594-24.931c0-12.693-9.386-23.186-21.594-24.933v-0.26h-25.19v-21.592
						c0-13.912-11.277-25.191-25.191-25.191s-25.19,11.279-25.19,25.191v21.592h-25.192c-13.913,0-25.189,11.277-25.189,25.192
						c0,13.913,11.276,25.19,25.189,25.19h25.192v25.192C2432.745-42.604,2444.021-31.325,2457.936-31.325z M2306.789-182.472
						h25.193v25.192c0,13.913,11.275,25.189,25.188,25.189c13.915,0,25.192-11.276,25.192-25.189v-25.192h25.189v-0.26
						c12.207-1.747,21.594-12.239,21.594-24.93c0-12.693-9.387-23.186-21.594-24.932v-0.26h-25.189v-21.592
						c0-13.913-11.277-25.191-25.192-25.191c-13.913,0-25.188,11.278-25.188,25.191v21.592h-25.193
						c-13.914,0-25.189,11.277-25.189,25.192C2281.6-193.749,2292.875-182.472,2306.789-182.472z M2407.553-286.835h25.192v25.192
						c0,13.913,11.276,25.19,25.19,25.19s25.191-11.277,25.191-25.19v-25.192h25.19v-0.26c12.208-1.747,21.594-12.24,21.594-24.931
						s-9.386-23.185-21.594-24.931v-0.26h-25.19v-21.592c0-13.913-11.277-25.191-25.191-25.191s-25.19,11.278-25.19,25.191v21.592
						h-25.192c-13.913,0-25.189,11.278-25.189,25.191S2393.64-286.835,2407.553-286.835z M2403.955,18.797
						c12.206-1.747,21.594-12.241,21.594-24.93c0-12.692-9.388-23.185-21.594-24.931v-0.26h-25.19v-21.593
						c0-13.913-11.279-25.191-25.192-25.191s-25.189,11.278-25.189,25.191v21.593h-25.193c-13.912,0-25.189,11.276-25.189,25.191
						c0,13.911,11.277,25.19,25.189,25.19h25.193V44.25c0,13.911,11.276,25.189,25.189,25.189s25.192-11.278,25.192-25.189V19.057
						h25.19V18.797z M2508.317,73.298v-0.26h-25.19V51.446c0-13.913-11.277-25.19-25.191-25.19s-25.19,11.277-25.19,25.19v21.592
						h-25.192c-13.913,0-25.189,11.279-25.189,25.19c0,13.915,11.276,25.191,25.189,25.191h25.192v25.192
						c0,13.913,11.276,25.19,25.19,25.19s25.191-11.277,25.191-25.19v-25.192h25.19v-0.26c12.208-1.747,21.594-12.239,21.594-24.932
						C2529.911,85.539,2520.525,75.044,2508.317,73.298z M2717.045,73.298v-0.26h-25.191V51.446c0-13.913-11.279-25.19-25.192-25.19
						c-13.911,0-25.19,11.277-25.19,25.19v21.592h-25.189c-13.914,0-25.193,11.279-25.193,25.19
						c0,13.915,11.279,25.191,25.193,25.191h25.189v25.192c0,13.913,11.279,25.19,25.19,25.19c13.913,0,25.192-11.277,25.192-25.19
						v-25.192h25.191v-0.26c12.205-1.747,21.59-12.239,21.59-24.932C2738.635,85.539,2729.25,75.044,2717.045,73.298z
						 M2486.726-211.262c0,13.915,11.277,25.192,25.192,25.192h25.188v25.19c0,13.915,11.281,25.192,25.194,25.192
						s25.19-11.277,25.19-25.192v-25.19h25.191v-0.26c12.209-1.747,21.592-12.239,21.592-24.932c0-12.689-9.383-23.183-21.592-24.93
						v-0.26h-25.191v-21.592c0-13.913-11.277-25.191-25.19-25.191s-25.194,11.278-25.194,25.191v21.592h-25.188
						C2498.003-236.453,2486.726-225.174,2486.726-211.262z M2695.453-207.662c0,13.913,11.277,25.19,25.188,25.19h25.194v25.192
						c0,13.913,11.277,25.189,25.188,25.189c13.916,0,25.194-11.276,25.194-25.189v-25.192h25.188v-0.26
						c12.207-1.746,21.594-12.239,21.594-24.93c0-12.693-9.387-23.186-21.594-24.932v-0.26h-25.188v-21.592
						c0-13.913-11.278-25.191-25.194-25.191c-13.91,0-25.188,11.278-25.188,25.191v21.592h-25.194
						C2706.73-232.854,2695.453-221.577,2695.453-207.662z M2612.682,18.797c12.209-1.747,21.592-12.241,21.592-24.93
						c0-12.692-9.383-23.185-21.592-24.931v-0.26h-25.191v-21.593c0-13.913-11.277-25.191-25.19-25.191
						s-25.194,11.278-25.194,25.191v21.593h-25.188c-13.915,0-25.192,11.276-25.192,25.191c0,13.911,11.277,25.19,25.192,25.19
						h25.188V44.25c0,13.911,11.281,25.189,25.194,25.189s25.19-11.278,25.19-25.189V19.057h25.191V18.797z M2821.406-31.065v-0.26
						h-25.188v-21.593c0-13.913-11.278-25.191-25.194-25.191c-13.91,0-25.188,11.278-25.188,25.191v21.593h-25.194
						c-13.911,0-25.188,11.276-25.188,25.191c0,13.911,11.277,25.19,25.188,25.19h25.194V44.25
						c0,13.911,11.277,25.189,25.188,25.189c13.916,0,25.194-11.278,25.194-25.189V19.057h25.188v-0.26
						C2833.613,17.051,2843,6.556,2843-6.133C2843-18.826,2833.613-29.319,2821.406-31.065z M2666.661-31.325
						c13.913,0,25.192-11.279,25.192-25.19v-25.192h25.191v-0.26c12.205-1.747,21.59-12.24,21.59-24.931
						c0-12.693-9.385-23.186-21.59-24.933v-0.26h-25.191v-21.592c0-13.912-11.279-25.191-25.192-25.191
						c-13.911,0-25.19,11.279-25.19,25.191v21.592h-25.189c-13.914,0-25.193,11.277-25.193,25.192
						c0,13.913,11.279,25.19,25.193,25.19h25.189v25.192C2641.471-42.604,2652.75-31.325,2666.661-31.325z M2616.281-286.835h25.189
						v25.192c0,13.913,11.279,25.19,25.19,25.19c13.913,0,25.192-11.277,25.192-25.19v-25.192h25.191v-0.26
						c12.205-1.747,21.59-12.24,21.59-24.931s-9.385-23.185-21.59-24.931v-0.26h-25.191v-21.592
						c0-13.913-11.279-25.191-25.192-25.191c-13.911,0-25.19,11.278-25.19,25.191v21.592h-25.189
						c-13.914,0-25.193,11.278-25.193,25.191S2602.367-286.835,2616.281-286.835z"/>
				</g>
			</g>
			<g>
				<g>
					<path fill-rule="evenodd" clip-rule="evenodd" fill="#FFE6F4" d="M2457.936,784.676c13.914,0,25.191-11.279,25.191-25.19
						v-25.192h25.19v-0.26c12.208-1.747,21.594-12.24,21.594-24.931c0-12.692-9.386-23.186-21.594-24.933v-0.26h-25.19v-21.592
						c0-13.912-11.277-25.191-25.191-25.191s-25.19,11.279-25.19,25.191v21.592h-25.192c-13.913,0-25.189,11.277-25.189,25.192
						c0,13.913,11.276,25.19,25.189,25.19h25.192v25.192C2432.745,773.396,2444.021,784.676,2457.936,784.676z M2306.789,633.528
						h25.193v25.192c0,13.913,11.275,25.189,25.188,25.189c13.915,0,25.192-11.276,25.192-25.189v-25.192h25.189v-0.26
						c12.207-1.746,21.594-12.239,21.594-24.931s-9.387-23.186-21.594-24.932v-0.26h-25.189v-21.592
						c0-13.914-11.277-25.191-25.192-25.191c-13.913,0-25.188,11.277-25.188,25.191v21.592h-25.193
						c-13.914,0-25.189,11.277-25.189,25.191S2292.875,633.528,2306.789,633.528z M2407.553,529.166h25.192v25.191
						c0,13.913,11.276,25.19,25.19,25.19s25.191-11.277,25.191-25.19v-25.191h25.19v-0.26c12.208-1.747,21.594-12.241,21.594-24.932
						s-9.386-23.185-21.594-24.932v-0.26h-25.19v-21.592c0-13.913-11.277-25.191-25.191-25.191s-25.19,11.278-25.19,25.191v21.592
						h-25.192c-13.913,0-25.189,11.278-25.189,25.191S2393.64,529.166,2407.553,529.166z M2403.955,834.798
						c12.206-1.747,21.594-12.242,21.594-24.931c0-12.692-9.388-23.185-21.594-24.932v-0.26h-25.19v-21.593
						c0-13.913-11.279-25.191-25.192-25.191s-25.189,11.278-25.189,25.191v21.593h-25.193c-13.912,0-25.189,11.276-25.189,25.191
						c0,13.911,11.277,25.19,25.189,25.19h25.193v25.192c0,13.911,11.276,25.189,25.189,25.189s25.192-11.278,25.192-25.189v-25.192
						h25.19V834.798z M2508.317,889.298v-0.26h-25.19v-21.592c0-13.913-11.277-25.19-25.191-25.19s-25.19,11.277-25.19,25.19v21.592
						h-25.192c-13.913,0-25.189,11.279-25.189,25.19c0,13.915,11.276,25.191,25.189,25.191h25.192v25.192
						c0,13.913,11.276,25.19,25.19,25.19s25.191-11.277,25.191-25.19V939.42h25.19v-0.26c12.208-1.746,21.594-12.239,21.594-24.932
						C2529.911,901.539,2520.525,891.045,2508.317,889.298z M2717.045,889.298v-0.26h-25.191v-21.592
						c0-13.913-11.279-25.19-25.192-25.19c-13.911,0-25.19,11.277-25.19,25.19v21.592h-25.189c-13.914,0-25.193,11.279-25.193,25.19
						c0,13.915,11.279,25.191,25.193,25.191h25.189v25.192c0,13.913,11.279,25.19,25.19,25.19c13.913,0,25.192-11.277,25.192-25.19
						V939.42h25.191v-0.26c12.205-1.746,21.59-12.239,21.59-24.932C2738.635,901.539,2729.25,891.045,2717.045,889.298z
						 M2486.726,604.738c0,13.915,11.277,25.191,25.192,25.191h25.188v25.19c0,13.915,11.281,25.192,25.194,25.192
						s25.19-11.277,25.19-25.192v-25.19h25.191v-0.26c12.209-1.747,21.592-12.239,21.592-24.932
						c0-12.689-9.383-23.184-21.592-24.931v-0.26h-25.191v-21.592c0-13.913-11.277-25.191-25.19-25.191
						s-25.194,11.278-25.194,25.191v21.592h-25.188C2498.003,579.548,2486.726,590.826,2486.726,604.738z M2695.453,608.338
						c0,13.914,11.277,25.19,25.188,25.19h25.194v25.192c0,13.913,11.277,25.189,25.188,25.189
						c13.916,0,25.194-11.276,25.194-25.189v-25.192h25.188v-0.26c12.207-1.746,21.594-12.238,21.594-24.931
						s-9.387-23.186-21.594-24.932v-0.26h-25.188v-21.592c0-13.914-11.278-25.191-25.194-25.191
						c-13.91,0-25.188,11.277-25.188,25.191v21.592h-25.194C2706.73,583.146,2695.453,594.424,2695.453,608.338z M2612.682,834.798
						c12.209-1.747,21.592-12.242,21.592-24.931c0-12.692-9.383-23.185-21.592-24.932v-0.26h-25.191v-21.593
						c0-13.913-11.277-25.191-25.19-25.191s-25.194,11.278-25.194,25.191v21.593h-25.188c-13.915,0-25.192,11.276-25.192,25.191
						c0,13.911,11.277,25.19,25.192,25.19h25.188v25.192c0,13.911,11.281,25.189,25.194,25.189s25.19-11.278,25.19-25.189v-25.192
						h25.191V834.798z M2821.406,784.936v-0.26h-25.188v-21.593c0-13.913-11.278-25.191-25.194-25.191
						c-13.91,0-25.188,11.278-25.188,25.191v21.593h-25.194c-13.911,0-25.188,11.276-25.188,25.191
						c0,13.911,11.277,25.19,25.188,25.19h25.194v25.192c0,13.911,11.277,25.189,25.188,25.189
						c13.916,0,25.194-11.278,25.194-25.189v-25.192h25.188v-0.26c12.207-1.746,21.594-12.241,21.594-24.931
						C2843,797.174,2833.613,786.682,2821.406,784.936z M2666.661,784.676c13.913,0,25.192-11.279,25.192-25.19v-25.192h25.191
						v-0.26c12.205-1.747,21.59-12.24,21.59-24.931c0-12.692-9.385-23.186-21.59-24.933v-0.26h-25.191v-21.592
						c0-13.912-11.279-25.191-25.192-25.191c-13.911,0-25.19,11.279-25.19,25.191v21.592h-25.189
						c-13.914,0-25.193,11.277-25.193,25.192c0,13.913,11.279,25.19,25.193,25.19h25.189v25.192
						C2641.471,773.396,2652.75,784.676,2666.661,784.676z M2616.281,529.166h25.189v25.191c0,13.913,11.279,25.19,25.19,25.19
						c13.913,0,25.192-11.277,25.192-25.19v-25.191h25.191v-0.26c12.205-1.747,21.59-12.241,21.59-24.932
						s-9.385-23.185-21.59-24.932v-0.26h-25.191v-21.592c0-13.913-11.279-25.191-25.192-25.191c-13.911,0-25.19,11.278-25.19,25.191
						v21.592h-25.189c-13.914,0-25.193,11.278-25.193,25.191S2602.367,529.166,2616.281,529.166z"/>
				</g>
			</g>
			<g>
				<g>
					<path fill-rule="evenodd" clip-rule="evenodd" fill="#FFE6F4" d="M2873.936,784.676c13.914,0,25.191-11.279,25.191-25.19
						v-25.192h25.19v-0.26c12.208-1.747,21.594-12.24,21.594-24.931c0-12.692-9.386-23.186-21.594-24.933v-0.26h-25.19v-21.592
						c0-13.912-11.277-25.191-25.191-25.191s-25.19,11.279-25.19,25.191v21.592h-25.192c-13.913,0-25.189,11.277-25.189,25.192
						c0,13.913,11.276,25.19,25.189,25.19h25.192v25.192C2848.745,773.396,2860.021,784.676,2873.936,784.676z M2722.789,633.528
						h25.193v25.192c0,13.913,11.275,25.189,25.188,25.189c13.915,0,25.192-11.276,25.192-25.189v-25.192h25.189v-0.26
						c12.207-1.746,21.594-12.239,21.594-24.931s-9.387-23.186-21.594-24.932v-0.26h-25.189v-21.592
						c0-13.914-11.277-25.191-25.192-25.191c-13.913,0-25.188,11.277-25.188,25.191v21.592h-25.193
						c-13.914,0-25.189,11.277-25.189,25.191S2708.875,633.528,2722.789,633.528z M2823.553,529.166h25.192v25.191
						c0,13.913,11.276,25.19,25.19,25.19s25.191-11.277,25.191-25.19v-25.191h25.19v-0.26c12.208-1.747,21.594-12.241,21.594-24.932
						s-9.386-23.185-21.594-24.932v-0.26h-25.19v-21.592c0-13.913-11.277-25.191-25.191-25.191s-25.19,11.278-25.19,25.191v21.592
						h-25.192c-13.913,0-25.189,11.278-25.189,25.191S2809.64,529.166,2823.553,529.166z M2819.955,834.798
						c12.206-1.747,21.594-12.242,21.594-24.931c0-12.692-9.388-23.185-21.594-24.932v-0.26h-25.19v-21.593
						c0-13.913-11.279-25.191-25.192-25.191s-25.189,11.278-25.189,25.191v21.593h-25.193c-13.912,0-25.189,11.276-25.189,25.191
						c0,13.911,11.277,25.19,25.189,25.19h25.193v25.192c0,13.911,11.276,25.189,25.189,25.189s25.192-11.278,25.192-25.189v-25.192
						h25.19V834.798z M2924.317,889.298v-0.26h-25.19v-21.592c0-13.913-11.277-25.19-25.191-25.19s-25.19,11.277-25.19,25.19v21.592
						h-25.192c-13.913,0-25.189,11.279-25.189,25.19c0,13.915,11.276,25.191,25.189,25.191h25.192v25.192
						c0,13.913,11.276,25.19,25.19,25.19s25.191-11.277,25.191-25.19V939.42h25.19v-0.26c12.208-1.746,21.594-12.239,21.594-24.932
						C2945.911,901.539,2936.525,891.045,2924.317,889.298z M3133.045,889.298v-0.26h-25.191v-21.592
						c0-13.913-11.279-25.19-25.192-25.19c-13.911,0-25.19,11.277-25.19,25.19v21.592h-25.189c-13.914,0-25.193,11.279-25.193,25.19
						c0,13.915,11.279,25.191,25.193,25.191h25.189v25.192c0,13.913,11.279,25.19,25.19,25.19c13.913,0,25.192-11.277,25.192-25.19
						V939.42h25.191v-0.26c12.205-1.746,21.59-12.239,21.59-24.932C3154.635,901.539,3145.25,891.045,3133.045,889.298z
						 M2902.726,604.738c0,13.915,11.277,25.191,25.192,25.191h25.188v25.19c0,13.915,11.281,25.192,25.194,25.192
						s25.19-11.277,25.19-25.192v-25.19h25.191v-0.26c12.209-1.747,21.592-12.239,21.592-24.932
						c0-12.689-9.383-23.184-21.592-24.931v-0.26h-25.191v-21.592c0-13.913-11.277-25.191-25.19-25.191
						s-25.194,11.278-25.194,25.191v21.592h-25.188C2914.003,579.548,2902.726,590.826,2902.726,604.738z M3111.453,608.338
						c0,13.914,11.277,25.19,25.188,25.19h25.194v25.192c0,13.913,11.277,25.189,25.188,25.189
						c13.916,0,25.194-11.276,25.194-25.189v-25.192h25.188v-0.26c12.207-1.746,21.594-12.238,21.594-24.931
						s-9.387-23.186-21.594-24.932v-0.26h-25.188v-21.592c0-13.914-11.278-25.191-25.194-25.191
						c-13.91,0-25.188,11.277-25.188,25.191v21.592h-25.194C3122.73,583.146,3111.453,594.424,3111.453,608.338z M3028.682,834.798
						c12.209-1.747,21.592-12.242,21.592-24.931c0-12.692-9.383-23.185-21.592-24.932v-0.26h-25.191v-21.593
						c0-13.913-11.277-25.191-25.19-25.191s-25.194,11.278-25.194,25.191v21.593h-25.188c-13.915,0-25.192,11.276-25.192,25.191
						c0,13.911,11.277,25.19,25.192,25.19h25.188v25.192c0,13.911,11.281,25.189,25.194,25.189s25.19-11.278,25.19-25.189v-25.192
						h25.191V834.798z M3237.406,784.936v-0.26h-25.188v-21.593c0-13.913-11.278-25.191-25.194-25.191
						c-13.91,0-25.188,11.278-25.188,25.191v21.593h-25.194c-13.911,0-25.188,11.276-25.188,25.191
						c0,13.911,11.277,25.19,25.188,25.19h25.194v25.192c0,13.911,11.277,25.189,25.188,25.189
						c13.916,0,25.194-11.278,25.194-25.189v-25.192h25.188v-0.26c12.207-1.746,21.594-12.241,21.594-24.931
						C3259,797.174,3249.613,786.682,3237.406,784.936z M3082.661,784.676c13.913,0,25.192-11.279,25.192-25.19v-25.192h25.191
						v-0.26c12.205-1.747,21.59-12.24,21.59-24.931c0-12.692-9.385-23.186-21.59-24.933v-0.26h-25.191v-21.592
						c0-13.912-11.279-25.191-25.192-25.191c-13.911,0-25.19,11.279-25.19,25.191v21.592h-25.189
						c-13.914,0-25.193,11.277-25.193,25.192c0,13.913,11.279,25.19,25.193,25.19h25.189v25.192
						C3057.471,773.396,3068.75,784.676,3082.661,784.676z M3032.281,529.166h25.189v25.191c0,13.913,11.279,25.19,25.19,25.19
						c13.913,0,25.192-11.277,25.192-25.19v-25.191h25.191v-0.26c12.205-1.747,21.59-12.241,21.59-24.932
						s-9.385-23.185-21.59-24.932v-0.26h-25.191v-21.592c0-13.913-11.279-25.191-25.192-25.191c-13.911,0-25.19,11.278-25.19,25.191
						v21.592h-25.189c-13.914,0-25.193,11.278-25.193,25.191S3018.367,529.166,3032.281,529.166z"/>
				</g>
			</g>
			<g>
				<g>
					<path fill-rule="evenodd" clip-rule="evenodd" fill="#FFE6F4" d="M3081.936,376.676c13.914,0,25.191-11.279,25.191-25.19
						v-25.192h25.19v-0.26c12.208-1.747,21.594-12.24,21.594-24.931c0-12.692-9.386-23.186-21.594-24.933v-0.26h-25.19v-21.592
						c0-13.912-11.277-25.191-25.191-25.191s-25.19,11.279-25.19,25.191v21.592h-25.192c-13.913,0-25.189,11.277-25.189,25.192
						c0,13.913,11.276,25.19,25.189,25.19h25.192v25.192C3056.745,365.396,3068.021,376.676,3081.936,376.676z M2930.789,225.528
						h25.193v25.192c0,13.913,11.275,25.189,25.188,25.189c13.915,0,25.192-11.276,25.192-25.189v-25.192h25.189v-0.26
						c12.207-1.747,21.594-12.239,21.594-24.93c0-12.693-9.387-23.186-21.594-24.932v-0.26h-25.189v-21.592
						c0-13.913-11.277-25.191-25.192-25.191c-13.913,0-25.188,11.278-25.188,25.191v21.592h-25.193
						c-13.914,0-25.189,11.277-25.189,25.192C2905.6,214.251,2916.875,225.528,2930.789,225.528z M3031.553,121.166h25.192v25.192
						c0,13.913,11.276,25.19,25.19,25.19s25.191-11.277,25.191-25.19v-25.192h25.19v-0.26c12.208-1.747,21.594-12.24,21.594-24.931
						s-9.386-23.185-21.594-24.932v-0.26h-25.19V49.191c0-13.913-11.277-25.191-25.191-25.191s-25.19,11.278-25.19,25.191v21.592
						h-25.192c-13.913,0-25.189,11.278-25.189,25.191S3017.64,121.166,3031.553,121.166z M3027.955,426.798
						c12.206-1.747,21.594-12.242,21.594-24.931c0-12.692-9.388-23.185-21.594-24.932v-0.26h-25.19v-21.593
						c0-13.913-11.279-25.191-25.192-25.191s-25.189,11.278-25.189,25.191v21.593h-25.193c-13.912,0-25.189,11.276-25.189,25.191
						c0,13.911,11.277,25.19,25.189,25.19h25.193v25.192c0,13.911,11.276,25.189,25.189,25.189s25.192-11.278,25.192-25.189v-25.192
						h25.19V426.798z M3132.317,481.298v-0.26h-25.19v-21.592c0-13.913-11.277-25.19-25.191-25.19s-25.19,11.277-25.19,25.19v21.592
						h-25.192c-13.913,0-25.189,11.279-25.189,25.19c0,13.915,11.276,25.191,25.189,25.191h25.192v25.192
						c0,13.913,11.276,25.19,25.19,25.19s25.191-11.277,25.191-25.19V531.42h25.19v-0.26c12.208-1.746,21.594-12.239,21.594-24.932
						C3153.911,493.539,3144.525,483.045,3132.317,481.298z M3341.045,481.298v-0.26h-25.191v-21.592
						c0-13.913-11.279-25.19-25.192-25.19c-13.911,0-25.19,11.277-25.19,25.19v21.592h-25.189c-13.914,0-25.193,11.279-25.193,25.19
						c0,13.915,11.279,25.191,25.193,25.191h25.189v25.192c0,13.913,11.279,25.19,25.19,25.19c13.913,0,25.192-11.277,25.192-25.19
						V531.42h25.191v-0.26c12.205-1.746,21.59-12.239,21.59-24.932C3362.635,493.539,3353.25,483.045,3341.045,481.298z
						 M3110.726,196.738c0,13.915,11.277,25.192,25.192,25.192h25.188v25.19c0,13.915,11.281,25.192,25.194,25.192
						s25.19-11.277,25.19-25.192v-25.19h25.191v-0.26c12.209-1.747,21.592-12.239,21.592-24.932c0-12.689-9.383-23.183-21.592-24.93
						v-0.26h-25.191v-21.592c0-13.913-11.277-25.191-25.19-25.191s-25.194,11.278-25.194,25.191v21.592h-25.188
						C3122.003,171.548,3110.726,182.827,3110.726,196.738z M3319.453,200.338c0,13.913,11.277,25.19,25.188,25.19h25.194v25.192
						c0,13.913,11.277,25.189,25.188,25.189c13.916,0,25.194-11.276,25.194-25.189v-25.192h25.188v-0.26
						c12.207-1.746,21.594-12.239,21.594-24.93c0-12.693-9.387-23.186-21.594-24.932v-0.26h-25.188v-21.592
						c0-13.913-11.278-25.191-25.194-25.191c-13.91,0-25.188,11.278-25.188,25.191v21.592h-25.194
						C3330.73,175.146,3319.453,186.423,3319.453,200.338z M3236.682,426.798c12.209-1.747,21.592-12.242,21.592-24.931
						c0-12.692-9.383-23.185-21.592-24.932v-0.26h-25.191v-21.593c0-13.913-11.277-25.191-25.19-25.191
						s-25.194,11.278-25.194,25.191v21.593h-25.188c-13.915,0-25.192,11.276-25.192,25.191c0,13.911,11.277,25.19,25.192,25.19
						h25.188v25.192c0,13.911,11.281,25.189,25.194,25.189s25.19-11.278,25.19-25.189v-25.192h25.191V426.798z M3445.406,376.936
						v-0.26h-25.188v-21.593c0-13.913-11.278-25.191-25.194-25.191c-13.91,0-25.188,11.278-25.188,25.191v21.593h-25.194
						c-13.911,0-25.188,11.276-25.188,25.191c0,13.911,11.277,25.19,25.188,25.19h25.194v25.192
						c0,13.911,11.277,25.189,25.188,25.189c13.916,0,25.194-11.278,25.194-25.189v-25.192h25.188v-0.26
						c12.207-1.746,21.594-12.241,21.594-24.931C3467,389.174,3457.613,378.682,3445.406,376.936z M3290.661,376.676
						c13.913,0,25.192-11.279,25.192-25.19v-25.192h25.191v-0.26c12.205-1.747,21.59-12.24,21.59-24.931
						c0-12.692-9.385-23.186-21.59-24.933v-0.26h-25.191v-21.592c0-13.912-11.279-25.191-25.192-25.191
						c-13.911,0-25.19,11.279-25.19,25.191v21.592h-25.189c-13.914,0-25.193,11.277-25.193,25.192
						c0,13.913,11.279,25.19,25.193,25.19h25.189v25.192C3265.471,365.396,3276.75,376.676,3290.661,376.676z M3240.281,121.166
						h25.189v25.192c0,13.913,11.279,25.19,25.19,25.19c13.913,0,25.192-11.277,25.192-25.19v-25.192h25.191v-0.26
						c12.205-1.747,21.59-12.24,21.59-24.931s-9.385-23.185-21.59-24.932v-0.26h-25.191V49.191
						c0-13.913-11.279-25.191-25.192-25.191c-13.911,0-25.19,11.278-25.19,25.191v21.592h-25.189
						c-13.914,0-25.193,11.278-25.193,25.191S3226.367,121.166,3240.281,121.166z"/>
				</g>
			</g>
			<g>
				<g>
					<path fill-rule="evenodd" clip-rule="evenodd" fill="#FFE6F4" d="M2876.936-31.325c13.914,0,25.191-11.279,25.191-25.19
						v-25.192h25.19v-0.26c12.208-1.747,21.594-12.24,21.594-24.931c0-12.693-9.386-23.186-21.594-24.933v-0.26h-25.19v-21.592
						c0-13.912-11.277-25.191-25.191-25.191s-25.19,11.279-25.19,25.191v21.592h-25.192c-13.913,0-25.189,11.277-25.189,25.192
						c0,13.913,11.276,25.19,25.189,25.19h25.192v25.192C2851.745-42.604,2863.021-31.325,2876.936-31.325z M2725.789-182.472
						h25.193v25.192c0,13.913,11.275,25.189,25.188,25.189c13.915,0,25.192-11.276,25.192-25.189v-25.192h25.189v-0.26
						c12.207-1.747,21.594-12.239,21.594-24.93c0-12.693-9.387-23.186-21.594-24.932v-0.26h-25.189v-21.592
						c0-13.913-11.277-25.191-25.192-25.191c-13.913,0-25.188,11.278-25.188,25.191v21.592h-25.193
						c-13.914,0-25.189,11.277-25.189,25.192C2700.6-193.749,2711.875-182.472,2725.789-182.472z M2826.553-286.835h25.192v25.192
						c0,13.913,11.276,25.19,25.19,25.19s25.191-11.277,25.191-25.19v-25.192h25.19v-0.26c12.208-1.747,21.594-12.24,21.594-24.931
						s-9.386-23.185-21.594-24.931v-0.26h-25.19v-21.592c0-13.913-11.277-25.191-25.191-25.191s-25.19,11.278-25.19,25.191v21.592
						h-25.192c-13.913,0-25.189,11.278-25.189,25.191S2812.64-286.835,2826.553-286.835z M2822.955,18.797
						c12.206-1.747,21.594-12.241,21.594-24.93c0-12.692-9.388-23.185-21.594-24.931v-0.26h-25.19v-21.593
						c0-13.913-11.279-25.191-25.192-25.191s-25.189,11.278-25.189,25.191v21.593h-25.193c-13.912,0-25.189,11.276-25.189,25.191
						c0,13.911,11.277,25.19,25.189,25.19h25.193V44.25c0,13.911,11.276,25.189,25.189,25.189s25.192-11.278,25.192-25.189V19.057
						h25.19V18.797z M2927.317,73.298v-0.26h-25.19V51.446c0-13.913-11.277-25.19-25.191-25.19s-25.19,11.277-25.19,25.19v21.592
						h-25.192c-13.913,0-25.189,11.279-25.189,25.19c0,13.915,11.276,25.191,25.189,25.191h25.192v25.192
						c0,13.913,11.276,25.19,25.19,25.19s25.191-11.277,25.191-25.19v-25.192h25.19v-0.26c12.208-1.747,21.594-12.239,21.594-24.932
						C2948.911,85.539,2939.525,75.044,2927.317,73.298z M3136.045,73.298v-0.26h-25.191V51.446c0-13.913-11.279-25.19-25.192-25.19
						c-13.911,0-25.19,11.277-25.19,25.19v21.592h-25.189c-13.914,0-25.193,11.279-25.193,25.19
						c0,13.915,11.279,25.191,25.193,25.191h25.189v25.192c0,13.913,11.279,25.19,25.19,25.19c13.913,0,25.192-11.277,25.192-25.19
						v-25.192h25.191v-0.26c12.205-1.747,21.59-12.239,21.59-24.932C3157.635,85.539,3148.25,75.044,3136.045,73.298z
						 M2905.726-211.262c0,13.915,11.277,25.192,25.192,25.192h25.188v25.19c0,13.915,11.281,25.192,25.194,25.192
						s25.19-11.277,25.19-25.192v-25.19h25.191v-0.26c12.209-1.747,21.592-12.239,21.592-24.932c0-12.689-9.383-23.183-21.592-24.93
						v-0.26h-25.191v-21.592c0-13.913-11.277-25.191-25.19-25.191s-25.194,11.278-25.194,25.191v21.592h-25.188
						C2917.003-236.453,2905.726-225.174,2905.726-211.262z M3114.453-207.662c0,13.913,11.277,25.19,25.188,25.19h25.194v25.192
						c0,13.913,11.277,25.189,25.188,25.189c13.916,0,25.194-11.276,25.194-25.189v-25.192h25.188v-0.26
						c12.207-1.746,21.594-12.239,21.594-24.93c0-12.693-9.387-23.186-21.594-24.932v-0.26h-25.188v-21.592
						c0-13.913-11.278-25.191-25.194-25.191c-13.91,0-25.188,11.278-25.188,25.191v21.592h-25.194
						C3125.73-232.854,3114.453-221.577,3114.453-207.662z M3031.682,18.797c12.209-1.747,21.592-12.241,21.592-24.93
						c0-12.692-9.383-23.185-21.592-24.931v-0.26h-25.191v-21.593c0-13.913-11.277-25.191-25.19-25.191
						s-25.194,11.278-25.194,25.191v21.593h-25.188c-13.915,0-25.192,11.276-25.192,25.191c0,13.911,11.277,25.19,25.192,25.19
						h25.188V44.25c0,13.911,11.281,25.189,25.194,25.189s25.19-11.278,25.19-25.189V19.057h25.191V18.797z M3240.406-31.065v-0.26
						h-25.188v-21.593c0-13.913-11.278-25.191-25.194-25.191c-13.91,0-25.188,11.278-25.188,25.191v21.593h-25.194
						c-13.911,0-25.188,11.276-25.188,25.191c0,13.911,11.277,25.19,25.188,25.19h25.194V44.25
						c0,13.911,11.277,25.189,25.188,25.189c13.916,0,25.194-11.278,25.194-25.189V19.057h25.188v-0.26
						C3252.613,17.051,3262,6.556,3262-6.133C3262-18.826,3252.613-29.319,3240.406-31.065z M3085.661-31.325
						c13.913,0,25.192-11.279,25.192-25.19v-25.192h25.191v-0.26c12.205-1.747,21.59-12.24,21.59-24.931
						c0-12.693-9.385-23.186-21.59-24.933v-0.26h-25.191v-21.592c0-13.912-11.279-25.191-25.192-25.191
						c-13.911,0-25.19,11.279-25.19,25.191v21.592h-25.189c-13.914,0-25.193,11.277-25.193,25.192
						c0,13.913,11.279,25.19,25.193,25.19h25.189v25.192C3060.471-42.604,3071.75-31.325,3085.661-31.325z M3035.281-286.835h25.189
						v25.192c0,13.913,11.279,25.19,25.19,25.19c13.913,0,25.192-11.277,25.192-25.19v-25.192h25.191v-0.26
						c12.205-1.747,21.59-12.24,21.59-24.931s-9.385-23.185-21.59-24.931v-0.26h-25.191v-21.592
						c0-13.913-11.279-25.191-25.192-25.191c-13.911,0-25.19,11.278-25.19,25.191v21.592h-25.189
						c-13.914,0-25.193,11.278-25.193,25.191S3021.367-286.835,3035.281-286.835z"/>
				</g>
			</g>
			<g>
				<g>
					<path fill-rule="evenodd" clip-rule="evenodd" fill="#FFE6F4" d="M2041.936-31.325c13.914,0,25.191-11.279,25.191-25.19
						v-25.192h25.19v-0.26c12.208-1.747,21.594-12.24,21.594-24.931c0-12.692-9.386-23.186-21.594-24.932v-0.26h-25.19v-21.592
						c0-13.913-11.277-25.192-25.191-25.192s-25.19,11.279-25.19,25.192v21.592h-25.192c-13.913,0-25.189,11.277-25.189,25.192
						c0,13.913,11.276,25.19,25.189,25.19h25.192v25.192C2016.745-42.604,2028.021-31.325,2041.936-31.325z M1890.789-182.472
						h25.193v25.192c0,13.913,11.275,25.19,25.188,25.19c13.915,0,25.192-11.277,25.192-25.19v-25.192h25.189v-0.26
						c12.207-1.747,21.594-12.239,21.594-24.93c0-12.693-9.387-23.186-21.594-24.932v-0.26h-25.189v-21.592
						c0-13.913-11.277-25.191-25.192-25.191c-13.913,0-25.188,11.278-25.188,25.191v21.592h-25.193
						c-13.914,0-25.189,11.277-25.189,25.192C1865.6-193.749,1876.875-182.472,1890.789-182.472z M1991.553-286.835h25.192v25.192
						c0,13.913,11.276,25.19,25.19,25.19s25.191-11.277,25.191-25.19v-25.192h25.19v-0.26c12.208-1.747,21.594-12.24,21.594-24.931
						s-9.386-23.185-21.594-24.931v-0.26h-25.19v-21.592c0-13.913-11.277-25.191-25.191-25.191s-25.19,11.278-25.19,25.191v21.592
						h-25.192c-13.913,0-25.189,11.278-25.189,25.191S1977.64-286.835,1991.553-286.835z M1987.955,18.797
						c12.206-1.747,21.594-12.241,21.594-24.93c0-12.692-9.388-23.185-21.594-24.931v-0.26h-25.19v-21.593
						c0-13.913-11.279-25.191-25.192-25.191s-25.189,11.279-25.189,25.191v21.593h-25.193c-13.912,0-25.189,11.276-25.189,25.191
						c0,13.911,11.277,25.19,25.189,25.19h25.193V44.25c0,13.911,11.276,25.189,25.189,25.189s25.192-11.278,25.192-25.189V19.057
						h25.19V18.797z M2092.317,73.298v-0.26h-25.19V51.446c0-13.913-11.277-25.19-25.191-25.19s-25.19,11.277-25.19,25.19v21.592
						h-25.192c-13.913,0-25.189,11.279-25.189,25.19c0,13.915,11.276,25.191,25.189,25.191h25.192v25.192
						c0,13.913,11.276,25.19,25.19,25.19s25.191-11.277,25.191-25.19v-25.192h25.19v-0.26c12.208-1.747,21.594-12.239,21.594-24.932
						C2113.911,85.539,2104.525,75.044,2092.317,73.298z M2301.045,73.298v-0.26h-25.191V51.446c0-13.913-11.279-25.19-25.192-25.19
						c-13.911,0-25.19,11.277-25.19,25.19v21.592h-25.189c-13.914,0-25.193,11.279-25.193,25.19
						c0,13.915,11.279,25.191,25.193,25.191h25.189v25.192c0,13.913,11.279,25.19,25.19,25.19c13.913,0,25.192-11.277,25.192-25.19
						v-25.192h25.191v-0.26c12.205-1.747,21.59-12.239,21.59-24.932C2322.635,85.539,2313.25,75.044,2301.045,73.298z
						 M2070.726-211.262c0,13.915,11.277,25.192,25.192,25.192h25.188v25.19c0,13.915,11.281,25.192,25.194,25.192
						s25.19-11.277,25.19-25.192v-25.19h25.191v-0.26c12.209-1.747,21.592-12.239,21.592-24.932c0-12.689-9.383-23.183-21.592-24.93
						v-0.26h-25.191v-21.592c0-13.913-11.277-25.191-25.19-25.191s-25.194,11.278-25.194,25.191v21.592h-25.188
						C2082.003-236.453,2070.726-225.174,2070.726-211.262z M2279.453-207.662c0,13.913,11.277,25.19,25.188,25.19h25.194v25.192
						c0,13.913,11.277,25.19,25.188,25.19c13.916,0,25.194-11.277,25.194-25.19v-25.192h25.188v-0.26
						c12.207-1.746,21.594-12.239,21.594-24.93c0-12.693-9.387-23.186-21.594-24.932v-0.26h-25.188v-21.592
						c0-13.913-11.278-25.191-25.194-25.191c-13.91,0-25.188,11.278-25.188,25.191v21.592h-25.194
						C2290.73-232.854,2279.453-221.577,2279.453-207.662z M2196.682,18.797c12.209-1.747,21.592-12.241,21.592-24.93
						c0-12.692-9.383-23.185-21.592-24.931v-0.26h-25.191v-21.593c0-13.913-11.277-25.191-25.19-25.191
						s-25.194,11.279-25.194,25.191v21.593h-25.188c-13.915,0-25.192,11.276-25.192,25.191c0,13.911,11.277,25.19,25.192,25.19
						h25.188V44.25c0,13.911,11.281,25.189,25.194,25.189s25.19-11.278,25.19-25.189V19.057h25.191V18.797z M2405.406-31.065v-0.26
						h-25.188v-21.593c0-13.913-11.278-25.191-25.194-25.191c-13.91,0-25.188,11.279-25.188,25.191v21.593h-25.194
						c-13.911,0-25.188,11.276-25.188,25.191c0,13.911,11.277,25.19,25.188,25.19h25.194V44.25
						c0,13.911,11.277,25.189,25.188,25.189c13.916,0,25.194-11.278,25.194-25.189V19.057h25.188v-0.26
						C2417.613,17.051,2427,6.556,2427-6.133C2427-18.826,2417.613-29.319,2405.406-31.065z M2250.661-31.325
						c13.913,0,25.192-11.279,25.192-25.19v-25.192h25.191v-0.26c12.205-1.747,21.59-12.24,21.59-24.931
						c0-12.692-9.385-23.186-21.59-24.932v-0.26h-25.191v-21.592c0-13.913-11.279-25.192-25.192-25.192
						c-13.911,0-25.19,11.279-25.19,25.192v21.592h-25.189c-13.914,0-25.193,11.277-25.193,25.192
						c0,13.913,11.279,25.19,25.193,25.19h25.189v25.192C2225.471-42.604,2236.75-31.325,2250.661-31.325z M2200.281-286.835h25.189
						v25.192c0,13.913,11.279,25.19,25.19,25.19c13.913,0,25.192-11.277,25.192-25.19v-25.192h25.191v-0.26
						c12.205-1.747,21.59-12.24,21.59-24.931s-9.385-23.185-21.59-24.931v-0.26h-25.191v-21.592
						c0-13.913-11.279-25.191-25.192-25.191c-13.911,0-25.19,11.278-25.19,25.191v21.592h-25.189
						c-13.914,0-25.193,11.278-25.193,25.191S2186.367-286.835,2200.281-286.835z"/>
				</g>
			</g>
			<g>
				<g>
					<path fill-rule="evenodd" clip-rule="evenodd" fill="#FFE6F4" d="M1937.936,272.676c13.914,0,25.191-11.279,25.191-25.191
						v-25.192h25.19v-0.26c12.208-1.747,21.594-12.24,21.594-24.931c0-12.692-9.386-23.186-21.594-24.932v-0.26h-25.19v-21.592
						c0-13.913-11.277-25.192-25.191-25.192s-25.19,11.279-25.19,25.192v21.592h-25.192c-13.913,0-25.189,11.277-25.189,25.192
						c0,13.913,11.276,25.19,25.189,25.19h25.192v25.192C1912.745,261.396,1924.021,272.676,1937.936,272.676z M1786.789,121.528
						h25.193v25.192c0,13.913,11.275,25.19,25.188,25.19c13.915,0,25.192-11.277,25.192-25.19v-25.192h25.189v-0.26
						c12.207-1.747,21.594-12.239,21.594-24.93c0-12.693-9.387-23.186-21.594-24.932v-0.26h-25.189V49.554
						c0-13.913-11.277-25.191-25.192-25.191c-13.913,0-25.188,11.278-25.188,25.191v21.592h-25.193
						c-13.914,0-25.189,11.277-25.189,25.192C1761.6,110.251,1772.875,121.528,1786.789,121.528z M1887.553,17.165h25.192v25.192
						c0,13.913,11.276,25.19,25.19,25.19s25.191-11.277,25.191-25.19V17.165h25.19v-0.26c12.208-1.747,21.594-12.24,21.594-24.931
						s-9.386-23.185-21.594-24.931v-0.26h-25.19v-21.592c0-13.913-11.277-25.191-25.191-25.191s-25.19,11.278-25.19,25.191v21.592
						h-25.192c-13.913,0-25.189,11.278-25.189,25.191S1873.64,17.165,1887.553,17.165z M1883.955,322.797
						c12.206-1.747,21.594-12.242,21.594-24.93c0-12.693-9.388-23.185-21.594-24.932v-0.26h-25.19v-21.594
						c0-13.912-11.279-25.191-25.192-25.191s-25.189,11.279-25.189,25.191v21.594h-25.193c-13.912,0-25.189,11.275-25.189,25.191
						c0,13.91,11.277,25.189,25.189,25.189h25.193v25.193c0,13.91,11.276,25.189,25.189,25.189s25.192-11.279,25.192-25.189v-25.193
						h25.19V322.797z M1988.317,377.297v-0.26h-25.19v-21.592c0-13.912-11.277-25.189-25.191-25.189s-25.19,11.277-25.19,25.189
						v21.592h-25.192c-13.913,0-25.189,11.279-25.189,25.191c0,13.914,11.276,25.191,25.189,25.191h25.192v25.191
						c0,13.914,11.276,25.191,25.19,25.191s25.191-11.277,25.191-25.191V427.42h25.19v-0.26
						c12.208-1.747,21.594-12.24,21.594-24.932C2009.911,389.539,2000.525,379.044,1988.317,377.297z M2197.045,377.297v-0.26
						h-25.191v-21.592c0-13.912-11.279-25.189-25.192-25.189c-13.911,0-25.19,11.277-25.19,25.189v21.592h-25.189
						c-13.914,0-25.193,11.279-25.193,25.191c0,13.914,11.279,25.191,25.193,25.191h25.189v25.191
						c0,13.914,11.279,25.191,25.19,25.191c13.913,0,25.192-11.277,25.192-25.191V427.42h25.191v-0.26
						c12.205-1.747,21.59-12.24,21.59-24.932C2218.635,389.539,2209.25,379.044,2197.045,377.297z M1966.726,92.738
						c0,13.915,11.277,25.192,25.192,25.192h25.188v25.19c0,13.915,11.281,25.192,25.194,25.192s25.19-11.277,25.19-25.192v-25.19
						h25.191v-0.26c12.209-1.747,21.592-12.239,21.592-24.932c0-12.689-9.383-23.183-21.592-24.93v-0.26h-25.191V45.956
						c0-13.913-11.277-25.191-25.19-25.191s-25.194,11.278-25.194,25.191v21.592h-25.188
						C1978.003,67.547,1966.726,78.826,1966.726,92.738z M2175.453,96.338c0,13.913,11.277,25.19,25.188,25.19h25.194v25.192
						c0,13.913,11.277,25.19,25.188,25.19c13.916,0,25.194-11.277,25.194-25.19v-25.192h25.188v-0.26
						c12.207-1.746,21.594-12.239,21.594-24.93c0-12.693-9.387-23.186-21.594-24.932v-0.26h-25.188V49.554
						c0-13.913-11.278-25.191-25.194-25.191c-13.91,0-25.188,11.278-25.188,25.191v21.592h-25.194
						C2186.73,71.146,2175.453,82.423,2175.453,96.338z M2092.682,322.797c12.209-1.747,21.592-12.242,21.592-24.93
						c0-12.693-9.383-23.185-21.592-24.932v-0.26h-25.191v-21.594c0-13.912-11.277-25.191-25.19-25.191
						s-25.194,11.279-25.194,25.191v21.594h-25.188c-13.915,0-25.192,11.275-25.192,25.191c0,13.91,11.277,25.189,25.192,25.189
						h25.188v25.193c0,13.91,11.281,25.189,25.194,25.189s25.19-11.279,25.19-25.189v-25.193h25.191V322.797z M2301.406,272.936
						v-0.26h-25.188v-21.594c0-13.912-11.278-25.191-25.194-25.191c-13.91,0-25.188,11.279-25.188,25.191v21.594h-25.194
						c-13.911,0-25.188,11.275-25.188,25.191c0,13.91,11.277,25.189,25.188,25.189h25.194v25.193
						c0,13.91,11.277,25.189,25.188,25.189c13.916,0,25.194-11.279,25.194-25.189v-25.193h25.188v-0.26
						c12.207-1.746,21.594-12.241,21.594-24.93C2323,285.173,2313.613,274.682,2301.406,272.936z M2146.661,272.676
						c13.913,0,25.192-11.279,25.192-25.191v-25.192h25.191v-0.26c12.205-1.747,21.59-12.24,21.59-24.931
						c0-12.692-9.385-23.186-21.59-24.932v-0.26h-25.191v-21.592c0-13.913-11.279-25.192-25.192-25.192
						c-13.911,0-25.19,11.279-25.19,25.192v21.592h-25.189c-13.914,0-25.193,11.277-25.193,25.192
						c0,13.913,11.279,25.19,25.193,25.19h25.189v25.192C2121.471,261.396,2132.75,272.676,2146.661,272.676z M2096.281,17.165
						h25.189v25.192c0,13.913,11.279,25.19,25.19,25.19c13.913,0,25.192-11.277,25.192-25.19V17.165h25.191v-0.26
						c12.205-1.747,21.59-12.24,21.59-24.931s-9.385-23.185-21.59-24.931v-0.26h-25.191v-21.592
						c0-13.913-11.279-25.191-25.192-25.191c-13.911,0-25.19,11.278-25.19,25.191v21.592h-25.189
						c-13.914,0-25.193,11.278-25.193,25.191S2082.367,17.165,2096.281,17.165z"/>
				</g>
			</g>
			<g>
				<g>
					<path fill-rule="evenodd" clip-rule="evenodd" fill="#FFE6F4" d="M1836.936,786.873c13.914,0,25.191-11.279,25.191-25.19
						V736.49h25.19v-0.26c12.208-1.747,21.594-12.24,21.594-24.931c0-12.692-9.386-23.186-21.594-24.933v-0.26h-25.19v-21.592
						c0-13.912-11.277-25.191-25.191-25.191s-25.19,11.279-25.19,25.191v21.592h-25.192c-13.913,0-25.189,11.277-25.189,25.192
						c0,13.913,11.276,25.19,25.189,25.19h25.192v25.192C1811.745,775.594,1823.021,786.873,1836.936,786.873z M1685.789,635.726
						h25.193v25.192c0,13.913,11.275,25.189,25.188,25.189c13.915,0,25.192-11.276,25.192-25.189v-25.192h25.189v-0.26
						c12.207-1.746,21.594-12.239,21.594-24.931s-9.387-23.186-21.594-24.932v-0.26h-25.189v-21.592
						c0-13.914-11.277-25.191-25.192-25.191c-13.913,0-25.188,11.277-25.188,25.191v21.592h-25.193
						c-13.914,0-25.189,11.277-25.189,25.191S1671.875,635.726,1685.789,635.726z M1786.553,531.363h25.192v25.191
						c0,13.913,11.276,25.19,25.19,25.19s25.191-11.277,25.191-25.19v-25.191h25.19v-0.26c12.208-1.747,21.594-12.241,21.594-24.932
						s-9.386-23.185-21.594-24.932v-0.26h-25.19v-21.592c0-13.913-11.277-25.191-25.191-25.191s-25.19,11.278-25.19,25.191v21.592
						h-25.192c-13.913,0-25.189,11.278-25.189,25.191S1772.64,531.363,1786.553,531.363z M1782.955,836.995
						c12.206-1.747,21.594-12.242,21.594-24.931c0-12.692-9.388-23.185-21.594-24.932v-0.26h-25.19V765.28
						c0-13.913-11.279-25.191-25.192-25.191s-25.189,11.278-25.189,25.191v21.593h-25.193c-13.912,0-25.189,11.276-25.189,25.191
						c0,13.911,11.277,25.19,25.189,25.19h25.193v25.192c0,13.911,11.276,25.189,25.189,25.189s25.192-11.278,25.192-25.189v-25.192
						h25.19V836.995z M1887.317,891.495v-0.26h-25.19v-21.592c0-13.913-11.277-25.19-25.191-25.19s-25.19,11.277-25.19,25.19v21.592
						h-25.192c-13.913,0-25.189,11.279-25.189,25.19c0,13.915,11.276,25.191,25.189,25.191h25.192v25.192
						c0,13.913,11.276,25.19,25.19,25.19s25.191-11.277,25.191-25.19v-25.192h25.19v-0.26c12.208-1.746,21.594-12.239,21.594-24.932
						C1908.911,903.736,1899.525,893.242,1887.317,891.495z M2096.045,891.495v-0.26h-25.191v-21.592
						c0-13.913-11.279-25.19-25.192-25.19c-13.911,0-25.19,11.277-25.19,25.19v21.592h-25.189c-13.914,0-25.193,11.279-25.193,25.19
						c0,13.915,11.279,25.191,25.193,25.191h25.189v25.192c0,13.913,11.279,25.19,25.19,25.19c13.913,0,25.192-11.277,25.192-25.19
						v-25.192h25.191v-0.26c12.205-1.746,21.59-12.239,21.59-24.932C2117.635,903.736,2108.25,893.242,2096.045,891.495z
						 M1865.726,606.936c0,13.915,11.277,25.191,25.192,25.191h25.188v25.19c0,13.915,11.281,25.192,25.194,25.192
						s25.19-11.277,25.19-25.192v-25.19h25.191v-0.26c12.209-1.747,21.592-12.239,21.592-24.932
						c0-12.689-9.383-23.184-21.592-24.931v-0.26h-25.191v-21.592c0-13.913-11.277-25.191-25.19-25.191
						s-25.194,11.278-25.194,25.191v21.592h-25.188C1877.003,581.745,1865.726,593.023,1865.726,606.936z M2074.453,610.535
						c0,13.914,11.277,25.19,25.188,25.19h25.194v25.192c0,13.913,11.277,25.189,25.188,25.189
						c13.916,0,25.194-11.276,25.194-25.189v-25.192h25.188v-0.26c12.207-1.746,21.594-12.238,21.594-24.931
						s-9.387-23.186-21.594-24.932v-0.26h-25.188v-21.592c0-13.914-11.278-25.191-25.194-25.191
						c-13.91,0-25.188,11.277-25.188,25.191v21.592h-25.194C2085.73,585.344,2074.453,596.621,2074.453,610.535z M1991.682,836.995
						c12.209-1.747,21.592-12.242,21.592-24.931c0-12.692-9.383-23.185-21.592-24.932v-0.26h-25.191V765.28
						c0-13.913-11.277-25.191-25.19-25.191s-25.194,11.278-25.194,25.191v21.593h-25.188c-13.915,0-25.192,11.276-25.192,25.191
						c0,13.911,11.277,25.19,25.192,25.19h25.188v25.192c0,13.911,11.281,25.189,25.194,25.189s25.19-11.278,25.19-25.189v-25.192
						h25.191V836.995z M2200.406,787.133v-0.26h-25.188V765.28c0-13.913-11.278-25.191-25.194-25.191
						c-13.91,0-25.188,11.278-25.188,25.191v21.593h-25.194c-13.911,0-25.188,11.276-25.188,25.191
						c0,13.911,11.277,25.19,25.188,25.19h25.194v25.192c0,13.911,11.277,25.189,25.188,25.189
						c13.916,0,25.194-11.278,25.194-25.189v-25.192h25.188v-0.26c12.207-1.746,21.594-12.241,21.594-24.931
						C2222,799.371,2212.613,788.879,2200.406,787.133z M2045.661,786.873c13.913,0,25.192-11.279,25.192-25.19V736.49h25.191v-0.26
						c12.205-1.747,21.59-12.24,21.59-24.931c0-12.692-9.385-23.186-21.59-24.933v-0.26h-25.191v-21.592
						c0-13.912-11.279-25.191-25.192-25.191c-13.911,0-25.19,11.279-25.19,25.191v21.592h-25.189
						c-13.914,0-25.193,11.277-25.193,25.192c0,13.913,11.279,25.19,25.193,25.19h25.189v25.192
						C2020.471,775.594,2031.75,786.873,2045.661,786.873z M1995.281,531.363h25.189v25.191c0,13.913,11.279,25.19,25.19,25.19
						c13.913,0,25.192-11.277,25.192-25.19v-25.191h25.191v-0.26c12.205-1.747,21.59-12.241,21.59-24.932
						s-9.385-23.185-21.59-24.932v-0.26h-25.191v-21.592c0-13.913-11.279-25.191-25.192-25.191c-13.911,0-25.19,11.278-25.19,25.191
						v21.592h-25.189c-13.914,0-25.193,11.278-25.193,25.191S1981.367,531.363,1995.281,531.363z"/>
				</g>
			</g>
		</g>
	</g>
</g>
<g id="Layer_5">
	<g>
		<rect x="1910" y="-416" fill="none" width="1029.004" height="1025.179"/>
	</g>
</g>
</svg>
