<?xml version="1.0" encoding="utf-8"?>
<!-- Generator: Adobe Illustrator 18.1.1, SVG Export Plug-In . SVG Version: 6.00 Build 0)  -->
<svg version="1.1" id="Layer_3" xmlns="http://www.w3.org/2000/svg" xmlns:xlink="http://www.w3.org/1999/xlink" x="0px" y="0px"
	 width="685.3px" height="259.8px" viewBox="0 0 685.3 259.8" enable-background="new 0 0 685.3 259.8" xml:space="preserve">
<g>
	<path fill="#FFFFFF" d="M4.1,109.8C6.8,103,10.9,96.7,16.3,91c5.4-5.7,11.9-10.5,19.7-14.2c7.8-3.8,16.8-5.6,27-5.6
		c6.5,0,12.4,0.7,17.7,2c5.3,1.4,9.9,3.3,13.7,5.8c3.8,2.5,6.8,5.5,9,9c2.1,3.5,3.2,7.4,3.2,11.6c0,5.6-1.5,9.6-4.4,11.9
		c-2.9,2.3-7,3.5-12.3,3.5c-3.9,0-7.6-0.7-10.9-2.2c-3.3-1.4-5-4.5-5-9.1c0-0.7,0.2-1.9,0.6-3.6c0.4-1.7,0.9-3.5,1.3-5.4
		c0.4-1.9,0.9-3.7,1.3-5.4c0.4-1.7,0.6-2.9,0.6-3.6c0-3.4-1.5-6.1-4.5-8.1c-3-2-6.7-2.9-11.1-2.9c-6.1,0-11,1.5-14.6,4.4
		c-3.6,2.9-6.4,6.8-8.3,11.6c-2,4.9-3.2,10.5-3.8,16.9c-0.6,6.4-0.9,13.2-0.9,20.4c0,6.7,0.3,13.3,0.8,20c0.5,6.7,1.9,12.7,4.1,18.2
		c2.2,5.5,5.5,9.9,9.7,13.3c4.3,3.4,10.1,5.1,17.4,5.1c7,0,12.9-1.2,17.7-3.7c4.8-2.5,8.6-5.4,11.5-8.7c2.9-3.3,5.1-6.7,6.5-10
		c1.4-3.3,2.3-5.8,2.7-7.3l3.6,1.3c-0.9,3.1-2.2,6.4-4,10.1c-1.8,3.7-4.4,7.1-7.8,10.2c-3.4,3.2-7.8,5.8-13.2,8.1
		s-12.2,3.3-20.4,3.3c-2.2,0-5.3-0.2-9.3-0.6c-4-0.4-8.4-1.4-13.1-2.8c-4.7-1.4-9.4-3.5-14.2-6c-4.8-2.6-9.2-6-13.2-10.4
		c-4-4.4-7.3-9.7-9.7-16C1.2,145.8,0,138.2,0,129.5C0,123.2,1.4,116.7,4.1,109.8z"/>
	<path fill="#FFFFFF" d="M157.3,0v181h17.2v3.6H109V181h17.2V3.6H109V0H157.3z"/>
	<path fill="#FFFFFF" d="M208.6,131.8c0,6.1,0.3,12.3,0.8,18.6c0.5,6.2,1.9,11.9,4.1,16.9c2.2,5,5.5,9.2,9.7,12.4
		c4.3,3.2,10.2,4.9,17.9,4.9c6.8,0,12.6-1.3,17.3-3.8c4.7-2.6,8.5-5.5,11.5-8.8c3-3.3,5.2-6.6,6.7-9.9c1.4-3.2,2.3-5.6,2.4-7.2
		l3.6,1.3c-0.9,3.2-2.3,6.7-4.4,10.4c-2,3.7-4.9,7.1-8.4,10.2c-3.6,3.2-8,5.8-13.3,7.9c-5.3,2.1-11.7,3.2-19.2,3.2
		c-8.9,0-17.2-1.3-24.8-4c-7.7-2.6-14.4-6.5-20.1-11.5c-5.7-5-10.2-11.2-13.4-18.4c-3.2-7.3-4.9-15.5-4.9-24.7
		c0-7.3,1.5-14.5,4.6-21.5c3.1-7,7.3-13.2,12.7-18.6c5.4-5.4,11.7-9.7,18.9-13.1c7.3-3.3,15.1-5,23.4-5c6,0,11.9,0.9,17.9,2.8
		c6,1.9,11.3,4.8,16.1,8.7c4.8,3.9,8.7,9,11.8,15.2c3.1,6.2,4.6,13.7,4.6,22.4h-75.5V131.8z M249.6,99.6c0-1.9-0.1-4.2-0.3-6.9
		c-0.2-2.7-0.8-5.5-1.8-8.2c-1-2.7-2.7-5-5-6.9c-2.3-1.9-5.5-2.8-9.6-2.8c-5.8,0-10.3,1.4-13.4,4.1c-3.2,2.7-5.5,6.2-7,10.4
		c-1.5,4.2-2.5,8.7-2.9,13.6c-0.4,4.9-0.7,9.5-0.9,14h41V99.6z"/>
	<path fill="#FFFFFF" d="M334.8,74.8v21.5h0.5c3.1-6.5,7.2-12.1,12.4-16.8c5.2-4.7,12.1-7,20.6-7c7.2,0,13,1.9,17.4,5.8
		c4.4,3.8,6.7,9.2,6.7,16c0,5.1-1.2,9.1-3.7,12c-2.5,2.9-6.4,4.4-11.9,4.4c-3.9,0-7.5-0.8-10.8-2.4c-3.2-1.6-4.9-4.6-4.9-9.1
		c0-0.5,0.1-1.4,0.3-2.7c0.2-1.3,0.4-2.6,0.6-4.1c0.3-1.4,0.5-2.8,0.6-4c0.2-1.2,0.3-1.9,0.3-2c-0.2-1.4-0.4-2.4-0.8-3.2
		c-0.3-0.8-0.9-1.4-1.7-2c-0.8-0.6-1.9-0.9-3.5-0.9c-1.7,0-3.8,0.8-6.4,2.4c-2.6,1.6-5,4-7.2,7c-2.2,3.1-4.1,6.8-5.8,11.1
		c-1.6,4.4-2.4,9.3-2.4,14.7V181h20.2v3.6h-68.1V181h16.6V78.3h-16.6v-3.6H334.8z"/>
	<path fill="#FFFFFF" d="M383.6,156.2c3.6-3.6,7.8-5.4,12.8-5.4c4.9,0,9.2,1.8,12.8,5.4s5.4,7.9,5.4,12.8c0,5-1.8,9.2-5.4,12.7
		c-3.6,3.5-7.9,5.2-12.8,5.2c-5,0-9.2-1.8-12.8-5.2c-3.6-3.5-5.4-7.7-5.4-12.7C378.2,164,380,159.7,383.6,156.2z"/>
	<path fill="#FFFFFF" d="M513,168.3c5.9,1.3,11,3.5,15.5,6.5c4.4,3.1,8,7.2,10.8,12.4c2.7,5.2,4.1,11.7,4.1,19.6
		c0,6.7-1.4,13.1-4.1,19.5c-2.7,6.3-6.7,11.9-12,16.9c-5.3,4.9-11.6,9-19.1,12s-15.9,4.6-25.5,4.6c-10.8,0-19.3-1.2-25.7-3.6
		c-6.4-2.4-11.3-5.2-14.7-8.6c-3.4-3.3-5.6-6.7-6.7-10.2c-1-3.5-1.5-6.4-1.5-8.8c0-4.6,1-8.7,3.1-12.3c2-3.6,4.7-6.7,8.1-9.3
		c3.3-2.6,7-4.9,11-6.8c4-1.9,8-3.3,11.9-4.4v-0.5c-3.4,0-7.3-0.4-11.6-1.3c-4.4-0.9-8.4-2.3-12.2-4.4c-3.8-2-6.9-4.9-9.5-8.4
		c-2.6-3.6-3.8-8-3.8-13.3c0-0.9,0.2-2.4,0.6-4.6c0.4-2.2,1.4-4.8,2.9-7.8c1.5-3,3.9-6.1,7-9.3c3.2-3.2,7.4-6.3,12.7-9.2
		c-1.5-1.2-3.2-2.6-5.1-4.2c-1.9-1.6-3.6-3.5-5.2-5.6c-1.6-2.1-3-4.6-4.1-7.4c-1.1-2.8-1.7-6.1-1.7-9.9c0-5.3,1.2-10.3,3.5-15
		c2.3-4.7,5.6-8.8,9.9-12.3c4.3-3.5,9.5-6.3,15.7-8.3c6.2-2,13.2-3.1,20.9-3.1c7.7,0,14.3,1.2,19.8,3.6c5.5,2.4,10.3,5.1,14.2,8.2
		c4.3-3.9,8.1-6.9,11.5-8.8c3.4-2,7.9-2.9,13.6-2.9c4.9,0,8.7,1.2,11.1,3.7c2.5,2.5,3.7,5.7,3.7,9.6c0,3.4-1,6.1-3.1,8.1
		c-2,2-4.8,2.9-8.2,2.9c-2.4,0-4.3-0.3-5.8-1c-1.5-0.7-2.6-1.5-3.3-2.4c-0.8-0.9-1.3-2-1.5-3.1c-0.3-1.1-0.5-2-0.6-2.7
		c-0.3-2.4-0.7-4.2-1-5.4c-0.3-1.2-1.5-1.8-3.3-1.8c-1,0-2.2,0.4-3.6,1.2c-1.4,0.8-3.8,2.3-7.2,4.7c2,2.2,4.3,5.2,6.7,8.8
		c2.4,3.7,3.6,9,3.6,16c0,4.3-0.8,8.5-2.4,12.7c-1.6,4.2-4.3,8-7.9,11.4c-3.7,3.4-8.4,6.2-14.2,8.3c-5.8,2.1-13,3.2-21.5,3.2
		c-6.8,0-12.9-0.7-18.2-2c-5.3-1.4-9.6-2.7-13.1-4.1c-5,3.2-7.9,6-8.7,8.3c-0.9,2.3-1.3,4.4-1.3,6.3c0,4.3,1.7,7.4,5.1,9.5
		c3.4,2,8,3.1,13.8,3.1h28.2C500.9,166.4,507.1,167,513,168.3z M458.4,234.5c0.9,3.6,2.5,7,4.9,10.1c2.4,3.2,5.6,5.8,9.7,7.8
		c4.1,2,9.4,3.1,15.9,3.1c4.9,0,9.6-0.9,14.1-2.6c4.4-1.7,8.3-4.1,11.6-7.2c3.3-3.1,6-6.7,8.1-11c2-4.3,3.1-9,3.1-14.1
		s-0.9-9.3-2.6-12.4c-1.7-3.2-3.8-5.7-6.4-7.6c-2.6-1.9-5.4-3.2-8.4-3.8c-3.1-0.7-5.9-1-8.4-1h-26.6c-5.1,4.1-9.1,8.2-11.9,12.3
		c-2.8,4.1-4.2,9.6-4.2,16.4C457.1,227.6,457.5,230.9,458.4,234.5z M495,140.7c2.4-0.8,4.4-2.3,6.1-4.6c1.7-2.3,3-5.6,4-10
		c0.9-4.4,1.4-10,1.4-17c0-4.9-0.2-9.5-0.5-13.7c-0.3-4.2-1.2-7.8-2.6-10.9c-1.4-3.1-3.3-5.5-5.9-7.2c-2.6-1.7-6.1-2.6-10.8-2.6
		c-4.3,0-7.8,0.9-10.5,2.7c-2.7,1.8-4.8,4.1-6.3,7c-1.5,2.9-2.4,6.2-2.9,10c-0.5,3.8-0.8,7.6-0.8,11.5c0,8,0.5,14.4,1.5,19.2
		c1,4.8,2.4,8.4,4.2,10.9c1.8,2.5,4,4.1,6.5,4.7c2.6,0.7,5.3,1,8.2,1C489.8,141.8,492.6,141.4,495,140.7z"/>
	<path fill="#FFFFFF" d="M669.4,78.3h-21.2v-3.6h37.1v3.6h-11.8c-9.6,20.5-17.8,38.8-24.6,55c-6.8,16.2-12.8,30.6-17.8,43.3
		c-5,12.6-9.5,23.8-13.3,33.4c-3.8,9.6-7.5,18.1-10.9,25.5c-3.4,7.7-7.3,13.3-11.5,16.9c-4.3,3.6-10,5.4-17.2,5.4
		c-7.7,0-14-1.8-18.8-5.5c-4.9-3.7-7.3-8.7-7.3-15.2c0-5,1.6-8.5,4.7-10.8c3.2-2.2,7-3.3,11.4-3.3c3.2,0,6.3,0.9,9.2,2.7
		c2.9,1.8,4.4,4.5,4.4,8.1c0,3.1-0.6,5.5-1.7,7.4c-1.1,1.9-1.7,4.1-1.7,6.7c0,1.9,0.5,3.3,1.5,4.2c1,0.9,2.2,1.4,3.6,1.4
		c3.1,0,5.9-1.1,8.6-3.3c2.6-2.2,5-5,7.2-8.3c2.1-3.3,4-6.9,5.6-10.6c1.6-3.8,3-7.2,4.2-10.2l11-27.4L572.1,78.3h-13.6v-3.6h65v3.6
		h-17.9l31.2,74L669.4,78.3z"/>
</g>
<g>
	<path fill="#FFFFFF" d="M40.5,237.1c-0.5,0.6-1.1,1.1-1.7,1.6c-0.7,0.5-1.4,0.9-2.3,1.2c-0.9,0.3-1.8,0.5-2.9,0.5
		c-1.1,0-2.1-0.2-3-0.6c-0.9-0.4-1.6-0.9-2.2-1.5c-0.6-0.6-1.1-1.4-1.4-2.2c-0.3-0.8-0.5-1.7-0.5-2.7c0-1.6,0.4-3.2,1.1-4.8
		c0.7-1.6,1.7-3.1,2.9-4.5c1.2-1.4,2.6-2.5,4.2-3.4c1.6-0.9,3.2-1.3,4.9-1.3c0.5,0,1,0.1,1.5,0.2c0.5,0.1,1,0.3,1.4,0.6
		c0.4,0.3,0.7,0.7,1,1.1c0.3,0.5,0.4,1.1,0.4,1.8c0,1-0.3,1.7-0.8,2c-0.5,0.3-1,0.5-1.6,0.5c-0.6,0-0.9-0.1-1.1-0.3
		c-0.2-0.2-0.3-0.5-0.3-0.8c0-0.4,0.1-0.7,0.2-0.9c0.1-0.2,0.3-0.4,0.4-0.6c0.2-0.2,0.3-0.4,0.4-0.6c0.1-0.2,0.2-0.5,0.2-0.9
		c0-0.5-0.2-0.8-0.5-1c-0.4-0.2-0.8-0.3-1.4-0.3c-1,0-1.9,0.2-2.8,0.7c-0.9,0.5-1.6,1.1-2.4,2c-0.7,0.8-1.4,1.7-1.9,2.8
		c-0.6,1-1,2.1-1.4,3.2c-0.4,1.1-0.7,2.2-0.9,3.3c-0.2,1.1-0.3,2.1-0.3,2.9c0,1.3,0.4,2.4,1.1,3.4c0.8,0.9,1.9,1.4,3.5,1.4
		c0.9,0,1.6-0.2,2.4-0.5c0.7-0.3,1.4-0.7,2-1.2c0.6-0.5,1.1-1,1.5-1.6c0.4-0.6,0.8-1.1,1.1-1.5l0.6,0.4
		C41.4,235.9,41,236.5,40.5,237.1z"/>
	<path fill="#FFFFFF" d="M44.8,227.4c0.8-1.6,1.7-3,2.9-4.2c1.2-1.2,2.5-2.1,3.9-2.8c1.4-0.7,2.8-1,4.1-1c1.2,0,2.2,0.2,3.1,0.7
		c0.9,0.5,1.6,1.1,2.2,1.9c0.6,0.8,1,1.6,1.3,2.5s0.4,1.8,0.4,2.7c0,1.8-0.4,3.5-1.1,5c-0.8,1.6-1.7,3-2.9,4.2
		c-1.2,1.2-2.5,2.1-3.9,2.8c-1.4,0.7-2.8,1-4.1,1c-1.1,0-2.1-0.2-3-0.6c-0.9-0.4-1.6-1-2.3-1.7c-0.6-0.7-1.1-1.5-1.4-2.5
		c-0.3-0.9-0.5-1.9-0.5-3C43.7,230.8,44,229.1,44.8,227.4z M47.8,238.7c0.8,0.8,1.7,1.1,2.9,1.1c1,0,1.8-0.3,2.7-0.8
		s1.6-1.3,2.3-2.2c0.7-0.9,1.3-1.9,1.8-3c0.5-1.1,1-2.2,1.3-3.3c0.4-1.1,0.6-2.1,0.8-3.1s0.3-1.8,0.3-2.4c0-1.5-0.3-2.6-0.9-3.5
		c-0.6-0.9-1.7-1.3-3.3-1.3c-0.9,0-1.7,0.3-2.5,0.8c-0.8,0.5-1.5,1.2-2.2,2c-0.7,0.8-1.2,1.8-1.8,2.9c-0.5,1.1-1,2.2-1.3,3.3
		c-0.4,1.1-0.6,2.2-0.8,3.3c-0.2,1.1-0.3,2-0.3,2.8C46.7,236.8,47.1,237.9,47.8,238.7z"/>
	<path fill="#FFFFFF" d="M65.7,220.8l0.2-0.6h7.3l-1.9,5.7h0.1c3-4,5.8-5.9,8.4-5.9c1.3,0,2.3,0.3,3.1,1c0.8,0.7,1.1,1.5,1.1,2.6
		c0,0.5-0.1,1-0.3,1.5c-0.2,0.5-0.4,1.1-0.6,1.8l-3,8.5c-0.2,0.5-0.4,1-0.5,1.5c-0.2,0.5-0.2,1-0.2,1.5c0,0.4,0.1,0.7,0.2,1
		c0.2,0.3,0.5,0.5,1,0.5c0.6,0,1.1-0.2,1.5-0.5c0.5-0.3,0.9-0.7,1.3-1.1c0.4-0.4,0.7-0.9,1-1.4c0.3-0.5,0.5-0.9,0.6-1.2l0.5,0.2
		c-0.2,0.3-0.4,0.7-0.6,1.2s-0.6,1-1.1,1.5c-0.4,0.5-1,0.9-1.6,1.3c-0.6,0.4-1.4,0.5-2.3,0.5c-1,0-1.8-0.2-2.5-0.6
		c-0.7-0.4-1-1.1-1-2.1c0-0.4,0.1-0.8,0.2-1.2c0.1-0.4,0.2-0.9,0.4-1.4l3.9-11c0.2-0.7,0.4-1.3,0.4-1.8c0-0.4-0.1-0.8-0.4-1.2
		c-0.3-0.4-0.7-0.6-1.4-0.6c-0.7,0-1.5,0.3-2.3,0.8c-0.9,0.5-1.8,1.2-2.7,2.1c-0.9,0.9-1.7,1.9-2.5,3.1c-0.8,1.2-1.4,2.5-1.9,3.8
		l-3.4,9.6h-3.2l6.6-19.1H65.7z"/>
	<path fill="#FFFFFF" d="M89.9,238c0-0.5-0.1-1-0.2-1.4c-0.1-0.4-0.3-0.8-0.4-1.2l-1-2.7c-0.3-0.7-0.5-1.4-0.8-2.2s-0.3-1.4-0.3-2.1
		c0-1.4,0.5-2.8,1.5-4.3c1-1.4,2.3-2.8,3.9-4.2l1-0.8l0.4,0.5c-0.2,0.2-0.5,0.5-0.9,0.9s-0.8,0.9-1.2,1.5c-0.4,0.6-0.8,1.2-1.1,2
		c-0.3,0.7-0.5,1.5-0.5,2.3c0,1.2,0.1,2.2,0.4,3.2c0.3,1,0.7,2,1.1,3.1c0.3,0.7,0.5,1.4,0.7,2c0.2,0.6,0.3,1.2,0.3,1.7
		c0.7-0.6,1.5-1.2,2.4-2c1-0.8,1.9-1.6,2.7-2.5c0.9-0.9,1.6-1.8,2.2-2.9c0.6-1,0.9-2.1,0.9-3.1c0-0.7-0.1-1.3-0.2-1.7
		c-0.2-0.4-0.3-0.8-0.5-1.2c-0.2-0.3-0.4-0.7-0.5-1c-0.2-0.3-0.2-0.7-0.2-1.1c0-0.5,0.2-0.9,0.6-1.1c0.4-0.2,0.9-0.3,1.5-0.3
		c1.5,0,2.3,1.1,2.3,3.4c0,1-0.2,2-0.6,3s-0.8,1.9-1.4,2.7c-0.6,0.9-1.2,1.7-2,2.5c-0.8,0.8-1.5,1.5-2.2,2.1l-2.3,2
		c-0.7,0.6-1.4,1.1-1.8,1.5c-0.5,0.3-1,0.7-1.4,1.2c-0.5,0.5-0.9,1-1.3,1.4s-0.6,0.8-0.8,1.1l-0.6-0.3
		C89.7,239.6,89.9,238.9,89.9,238z"/>
	<path fill="#FFFFFF" d="M118.5,236.5c-0.4,0.6-0.9,1.1-1.5,1.7s-1.4,1.1-2.4,1.5c-0.9,0.4-2.1,0.7-3.4,0.7c-1.3,0-2.4-0.2-3.3-0.6
		c-0.9-0.4-1.6-1-2.2-1.7c-0.6-0.7-1-1.4-1.2-2.2c-0.3-0.8-0.4-1.6-0.4-2.4c0-1.5,0.4-3.1,1.1-4.8c0.8-1.6,1.7-3.1,2.9-4.5
		c1.2-1.4,2.6-2.5,4.1-3.4c1.5-0.9,3.1-1.3,4.7-1.3c0.6,0,1.2,0.1,1.8,0.2c0.6,0.1,1.2,0.3,1.7,0.6c0.5,0.3,0.9,0.6,1.2,1.1
		c0.3,0.4,0.5,1,0.5,1.6c0,0.8-0.2,1.6-0.7,2.2c-0.4,0.6-1,1.2-1.7,1.6c-0.7,0.4-1.5,0.8-2.3,1.1c-0.8,0.3-1.7,0.5-2.5,0.7
		c-0.8,0.2-1.5,0.3-2.2,0.4c-0.7,0.1-1.1,0.1-1.4,0.1c-0.5,0-1,0-1.5,0c-0.5,0-0.9-0.1-1.3-0.1c-0.3,1-0.6,2-0.9,2.9
		c-0.2,1-0.3,2-0.3,3.1c0,1.7,0.4,2.9,1.3,3.7c0.9,0.8,1.9,1.2,3.3,1.2c1,0,1.8-0.2,2.6-0.6c0.8-0.4,1.4-0.8,2-1.4
		c0.6-0.5,1-1.1,1.4-1.6c0.4-0.5,0.7-1,0.9-1.3l0.6,0.3C119.2,235.6,118.9,235.9,118.5,236.5z M118.7,220.8c-0.4-0.4-1-0.6-1.8-0.6
		c-1,0-1.9,0.3-2.7,0.8c-0.9,0.6-1.7,1.2-2.4,2c-0.7,0.8-1.3,1.7-1.8,2.6c-0.5,0.9-0.9,1.8-1.2,2.6c0.7,0.1,1.5,0.2,2.3,0.2
		c1.1,0,2.1-0.2,3.1-0.5c1-0.3,1.8-0.8,2.6-1.3c0.8-0.6,1.3-1.2,1.8-1.9c0.4-0.7,0.7-1.5,0.7-2.3
		C119.3,221.8,119.1,221.2,118.7,220.8z"/>
	<path fill="#FFFFFF" d="M124,220.8l0.2-0.6h7.3l-1.9,5.7h0.1c3-4,5.8-5.9,8.4-5.9c1.3,0,2.3,0.3,3.1,1c0.8,0.7,1.1,1.5,1.1,2.6
		c0,0.5-0.1,1-0.3,1.5c-0.2,0.5-0.4,1.1-0.6,1.8l-3,8.5c-0.2,0.5-0.4,1-0.5,1.5c-0.2,0.5-0.2,1-0.2,1.5c0,0.4,0.1,0.7,0.2,1
		c0.2,0.3,0.5,0.5,1,0.5c0.6,0,1.1-0.2,1.5-0.5c0.5-0.3,0.9-0.7,1.3-1.1c0.4-0.4,0.7-0.9,1-1.4c0.3-0.5,0.5-0.9,0.6-1.2l0.5,0.2
		c-0.2,0.3-0.4,0.7-0.6,1.2s-0.6,1-1.1,1.5c-0.4,0.5-1,0.9-1.6,1.3c-0.6,0.4-1.4,0.5-2.3,0.5c-1,0-1.8-0.2-2.5-0.6
		c-0.7-0.4-1-1.1-1-2.1c0-0.4,0.1-0.8,0.2-1.2c0.1-0.4,0.2-0.9,0.4-1.4l3.9-11c0.2-0.7,0.4-1.3,0.4-1.8c0-0.4-0.1-0.8-0.4-1.2
		c-0.3-0.4-0.7-0.6-1.4-0.6c-0.7,0-1.5,0.3-2.3,0.8c-0.9,0.5-1.8,1.2-2.7,2.1c-0.9,0.9-1.7,1.9-2.5,3.1c-0.8,1.2-1.4,2.5-1.9,3.8
		l-3.4,9.6h-3.2l6.6-19.1H124z"/>
	<path fill="#FFFFFF" d="M146.7,220.8l0.2-0.6h7.3l-5.4,15.6c-0.2,0.5-0.3,0.9-0.5,1.4c-0.2,0.5-0.2,0.9-0.2,1.4
		c0,0.4,0.1,0.7,0.3,0.9c0.2,0.3,0.5,0.4,1,0.4c0.5,0,1-0.2,1.4-0.5c0.5-0.3,0.9-0.7,1.3-1.2c0.4-0.4,0.7-0.9,1-1.4
		c0.3-0.5,0.5-0.8,0.6-1.1l0.6,0.2c-0.1,0.2-0.3,0.6-0.6,1.1c-0.3,0.5-0.6,1-1.1,1.5c-0.5,0.5-1,0.9-1.7,1.3
		c-0.7,0.4-1.5,0.6-2.4,0.6c-1,0-1.8-0.2-2.4-0.6s-0.9-1.1-0.9-2.1c0-0.5,0.1-1.1,0.3-1.7s0.4-1.2,0.6-1.7l4.7-13.5H146.7z
		 M154.2,207.7c0.4-0.4,0.9-0.6,1.5-0.6c0.6,0,1.1,0.2,1.5,0.6s0.6,0.9,0.6,1.5s-0.2,1.1-0.6,1.5s-0.9,0.6-1.5,0.6
		c-0.6,0-1.1-0.2-1.5-0.6s-0.6-0.9-0.6-1.5S153.8,208.1,154.2,207.7z"/>
	<path fill="#FFFFFF" d="M170.1,236.5c-0.4,0.6-0.9,1.1-1.5,1.7s-1.4,1.1-2.4,1.5c-0.9,0.4-2.1,0.7-3.4,0.7c-1.3,0-2.4-0.2-3.3-0.6
		c-0.9-0.4-1.6-1-2.2-1.7c-0.6-0.7-1-1.4-1.2-2.2c-0.3-0.8-0.4-1.6-0.4-2.4c0-1.5,0.4-3.1,1.1-4.8c0.8-1.6,1.7-3.1,2.9-4.5
		c1.2-1.4,2.6-2.5,4.1-3.4c1.5-0.9,3.1-1.3,4.7-1.3c0.6,0,1.2,0.1,1.8,0.2c0.6,0.1,1.2,0.3,1.7,0.6c0.5,0.3,0.9,0.6,1.2,1.1
		c0.3,0.4,0.5,1,0.5,1.6c0,0.8-0.2,1.6-0.7,2.2c-0.4,0.6-1,1.2-1.7,1.6c-0.7,0.4-1.5,0.8-2.3,1.1c-0.8,0.3-1.7,0.5-2.5,0.7
		c-0.8,0.2-1.5,0.3-2.2,0.4c-0.7,0.1-1.1,0.1-1.4,0.1c-0.5,0-1,0-1.5,0c-0.5,0-0.9-0.1-1.3-0.1c-0.3,1-0.6,2-0.9,2.9
		c-0.2,1-0.3,2-0.3,3.1c0,1.7,0.4,2.9,1.3,3.7c0.9,0.8,1.9,1.2,3.3,1.2c1,0,1.8-0.2,2.6-0.6c0.8-0.4,1.4-0.8,2-1.4
		c0.6-0.5,1-1.1,1.4-1.6c0.4-0.5,0.7-1,0.9-1.3l0.6,0.3C170.7,235.6,170.4,235.9,170.1,236.5z M170.3,220.8c-0.4-0.4-1-0.6-1.8-0.6
		c-1,0-1.9,0.3-2.7,0.8c-0.9,0.6-1.7,1.2-2.4,2c-0.7,0.8-1.3,1.7-1.8,2.6c-0.5,0.9-0.9,1.8-1.2,2.6c0.7,0.1,1.5,0.2,2.3,0.2
		c1.1,0,2.1-0.2,3.1-0.5c1-0.3,1.8-0.8,2.6-1.3c0.8-0.6,1.3-1.2,1.8-1.9c0.4-0.7,0.7-1.5,0.7-2.3
		C170.8,221.8,170.6,221.2,170.3,220.8z"/>
	<path fill="#FFFFFF" d="M175.5,220.8l0.2-0.6h7.3l-1.9,5.7h0.1c3-4,5.8-5.9,8.4-5.9c1.3,0,2.3,0.3,3.1,1c0.8,0.7,1.1,1.5,1.1,2.6
		c0,0.5-0.1,1-0.3,1.5c-0.2,0.5-0.4,1.1-0.6,1.8l-3,8.5c-0.2,0.5-0.4,1-0.5,1.5c-0.2,0.5-0.2,1-0.2,1.5c0,0.4,0.1,0.7,0.2,1
		c0.2,0.3,0.5,0.5,1,0.5c0.6,0,1.1-0.2,1.5-0.5c0.5-0.3,0.9-0.7,1.3-1.1c0.4-0.4,0.7-0.9,1-1.4c0.3-0.5,0.5-0.9,0.6-1.2l0.5,0.2
		c-0.2,0.3-0.4,0.7-0.6,1.2s-0.6,1-1.1,1.5c-0.4,0.5-1,0.9-1.6,1.3c-0.6,0.4-1.4,0.5-2.3,0.5c-1,0-1.8-0.2-2.5-0.6
		c-0.7-0.4-1-1.1-1-2.1c0-0.4,0.1-0.8,0.2-1.2c0.1-0.4,0.2-0.9,0.4-1.4l3.9-11c0.2-0.7,0.4-1.3,0.4-1.8c0-0.4-0.1-0.8-0.4-1.2
		c-0.3-0.4-0.7-0.6-1.4-0.6c-0.7,0-1.5,0.3-2.3,0.8c-0.9,0.5-1.8,1.2-2.7,2.1c-0.9,0.9-1.7,1.9-2.5,3.1c-0.8,1.2-1.4,2.5-1.9,3.8
		l-3.4,9.6h-3.2l6.6-19.1H175.5z"/>
	<path fill="#FFFFFF" d="M207.4,215.6l-1.7,4.5h5l-0.2,0.6h-5l-5.2,14.6c-0.2,0.5-0.3,0.9-0.5,1.4c-0.2,0.5-0.2,1-0.2,1.5
		c0,0.5,0.1,0.8,0.3,1.1s0.6,0.4,1.1,0.4c0.6,0,1.1-0.2,1.6-0.5c0.5-0.3,0.9-0.7,1.3-1.2c0.4-0.4,0.7-0.9,1-1.4s0.5-0.8,0.6-1.1
		l0.6,0.2c-0.1,0.2-0.3,0.6-0.6,1.1c-0.3,0.5-0.6,1-1.1,1.5c-0.5,0.5-1,0.9-1.7,1.3s-1.5,0.6-2.5,0.6c-1.2,0-2-0.3-2.6-0.9
		c-0.6-0.6-0.9-1.2-0.9-2c0-0.6,0.1-1.3,0.3-2.1c0.2-0.8,0.5-1.5,0.7-2.1l4.5-12.5h-4.1l0.2-0.6h4.1l1.7-4.5H207.4z"/>
	<path fill="#FFFFFF" d="M233,237.1c-0.5,0.6-1.1,1.1-1.7,1.6c-0.7,0.5-1.4,0.9-2.3,1.2c-0.9,0.3-1.8,0.5-2.9,0.5
		c-1.1,0-2.1-0.2-3-0.6c-0.9-0.4-1.6-0.9-2.2-1.5c-0.6-0.6-1.1-1.4-1.4-2.2c-0.3-0.8-0.5-1.7-0.5-2.7c0-1.6,0.4-3.2,1.1-4.8
		c0.7-1.6,1.7-3.1,2.9-4.5c1.2-1.4,2.6-2.5,4.2-3.4c1.6-0.9,3.2-1.3,4.9-1.3c0.5,0,1,0.1,1.5,0.2c0.5,0.1,1,0.3,1.4,0.6
		c0.4,0.3,0.7,0.7,1,1.1c0.3,0.5,0.4,1.1,0.4,1.8c0,1-0.3,1.7-0.8,2c-0.5,0.3-1,0.5-1.6,0.5c-0.6,0-0.9-0.1-1.1-0.3
		c-0.2-0.2-0.3-0.5-0.3-0.8c0-0.4,0.1-0.7,0.2-0.9c0.1-0.2,0.3-0.4,0.4-0.6c0.2-0.2,0.3-0.4,0.4-0.6c0.1-0.2,0.2-0.5,0.2-0.9
		c0-0.5-0.2-0.8-0.5-1c-0.4-0.2-0.8-0.3-1.4-0.3c-1,0-1.9,0.2-2.8,0.7c-0.9,0.5-1.6,1.1-2.4,2c-0.7,0.8-1.4,1.7-1.9,2.8
		c-0.6,1-1,2.1-1.4,3.2c-0.4,1.1-0.7,2.2-0.9,3.3c-0.2,1.1-0.3,2.1-0.3,2.9c0,1.3,0.4,2.4,1.1,3.4c0.8,0.9,1.9,1.4,3.5,1.4
		c0.9,0,1.6-0.2,2.4-0.5c0.7-0.3,1.4-0.7,2-1.2c0.6-0.5,1.1-1,1.5-1.6c0.4-0.6,0.8-1.1,1.1-1.5l0.6,0.4
		C233.9,235.9,233.5,236.5,233,237.1z"/>
	<path fill="#FFFFFF" d="M237.3,227.4c0.8-1.6,1.7-3,2.9-4.2c1.2-1.2,2.5-2.1,3.9-2.8c1.4-0.7,2.8-1,4.1-1c1.2,0,2.2,0.2,3.1,0.7
		c0.9,0.5,1.6,1.1,2.2,1.9c0.6,0.8,1,1.6,1.3,2.5c0.3,0.9,0.4,1.8,0.4,2.7c0,1.8-0.4,3.5-1.1,5c-0.8,1.6-1.7,3-2.9,4.2
		c-1.2,1.2-2.5,2.1-3.9,2.8c-1.4,0.7-2.8,1-4.1,1c-1.1,0-2.1-0.2-3-0.6c-0.9-0.4-1.6-1-2.3-1.7c-0.6-0.7-1.1-1.5-1.4-2.5
		c-0.3-0.9-0.5-1.9-0.5-3C236.2,230.8,236.6,229.1,237.3,227.4z M240.3,238.7c0.8,0.8,1.7,1.1,2.9,1.1c1,0,1.8-0.3,2.7-0.8
		s1.6-1.3,2.3-2.2c0.7-0.9,1.3-1.9,1.8-3c0.5-1.1,1-2.2,1.3-3.3c0.4-1.1,0.6-2.1,0.8-3.1c0.2-1,0.3-1.8,0.3-2.4
		c0-1.5-0.3-2.6-0.9-3.5c-0.6-0.9-1.7-1.3-3.3-1.3c-0.9,0-1.7,0.3-2.5,0.8c-0.8,0.5-1.5,1.2-2.2,2c-0.7,0.8-1.2,1.8-1.8,2.9
		c-0.5,1.1-1,2.2-1.3,3.3c-0.4,1.1-0.6,2.2-0.8,3.3c-0.2,1.1-0.3,2-0.3,2.8C239.2,236.8,239.6,237.9,240.3,238.7z"/>
	<path fill="#FFFFFF" d="M258.2,220.8l0.2-0.6h7.3l-1.9,5.7h0.1c3-4,5.8-5.9,8.4-5.9c1.3,0,2.3,0.3,3.1,1c0.8,0.7,1.1,1.5,1.1,2.6
		c0,0.5-0.1,1-0.3,1.5s-0.4,1.1-0.6,1.8l-3,8.5c-0.2,0.5-0.4,1-0.5,1.5c-0.2,0.5-0.2,1-0.2,1.5c0,0.4,0.1,0.7,0.2,1
		c0.2,0.3,0.5,0.5,1,0.5c0.6,0,1.1-0.2,1.5-0.5s0.9-0.7,1.3-1.1c0.4-0.4,0.7-0.9,1-1.4c0.3-0.5,0.5-0.9,0.6-1.2l0.5,0.2
		c-0.2,0.3-0.4,0.7-0.6,1.2c-0.3,0.5-0.6,1-1.1,1.5c-0.4,0.5-1,0.9-1.6,1.3c-0.6,0.4-1.4,0.5-2.3,0.5c-1,0-1.8-0.2-2.5-0.6
		c-0.7-0.4-1-1.1-1-2.1c0-0.4,0.1-0.8,0.2-1.2c0.1-0.4,0.2-0.9,0.4-1.4l3.9-11c0.2-0.7,0.4-1.3,0.4-1.8c0-0.4-0.1-0.8-0.4-1.2
		c-0.3-0.4-0.7-0.6-1.4-0.6c-0.7,0-1.5,0.3-2.3,0.8c-0.9,0.5-1.8,1.2-2.7,2.1c-0.9,0.9-1.7,1.9-2.5,3.1c-0.8,1.2-1.4,2.5-1.9,3.8
		l-3.5,9.6h-3.2l6.6-19.1H258.2z"/>
	<path fill="#FFFFFF" d="M285.5,217.6c0.5-1.8,1.2-3.4,2.1-5c0.9-1.5,1.9-2.9,3-4c1.1-1.2,2.4-2.1,3.7-2.7s2.6-1,4-1
		c0.8,0,1.5,0.1,2,0.3c0.6,0.2,1,0.5,1.4,0.9c0.4,0.4,0.6,0.7,0.8,1.2c0.2,0.4,0.3,0.8,0.3,1.2c0,0.5-0.1,1-0.4,1.6
		c-0.3,0.5-0.8,0.8-1.6,0.8c-0.7,0-1.2-0.1-1.4-0.4c-0.3-0.3-0.4-0.6-0.4-0.9c0-0.3,0.1-0.6,0.2-0.8c0.1-0.2,0.3-0.4,0.4-0.6
		s0.3-0.4,0.4-0.6c0.1-0.2,0.2-0.4,0.2-0.6c0-0.5-0.2-0.9-0.5-1c-0.4-0.2-0.8-0.3-1.2-0.3c-1.4,0-2.6,0.4-3.6,1.3
		c-1,0.9-1.9,1.9-2.7,3.1c-0.7,1.2-1.3,2.4-1.8,3.7s-0.8,2.3-1,3.1l-1,3.5h5.7l-0.2,0.6h-5.7l-4.1,15.6c-0.5,2-1.2,3.9-2,5.7
		c-0.8,1.8-1.7,3.5-2.7,4.9c-1,1.4-2.1,2.5-3.4,3.4c-1.2,0.8-2.5,1.3-3.8,1.3c-0.4,0-0.8,0-1.3-0.1c-0.4-0.1-0.9-0.3-1.2-0.5
		c-0.4-0.2-0.7-0.5-0.9-0.9c-0.2-0.4-0.4-0.9-0.4-1.5c0-0.6,0.2-1.1,0.5-1.5s0.9-0.6,1.6-0.6c0.4,0,0.7,0.1,1,0.2
		c0.2,0.2,0.4,0.5,0.4,1c0,0.3-0.1,0.7-0.2,1c-0.2,0.4-0.2,0.7-0.2,1.2c0,0.4,0.1,0.7,0.4,0.9c0.3,0.2,0.6,0.3,1,0.3
		c1.3,0,2.5-0.9,3.7-2.6c1.2-1.8,2.3-4.6,3.4-8.5l5.1-19h-4.4l0.2-0.6h4.4L285.5,217.6z"/>
	<path fill="#FFFFFF" d="M304.3,236.5c-0.4,0.6-0.9,1.1-1.5,1.7c-0.6,0.6-1.4,1.1-2.4,1.5c-0.9,0.4-2.1,0.7-3.4,0.7
		s-2.4-0.2-3.3-0.6c-0.9-0.4-1.6-1-2.2-1.7c-0.6-0.7-1-1.4-1.2-2.2c-0.3-0.8-0.4-1.6-0.4-2.4c0-1.5,0.4-3.1,1.1-4.8
		c0.8-1.6,1.7-3.1,2.9-4.5c1.2-1.4,2.6-2.5,4.1-3.4c1.5-0.9,3.1-1.3,4.7-1.3c0.6,0,1.2,0.1,1.8,0.2s1.2,0.3,1.7,0.6s0.9,0.6,1.2,1.1
		c0.3,0.4,0.5,1,0.5,1.6c0,0.8-0.2,1.6-0.7,2.2c-0.4,0.6-1,1.2-1.7,1.6c-0.7,0.4-1.5,0.8-2.3,1.1c-0.8,0.3-1.7,0.5-2.5,0.7
		c-0.8,0.2-1.5,0.3-2.2,0.4c-0.7,0.1-1.1,0.1-1.4,0.1c-0.5,0-1,0-1.5,0c-0.5,0-0.9-0.1-1.3-0.1c-0.3,1-0.6,2-0.9,2.9
		c-0.2,1-0.3,2-0.3,3.1c0,1.7,0.4,2.9,1.3,3.7s1.9,1.2,3.3,1.2c1,0,1.8-0.2,2.6-0.6c0.8-0.4,1.4-0.8,2-1.4c0.6-0.5,1-1.1,1.4-1.6
		c0.4-0.5,0.7-1,0.9-1.3l0.6,0.3C305,235.6,304.7,235.9,304.3,236.5z M304.5,220.8c-0.4-0.4-1-0.6-1.8-0.6c-1,0-1.9,0.3-2.7,0.8
		c-0.9,0.6-1.7,1.2-2.4,2c-0.7,0.8-1.3,1.7-1.8,2.6c-0.5,0.9-0.9,1.8-1.2,2.6c0.7,0.1,1.5,0.2,2.3,0.2c1.1,0,2.1-0.2,3.1-0.5
		c1-0.3,1.8-0.8,2.6-1.3c0.8-0.6,1.3-1.2,1.8-1.9c0.4-0.7,0.7-1.5,0.7-2.3C305.1,221.8,304.9,221.2,304.5,220.8z"/>
	<path fill="#FFFFFF" d="M311.7,227.8c-0.4-0.6-0.6-1.3-0.6-2.1c0-0.7,0.2-1.4,0.6-2.2s0.9-1.4,1.5-2c0.6-0.6,1.4-1.1,2.3-1.4
		c0.9-0.4,1.9-0.6,2.9-0.6c1.3,0,2.3,0.3,3.1,0.9c0.8,0.6,1.2,1.3,1.2,2.2c0,1.3-0.6,1.9-1.9,1.9c-0.4,0-0.8-0.1-1.1-0.4
		c-0.3-0.2-0.5-0.6-0.5-1.1c0-0.4,0.1-0.7,0.3-0.9c0.2-0.2,0.3-0.5,0.3-0.8c0-0.8-0.5-1.2-1.6-1.2c-0.7,0-1.4,0.1-1.9,0.3
		c-0.5,0.2-1,0.5-1.3,0.9s-0.6,0.8-0.8,1.2c-0.2,0.5-0.3,0.9-0.3,1.4c0,0.6,0.2,1.2,0.5,1.7c0.3,0.5,0.7,1.2,1.3,1.9l2.7,3.5
		c0.4,0.5,0.6,0.9,0.8,1.4c0.1,0.5,0.2,1,0.2,1.5c0,1-0.3,2-0.8,2.7c-0.5,0.8-1.2,1.4-2,2c-0.8,0.5-1.6,0.9-2.5,1.2
		c-0.9,0.3-1.8,0.4-2.6,0.4c-0.7,0-1.4-0.1-2-0.2c-0.6-0.2-1.2-0.4-1.7-0.7c-0.5-0.3-0.9-0.7-1.2-1.1c-0.3-0.4-0.5-1-0.5-1.5
		c0-0.7,0.2-1.2,0.7-1.6c0.4-0.4,1-0.5,1.7-0.5c0.3,0,0.5,0.1,0.8,0.3c0.2,0.2,0.3,0.4,0.3,0.7c0,0.4-0.1,0.7-0.2,1
		c-0.2,0.3-0.2,0.7-0.2,1c0,0.7,0.2,1.2,0.7,1.5c0.5,0.3,1.1,0.4,1.9,0.4s1.4-0.1,2-0.4c0.6-0.2,1.1-0.6,1.5-0.9s0.7-0.8,0.9-1.2
		s0.3-0.9,0.3-1.3c0-0.6-0.1-1.2-0.3-1.7c-0.2-0.5-0.5-1-1-1.7l-2.3-3C312.5,229,312.1,228.4,311.7,227.8z"/>
	<path fill="#FFFFFF" d="M326.2,227.8c-0.4-0.6-0.6-1.3-0.6-2.1c0-0.7,0.2-1.4,0.6-2.2s0.9-1.4,1.5-2c0.6-0.6,1.4-1.1,2.3-1.4
		c0.9-0.4,1.9-0.6,2.9-0.6c1.3,0,2.3,0.3,3.1,0.9c0.8,0.6,1.2,1.3,1.2,2.2c0,1.3-0.6,1.9-1.9,1.9c-0.4,0-0.8-0.1-1.1-0.4
		c-0.3-0.2-0.5-0.6-0.5-1.1c0-0.4,0.1-0.7,0.3-0.9c0.2-0.2,0.3-0.5,0.3-0.8c0-0.8-0.5-1.2-1.6-1.2c-0.7,0-1.4,0.1-1.9,0.3
		c-0.5,0.2-1,0.5-1.3,0.9s-0.6,0.8-0.8,1.2c-0.2,0.5-0.3,0.9-0.3,1.4c0,0.6,0.2,1.2,0.5,1.7c0.3,0.5,0.7,1.2,1.3,1.9l2.7,3.5
		c0.4,0.5,0.6,0.9,0.8,1.4c0.1,0.5,0.2,1,0.2,1.5c0,1-0.3,2-0.8,2.7c-0.5,0.8-1.2,1.4-2,2c-0.8,0.5-1.6,0.9-2.5,1.2
		c-0.9,0.3-1.8,0.4-2.6,0.4c-0.7,0-1.4-0.1-2-0.2c-0.6-0.2-1.2-0.4-1.7-0.7c-0.5-0.3-0.9-0.7-1.2-1.1c-0.3-0.4-0.5-1-0.5-1.5
		c0-0.7,0.2-1.2,0.7-1.6c0.4-0.4,1-0.5,1.7-0.5c0.3,0,0.5,0.1,0.8,0.3c0.2,0.2,0.3,0.4,0.3,0.7c0,0.4-0.1,0.7-0.2,1
		c-0.2,0.3-0.2,0.7-0.2,1c0,0.7,0.2,1.2,0.7,1.5c0.5,0.3,1.1,0.4,1.9,0.4s1.4-0.1,2-0.4c0.6-0.2,1.1-0.6,1.5-0.9s0.7-0.8,0.9-1.2
		s0.3-0.9,0.3-1.3c0-0.6-0.1-1.2-0.3-1.7c-0.2-0.5-0.5-1-1-1.7l-2.3-3C327,229,326.6,228.4,326.2,227.8z"/>
	<path fill="#FFFFFF" d="M338.8,220.8l0.2-0.6h7.3l-5.4,15.6c-0.2,0.5-0.3,0.9-0.5,1.4c-0.2,0.5-0.2,0.9-0.2,1.4
		c0,0.4,0.1,0.7,0.3,0.9c0.2,0.3,0.5,0.4,1,0.4c0.5,0,1-0.2,1.4-0.5c0.5-0.3,0.9-0.7,1.3-1.2s0.7-0.9,1-1.4c0.3-0.5,0.5-0.8,0.6-1.1
		l0.6,0.2c-0.1,0.2-0.3,0.6-0.6,1.1s-0.6,1-1.1,1.5c-0.5,0.5-1,0.9-1.7,1.3s-1.5,0.6-2.4,0.6c-1,0-1.8-0.2-2.4-0.6
		c-0.6-0.4-0.9-1.1-0.9-2.1c0-0.5,0.1-1.1,0.3-1.7s0.4-1.2,0.6-1.7l4.7-13.5H338.8z M346.3,207.7c0.4-0.4,0.9-0.6,1.5-0.6
		s1.1,0.2,1.5,0.6s0.6,0.9,0.6,1.5s-0.2,1.1-0.6,1.5s-0.9,0.6-1.5,0.6s-1.1-0.2-1.5-0.6s-0.6-0.9-0.6-1.5S345.9,208.1,346.3,207.7z"
		/>
	<path fill="#FFFFFF" d="M348.7,227.4c0.8-1.6,1.7-3,2.9-4.2c1.2-1.2,2.5-2.1,3.9-2.8c1.4-0.7,2.8-1,4.1-1c1.2,0,2.2,0.2,3.1,0.7
		c0.9,0.5,1.6,1.1,2.2,1.9c0.6,0.8,1,1.6,1.3,2.5c0.3,0.9,0.4,1.8,0.4,2.7c0,1.8-0.4,3.5-1.1,5c-0.8,1.6-1.7,3-2.9,4.2
		c-1.2,1.2-2.5,2.1-3.9,2.8c-1.4,0.7-2.8,1-4.1,1c-1.1,0-2.1-0.2-3-0.6c-0.9-0.4-1.6-1-2.3-1.7c-0.6-0.7-1.1-1.5-1.4-2.5
		c-0.3-0.9-0.5-1.9-0.5-3C347.6,230.8,348,229.1,348.7,227.4z M351.7,238.7c0.8,0.8,1.7,1.1,2.9,1.1c1,0,1.8-0.3,2.7-0.8
		s1.6-1.3,2.3-2.2c0.7-0.9,1.3-1.9,1.8-3c0.5-1.1,1-2.2,1.3-3.3c0.4-1.1,0.6-2.1,0.8-3.1c0.2-1,0.3-1.8,0.3-2.4
		c0-1.5-0.3-2.6-0.9-3.5c-0.6-0.9-1.7-1.3-3.3-1.3c-0.9,0-1.7,0.3-2.5,0.8c-0.8,0.5-1.5,1.2-2.2,2c-0.7,0.8-1.2,1.8-1.8,2.9
		c-0.5,1.1-1,2.2-1.3,3.3c-0.4,1.1-0.6,2.2-0.8,3.3c-0.2,1.1-0.3,2-0.3,2.8C350.6,236.8,351,237.9,351.7,238.7z"/>
	<path fill="#FFFFFF" d="M369.6,220.8l0.2-0.6h7.3l-1.9,5.7h0.1c3-4,5.8-5.9,8.4-5.9c1.3,0,2.3,0.3,3.1,1c0.8,0.7,1.1,1.5,1.1,2.6
		c0,0.5-0.1,1-0.3,1.5s-0.4,1.1-0.6,1.8l-3,8.5c-0.2,0.5-0.4,1-0.5,1.5c-0.2,0.5-0.2,1-0.2,1.5c0,0.4,0.1,0.7,0.2,1
		c0.2,0.3,0.5,0.5,1,0.5c0.6,0,1.1-0.2,1.5-0.5s0.9-0.7,1.3-1.1c0.4-0.4,0.7-0.9,1-1.4c0.3-0.5,0.5-0.9,0.6-1.2l0.5,0.2
		c-0.2,0.3-0.4,0.7-0.6,1.2c-0.3,0.5-0.6,1-1.1,1.5c-0.4,0.5-1,0.9-1.6,1.3c-0.6,0.4-1.4,0.5-2.3,0.5c-1,0-1.8-0.2-2.5-0.6
		c-0.7-0.4-1-1.1-1-2.1c0-0.4,0.1-0.8,0.2-1.2c0.1-0.4,0.2-0.9,0.4-1.4l3.9-11c0.2-0.7,0.4-1.3,0.4-1.8c0-0.4-0.1-0.8-0.4-1.2
		c-0.3-0.4-0.7-0.6-1.4-0.6c-0.7,0-1.5,0.3-2.3,0.8c-0.9,0.5-1.8,1.2-2.7,2.1c-0.9,0.9-1.7,1.9-2.5,3.1c-0.8,1.2-1.4,2.5-1.9,3.8
		l-3.5,9.6h-3.2l6.6-19.1H369.6z"/>
	<path fill="#FFFFFF" d="M395.2,227.8c-0.4-0.6-0.6-1.3-0.6-2.1c0-0.7,0.2-1.4,0.6-2.2s0.9-1.4,1.5-2c0.6-0.6,1.4-1.1,2.3-1.4
		c0.9-0.4,1.9-0.6,2.9-0.6c1.3,0,2.3,0.3,3.1,0.9c0.8,0.6,1.2,1.3,1.2,2.2c0,1.3-0.6,1.9-1.9,1.9c-0.4,0-0.8-0.1-1.1-0.4
		c-0.3-0.2-0.5-0.6-0.5-1.1c0-0.4,0.1-0.7,0.3-0.9c0.2-0.2,0.3-0.5,0.3-0.8c0-0.8-0.5-1.2-1.6-1.2c-0.7,0-1.4,0.1-1.9,0.3
		c-0.5,0.2-1,0.5-1.3,0.9s-0.6,0.8-0.8,1.2c-0.2,0.5-0.3,0.9-0.3,1.4c0,0.6,0.2,1.2,0.5,1.7c0.3,0.5,0.7,1.2,1.3,1.9l2.7,3.5
		c0.4,0.5,0.6,0.9,0.8,1.4c0.1,0.5,0.2,1,0.2,1.5c0,1-0.3,2-0.8,2.7c-0.5,0.8-1.2,1.4-2,2c-0.8,0.5-1.6,0.9-2.5,1.2
		c-0.9,0.3-1.8,0.4-2.6,0.4c-0.7,0-1.4-0.1-2-0.2c-0.6-0.2-1.2-0.4-1.7-0.7c-0.5-0.3-0.9-0.7-1.2-1.1c-0.3-0.4-0.5-1-0.5-1.5
		c0-0.7,0.2-1.2,0.7-1.6c0.4-0.4,1-0.5,1.7-0.5c0.3,0,0.5,0.1,0.8,0.3c0.2,0.2,0.3,0.4,0.3,0.7c0,0.4-0.1,0.7-0.2,1
		c-0.2,0.3-0.2,0.7-0.2,1c0,0.7,0.2,1.2,0.7,1.5c0.5,0.3,1.1,0.4,1.9,0.4s1.4-0.1,2-0.4c0.6-0.2,1.1-0.6,1.5-0.9s0.7-0.8,0.9-1.2
		s0.3-0.9,0.3-1.3c0-0.6-0.1-1.2-0.3-1.7c-0.2-0.5-0.5-1-1-1.7l-2.3-3C396,229,395.6,228.4,395.2,227.8z"/>
</g>
</svg>
